<?xml version="1.0" encoding="utf-8"?>
<!-- Generator: Adobe Illustrator 26.5.0, SVG Export Plug-In . SVG Version: 6.00 Build 0)  -->
<svg version="1.1" id="Layer_1" xmlns="http://www.w3.org/2000/svg" xmlns:xlink="http://www.w3.org/1999/xlink" x="0px" y="0px"
	 viewBox="0 0 22.3 24.24" style="enable-background:new 0 0 22.3 24.24;" xml:space="preserve">
<style type="text/css">
	.st0{fill:#F3AC45;}
	.st1{fill:#F8BE59;}
	.st2{fill:#FFFFFF;}
	.st3{fill:#FFF3DF;}
	.st4{fill:#FFE0A1;}
	.st5{fill:#FDC388;}
	.st6{fill:#C6813B;}
</style>
<g>
	<g>
		<polygon class="st0" points="12.6,6.79 12.6,7.76 12.6,8.73 12.6,9.7 12.6,10.67 12.6,11.64 12.6,12.6 12.6,13.57 12.6,14.54 
			11.63,14.54 10.67,14.54 10.67,15.51 11.63,15.51 12.6,15.51 13.57,15.51 13.57,14.54 13.57,13.57 13.57,12.6 13.57,11.64 
			13.57,10.67 13.57,9.7 13.57,8.73 13.57,7.76 13.57,6.79 		"/>
		<rect x="9.7" y="13.57" class="st0" width="0.97" height="0.97"/>
		<rect x="8.73" y="12.6" class="st0" width="0.97" height="0.97"/>
		<rect x="7.76" y="11.64" class="st0" width="0.97" height="0.96"/>
		<rect x="6.79" y="10.67" class="st0" width="0.97" height="0.97"/>
	</g>
	<polygon class="st1" points="11.63,5.82 10.67,5.82 10.67,6.79 9.7,6.79 9.7,7.76 8.73,7.76 8.73,8.73 7.76,8.73 7.76,9.7 
		6.79,9.7 6.79,10.67 7.76,10.67 7.76,11.64 8.73,11.64 8.73,12.6 9.7,12.6 9.7,13.57 10.67,13.57 10.67,14.54 11.63,14.54 
		12.6,14.54 12.6,13.57 12.6,12.6 12.6,11.64 12.6,10.67 12.6,9.7 12.6,8.73 12.6,7.76 12.6,6.79 12.6,5.82 	"/>
	<g>
		<rect x="5.82" y="3.88" class="st2" width="0.97" height="0.97"/>
		<rect x="3.88" y="5.82" class="st2" width="0.97" height="0.97"/>
	</g>
	<g>
		<rect x="16.48" y="16.48" class="st3" width="0.97" height="0.97"/>
		<rect x="15.51" y="3.88" class="st3" width="0.97" height="0.97"/>
		<polygon class="st3" points="14.54,2.91 13.57,2.91 13.57,3.88 14.54,3.88 15.51,3.88 15.51,2.91 		"/>
		<polygon class="st3" points="12.6,1.94 11.63,1.94 10.67,1.94 9.7,1.94 8.73,1.94 8.73,2.91 9.7,2.91 10.67,2.91 11.63,2.91 
			12.6,2.91 13.57,2.91 13.57,1.94 		"/>
		<polygon class="st3" points="6.79,2.91 6.79,3.88 7.76,3.88 8.73,3.88 8.73,2.91 7.76,2.91 		"/>
		<rect x="2.91" y="14.54" class="st3" width="0.97" height="0.97"/>
		<polygon class="st3" points="2.91,12.6 1.94,12.6 1.94,13.57 1.94,14.54 2.91,14.54 2.91,13.57 		"/>
	</g>
	<path class="st4" d="M19.39,8.73V7.76V6.79h-0.97V5.82h-0.97V4.85h-0.97h-0.97V3.88h-0.97h-0.97V2.91H12.6h-0.97h-0.96H9.7H8.73
		v0.97H7.76H6.79v0.97H5.82H4.85v0.97v0.97H3.88H2.91v0.97v0.97H1.94V9.7v0.97v0.97v0.96h0.97v0.97v0.97h0.97v0.97v0.97h0.97v0.97
		h0.97h0.97v0.97h0.97h0.97v0.97H9.7h0.97h0.96h0.97h0.97v-0.97h0.97h0.97v-0.97h0.97v-0.97h0.97h0.97v-0.97h0.97v-0.97v-0.97h0.97
		V12.6v-0.96v-0.97V9.7V8.73H19.39z M13.57,15.51H12.6h-0.97h-0.96v-0.97H9.7v-0.97H8.73V12.6H7.76v-0.96H6.79v-0.97V9.7h0.97V8.73
		h0.97V7.76H9.7V6.79h0.97V5.82h0.96h0.97v0.97h0.97v0.97v0.97V9.7v0.97v0.97v0.96v0.97v0.97V15.51z"/>
	<polygon class="st5" points="20.36,13.57 20.36,14.54 20.36,15.51 19.39,15.51 19.39,16.48 18.42,16.48 18.42,17.45 17.45,17.45 
		17.45,18.42 16.48,18.42 15.51,18.42 15.51,19.39 14.54,19.39 13.57,19.39 13.57,20.36 12.6,20.36 11.63,20.36 10.67,20.36 
		9.7,20.36 8.73,20.36 8.73,19.39 7.76,19.39 6.79,19.39 6.79,18.42 5.82,18.42 4.85,18.42 4.85,17.45 3.88,17.45 3.88,16.48 
		2.91,16.48 2.91,15.51 1.94,15.51 1.94,14.54 1.94,13.57 0.97,13.57 0.97,14.54 0.97,15.51 0.97,16.48 0.97,17.45 1.94,17.45 
		1.94,18.42 1.94,19.39 2.91,19.39 2.91,20.36 3.88,20.36 3.88,21.33 4.85,21.33 5.82,21.33 5.82,22.3 6.79,22.3 7.76,22.3 
		7.76,23.27 8.73,23.27 9.7,23.27 10.67,23.27 11.63,23.27 12.6,23.27 13.57,23.27 14.54,23.27 14.54,22.3 15.51,22.3 16.48,22.3 
		16.48,21.33 17.45,21.33 18.42,21.33 18.42,20.36 19.39,20.36 19.39,19.39 20.36,19.39 20.36,18.42 20.36,17.45 21.33,17.45 
		21.33,16.48 21.33,15.51 21.33,14.54 21.33,13.57 	"/>
	<g>
		<polygon class="st1" points="20.36,8.73 20.36,9.7 20.36,10.67 20.36,11.64 20.36,12.6 20.36,13.57 21.33,13.57 21.33,12.6 
			21.33,11.64 21.33,10.67 21.33,9.7 21.33,8.73 		"/>
		<polygon class="st1" points="19.39,14.54 19.39,15.51 20.36,15.51 20.36,14.54 20.36,13.57 19.39,13.57 		"/>
		<polygon class="st1" points="20.36,6.79 19.39,6.79 19.39,7.76 19.39,8.73 20.36,8.73 20.36,7.76 		"/>
		<rect x="18.42" y="15.51" class="st1" width="0.97" height="0.97"/>
		<polygon class="st1" points="19.39,4.85 18.42,4.85 18.42,3.88 17.45,3.88 17.45,2.91 16.48,2.91 15.51,2.91 15.51,3.88 
			16.48,3.88 16.48,4.85 17.45,4.85 17.45,5.82 18.42,5.82 18.42,6.79 19.39,6.79 19.39,5.82 		"/>
		<rect x="17.45" y="16.48" class="st1" width="0.97" height="0.97"/>
		<polygon class="st1" points="15.51,17.45 15.51,18.42 16.48,18.42 17.45,18.42 17.45,17.45 16.48,17.45 		"/>
		<polygon class="st1" points="14.54,1.94 13.57,1.94 13.57,2.91 14.54,2.91 15.51,2.91 15.51,1.94 		"/>
		<polygon class="st1" points="13.57,18.42 13.57,19.39 14.54,19.39 15.51,19.39 15.51,18.42 14.54,18.42 		"/>
		<polygon class="st1" points="12.6,0.97 11.63,0.97 10.67,0.97 9.7,0.97 8.73,0.97 8.73,1.94 9.7,1.94 10.67,1.94 11.63,1.94 
			12.6,1.94 13.57,1.94 13.57,0.97 		"/>
		<polygon class="st1" points="11.63,19.39 10.67,19.39 9.7,19.39 8.73,19.39 8.73,20.36 9.7,20.36 10.67,20.36 11.63,20.36 
			12.6,20.36 13.57,20.36 13.57,19.39 12.6,19.39 		"/>
		<polygon class="st1" points="7.76,18.42 6.79,18.42 6.79,19.39 7.76,19.39 8.73,19.39 8.73,18.42 		"/>
		<polygon class="st1" points="6.79,1.94 6.79,2.91 7.76,2.91 8.73,2.91 8.73,1.94 7.76,1.94 		"/>
		<polygon class="st1" points="5.82,17.45 4.85,17.45 4.85,18.42 5.82,18.42 6.79,18.42 6.79,17.45 		"/>
		<polygon class="st1" points="4.85,2.91 4.85,3.88 3.88,3.88 3.88,4.85 2.91,4.85 2.91,5.82 2.91,6.79 3.88,6.79 3.88,5.82 
			4.85,5.82 4.85,4.85 5.82,4.85 5.82,3.88 6.79,3.88 6.79,2.91 5.82,2.91 		"/>
		<rect x="3.88" y="16.48" class="st1" width="0.97" height="0.97"/>
		<rect x="2.91" y="15.51" class="st1" width="0.97" height="0.97"/>
		<rect x="1.94" y="14.54" class="st1" width="0.97" height="0.97"/>
		<polygon class="st1" points="1.94,7.76 1.94,8.73 2.91,8.73 2.91,7.76 2.91,6.79 1.94,6.79 		"/>
		<polygon class="st1" points="0.97,9.7 0.97,10.67 0.97,11.64 0.97,12.6 0.97,13.57 1.94,13.57 1.94,12.6 1.94,11.64 1.94,10.67 
			1.94,9.7 1.94,8.73 0.97,8.73 		"/>
	</g>
	<g>
		<polygon class="st6" points="21.33,8.73 21.33,9.7 21.33,10.67 21.33,11.64 21.33,12.6 21.33,13.57 21.33,14.54 21.33,15.51 
			21.33,16.48 21.33,17.45 22.3,17.45 22.3,16.48 22.3,15.51 22.3,14.54 22.3,13.57 22.3,12.6 22.3,11.64 22.3,10.67 22.3,9.7 
			22.3,8.73 		"/>
		<polygon class="st6" points="20.36,18.42 20.36,19.39 21.33,19.39 21.33,18.42 21.33,17.45 20.36,17.45 		"/>
		<polygon class="st6" points="20.36,8.73 21.33,8.73 21.33,7.76 21.33,6.79 20.36,6.79 20.36,7.76 		"/>
		<rect x="19.39" y="19.39" class="st6" width="0.97" height="0.97"/>
		<polygon class="st6" points="19.39,6.79 20.36,6.79 20.36,5.82 20.36,4.85 19.39,4.85 19.39,5.82 		"/>
		<rect x="18.42" y="20.36" class="st6" width="0.97" height="0.97"/>
		<rect x="18.42" y="3.88" class="st6" width="0.97" height="0.97"/>
		<rect x="17.45" y="2.91" class="st6" width="0.97" height="0.97"/>
		<polygon class="st6" points="16.48,21.33 16.48,22.3 17.45,22.3 18.42,22.3 18.42,21.33 17.45,21.33 		"/>
		<polygon class="st6" points="16.48,2.91 17.45,2.91 17.45,1.94 16.48,1.94 15.51,1.94 15.51,2.91 		"/>
		<polygon class="st6" points="14.54,22.3 14.54,23.27 15.51,23.27 16.48,23.27 16.48,22.3 15.51,22.3 		"/>
		<polygon class="st6" points="14.54,1.94 15.51,1.94 15.51,0.97 14.54,0.97 13.57,0.97 13.57,1.94 		"/>
		<polygon class="st6" points="12.6,23.27 11.63,23.27 10.67,23.27 9.7,23.27 8.73,23.27 7.76,23.27 7.76,24.24 8.73,24.24 
			9.7,24.24 10.67,24.24 11.63,24.24 12.6,24.24 13.57,24.24 14.54,24.24 14.54,23.27 13.57,23.27 		"/>
		<polygon class="st6" points="10.67,0.97 11.63,0.97 12.6,0.97 13.57,0.97 13.57,0 12.6,0 11.63,0 10.67,0 9.7,0 8.73,0 8.73,0.97 
			9.7,0.97 		"/>
		<polygon class="st6" points="8.73,1.94 8.73,0.97 7.76,0.97 6.79,0.97 6.79,1.94 7.76,1.94 		"/>
		<polygon class="st6" points="6.79,22.3 5.82,22.3 5.82,23.27 6.79,23.27 7.76,23.27 7.76,22.3 		"/>
		<polygon class="st6" points="6.79,2.91 6.79,1.94 5.82,1.94 4.85,1.94 4.85,2.91 5.82,2.91 		"/>
		<polygon class="st6" points="4.85,21.33 3.88,21.33 3.88,22.3 4.85,22.3 5.82,22.3 5.82,21.33 		"/>
		<rect x="3.88" y="2.91" class="st6" width="0.97" height="0.97"/>
		<rect x="2.91" y="20.36" class="st6" width="0.97" height="0.97"/>
		<rect x="2.91" y="3.88" class="st6" width="0.97" height="0.97"/>
		<rect x="1.94" y="19.39" class="st6" width="0.97" height="0.97"/>
		<polygon class="st6" points="2.91,5.82 2.91,4.85 1.94,4.85 1.94,5.82 1.94,6.79 2.91,6.79 		"/>
		<polygon class="st6" points="1.94,17.45 0.97,17.45 0.97,18.42 0.97,19.39 1.94,19.39 1.94,18.42 		"/>
		<polygon class="st6" points="1.94,7.76 1.94,6.79 0.97,6.79 0.97,7.76 0.97,8.73 1.94,8.73 		"/>
		<polygon class="st6" points="0.97,15.51 0.97,14.54 0.97,13.57 0.97,12.6 0.97,11.64 0.97,10.67 0.97,9.7 0.97,8.73 0,8.73 0,9.7 
			0,10.67 0,11.64 0,12.6 0,13.57 0,14.54 0,15.51 0,16.48 0,17.45 0.97,17.45 0.97,16.48 		"/>
	</g>
</g>
</svg>
