<svg xmlns="http://www.w3.org/2000/svg" width="98.026" height="42.026" viewBox="0 0 98.026 42.026">
  <g id="BethanyBoard" transform="translate(-203.078 -92)">
    <g id="PixelWoodBoard" transform="translate(-1033 -517)">
      <path id="Path_130" data-name="Path 130" d="M89.682,7.906V3.88H7.76V7.906H89.682Z" transform="translate(1236.37 605.12)" fill="#8d5a0e"/>
      <path id="Path_138" data-name="Path 138" d="M97.734,37.854V3.88H7.76V37.854H97.734Z" transform="translate(1232.344 609.146)" fill="#c6813b"/>
      <path id="Path_135" data-name="Path 135" d="M89.682,7.906V3.88H7.76V7.906H89.682Z" transform="translate(1236.37 643.12)" fill="#8d5a0e"/>
      <path id="Path_131" data-name="Path 131" d="M10.816,17.811V4.85H6.79V30.772h4.026Z" transform="translate(1229.288 612.202)" fill="#8d5a0e"/>
      <path id="Path_133" data-name="Path 133" d="M10.816,17.811V4.85H6.79V30.772h4.026Z" transform="translate(1323.288 612.202)" fill="#8d5a0e"/>
      <path id="Path_132" data-name="Path 132" d="M10.816,6.863V4.85H6.79V8.876h4.026Z" transform="translate(1233.314 608.176)" fill="#8d5a0e"/>
      <path id="Path_136" data-name="Path 136" d="M10.816,6.863V4.85H6.79V8.876h4.026Z" transform="translate(1233.314 638.124)" fill="#8d5a0e"/>
      <path id="Path_134" data-name="Path 134" d="M10.816,6.863V4.85H6.79V8.876h4.026Z" transform="translate(1319.262 608.176)" fill="#8d5a0e"/>
      <path id="Path_137" data-name="Path 137" d="M10.816,6.863V4.85H6.79V8.876h4.026Z" transform="translate(1319.262 638.124)" fill="#8d5a0e"/>
    </g>
    <text id="Bethany" transform="translate(221 104)" fill="#fdeef5" font-size="16" font-family="BitbybitRegular, Bitbybit"><tspan x="0" y="14">Bethany</tspan></text>
  </g>
</svg>
