<?xml version="1.0" encoding="utf-8"?>
<!-- Generator: Adobe Illustrator 26.5.0, SVG Export Plug-In . SVG Version: 6.00 Build 0)  -->
<svg version="1.1" id="Layer_1" xmlns="http://www.w3.org/2000/svg" xmlns:xlink="http://www.w3.org/1999/xlink" x="0px" y="0px"
	 viewBox="0 0 37.41 11.82" style="enable-background:new 0 0 37.41 11.82;" xml:space="preserve">
<style type="text/css">
	.st0{fill:#A3D39A;}
	.st1{fill:#4CA06B;}
	.st2{fill:#D9EABE;}
	.st3{fill:#328250;}
	.st4{fill:#5DBE83;}
</style>
<g>
	<g>
		<polygon class="st0" points="26.58,6.9 26.58,7.88 26.58,8.86 27.57,8.86 27.57,7.88 27.57,6.9 		"/>
		<rect x="25.6" y="8.86" class="st0" width="0.98" height="0.99"/>
		<rect x="24.61" y="9.85" class="st0" width="0.99" height="0.98"/>
		<polygon class="st0" points="13.78,8.86 13.78,9.85 14.77,9.85 14.77,8.86 14.77,7.88 13.78,7.88 		"/>
		<rect x="9.84" y="3.94" class="st0" width="0.99" height="0.99"/>
		<polygon class="st0" points="8.86,5.91 8.86,6.9 8.86,7.88 9.84,7.88 9.84,6.9 9.84,5.91 9.84,4.93 8.86,4.93 		"/>
		<rect x="5.9" y="8.86" class="st0" width="0.99" height="0.99"/>
	</g>
	<g>
		<polygon class="st1" points="33.47,10.83 32.49,10.83 32.49,9.85 31.5,9.85 31.5,8.86 31.5,7.88 30.52,7.88 30.52,8.86 
			30.52,9.85 30.52,10.83 31.5,10.83 31.5,11.82 32.49,11.82 33.47,11.82 34.46,11.82 34.46,10.83 		"/>
		<polygon class="st1" points="27.57,8.86 26.58,8.86 26.58,9.85 26.58,10.83 27.57,10.83 28.55,10.83 28.55,9.85 27.57,9.85 		"/>
		<polygon class="st1" points="18.7,10.83 17.72,10.83 16.74,10.83 16.74,9.85 15.75,9.85 15.75,8.86 15.75,7.88 15.75,6.9 
			15.75,5.91 14.77,5.91 14.77,6.9 14.77,7.88 14.77,8.86 14.77,9.85 14.77,10.83 15.75,10.83 15.75,11.82 16.74,11.82 17.72,11.82 
			18.7,11.82 19.69,11.82 20.67,11.82 20.67,10.83 19.69,10.83 		"/>
		<polygon class="st1" points="11.81,8.86 11.81,9.85 12.8,9.85 12.8,10.83 13.78,10.83 13.78,9.85 13.78,8.86 12.8,8.86 		"/>
		<polygon class="st1" points="11.81,6.9 10.83,6.9 10.83,5.91 10.83,4.93 9.84,4.93 9.84,5.91 9.84,6.9 9.84,7.88 10.83,7.88 
			10.83,8.86 11.81,8.86 11.81,7.88 		"/>
		<polygon class="st1" points="6.89,7.88 6.89,8.86 7.87,8.86 7.87,9.85 8.86,9.85 8.86,8.86 8.86,7.88 7.87,7.88 		"/>
		<rect x="5.9" y="6.9" class="st1" width="0.99" height="0.98"/>
		<rect x="4.92" y="5.91" class="st1" width="0.98" height="0.99"/>
	</g>
	<g>
		<rect x="25.6" y="5.91" class="st2" width="0.98" height="0.99"/>
		<rect x="10.83" y="0.99" class="st2" width="0.98" height="0.98"/>
		<polygon class="st2" points="9.84,2.96 9.84,3.94 10.83,3.94 10.83,2.96 10.83,1.97 9.84,1.97 		"/>
		<polygon class="st2" points="4.92,7.88 4.92,8.86 5.9,8.86 5.9,7.88 5.9,6.9 4.92,6.9 		"/>
		<rect x="3.94" y="5.91" class="st2" width="0.98" height="0.99"/>
	</g>
	<g>
		<polygon class="st3" points="33.47,9.85 32.49,9.85 32.49,10.83 33.47,10.83 34.46,10.83 34.46,9.85 		"/>
		<polygon class="st3" points="32.49,7.88 32.49,6.9 31.5,6.9 30.52,6.9 30.52,7.88 31.5,7.88 31.5,8.86 31.5,9.85 32.49,9.85 
			32.49,8.86 		"/>
		<polygon class="st3" points="29.54,8.86 29.54,9.85 30.52,9.85 30.52,8.86 30.52,7.88 29.54,7.88 		"/>
		<rect x="28.55" y="9.85" class="st3" width="0.99" height="0.98"/>
		<polygon class="st3" points="28.55,7.88 28.55,6.9 27.57,6.9 27.57,7.88 27.57,8.86 27.57,9.85 28.55,9.85 28.55,8.86 		"/>
		<rect x="26.58" y="5.91" class="st3" width="0.99" height="0.99"/>
		<polygon class="st3" points="25.6,7.88 25.6,8.86 26.58,8.86 26.58,7.88 26.58,6.9 25.6,6.9 		"/>
		<polygon class="st3" points="26.58,5.91 26.58,4.93 25.6,4.93 24.61,4.93 24.61,5.91 24.61,6.9 25.6,6.9 25.6,5.91 		"/>
		<rect x="24.61" y="8.86" class="st3" width="0.99" height="0.99"/>
		<polygon class="st3" points="22.64,9.85 21.66,9.85 20.67,9.85 19.69,9.85 18.7,9.85 17.72,9.85 16.74,9.85 16.74,10.83 
			17.72,10.83 18.7,10.83 19.69,10.83 20.67,10.83 21.66,10.83 22.64,10.83 23.63,10.83 24.61,10.83 24.61,9.85 23.63,9.85 		"/>
		<polygon class="st3" points="16.74,7.88 16.74,6.9 16.74,5.91 16.74,4.93 15.75,4.93 14.77,4.93 14.77,5.91 15.75,5.91 15.75,6.9 
			15.75,7.88 15.75,8.86 15.75,9.85 16.74,9.85 16.74,8.86 		"/>
		<polygon class="st3" points="13.78,6.9 13.78,7.88 14.77,7.88 14.77,6.9 14.77,5.91 13.78,5.91 		"/>
		<polygon class="st3" points="12.8,6.9 11.81,6.9 11.81,7.88 11.81,8.86 12.8,8.86 13.78,8.86 13.78,7.88 12.8,7.88 		"/>
		<polygon class="st3" points="11.81,1.97 12.8,1.97 12.8,0.99 12.8,0 11.81,0 10.83,0 10.83,0.99 11.81,0.99 		"/>
		<polygon class="st3" points="11.81,4.93 11.81,3.94 11.81,2.96 11.81,1.97 10.83,1.97 10.83,2.96 10.83,3.94 10.83,4.93 
			10.83,5.91 10.83,6.9 11.81,6.9 11.81,5.91 		"/>
		<rect x="9.84" y="0.99" class="st3" width="0.99" height="0.98"/>
		<polygon class="st3" points="8.86,2.96 8.86,3.94 8.86,4.93 9.84,4.93 9.84,3.94 9.84,2.96 9.84,1.97 8.86,1.97 		"/>
		<polygon class="st3" points="7.87,5.91 7.87,6.9 6.89,6.9 6.89,7.88 7.87,7.88 8.86,7.88 8.86,6.9 8.86,5.91 8.86,4.93 7.87,4.93 
					"/>
		<rect x="5.9" y="5.91" class="st3" width="0.99" height="0.99"/>
		<polygon class="st3" points="4.92,4.93 3.94,4.93 2.95,4.93 2.95,5.91 2.95,6.9 3.94,6.9 3.94,5.91 4.92,5.91 5.9,5.91 5.9,4.93 
					"/>
		<polygon class="st3" points="3.94,9.85 2.95,9.85 2.95,10.83 3.94,10.83 4.92,10.83 5.9,10.83 5.9,9.85 5.9,8.86 4.92,8.86 
			4.92,9.85 		"/>
		<polygon class="st3" points="3.94,8.86 4.92,8.86 4.92,7.88 4.92,6.9 3.94,6.9 3.94,7.88 		"/>
	</g>
	<g>
		<polygon class="st4" points="36.43,10.83 35.44,10.83 34.46,10.83 34.46,11.82 35.44,11.82 36.43,11.82 37.41,11.82 37.41,10.83 
					"/>
		<polygon class="st4" points="30.52,9.85 29.54,9.85 29.54,10.83 28.55,10.83 27.57,10.83 26.58,10.83 26.58,9.85 25.6,9.85 
			25.6,10.83 24.61,10.83 23.63,10.83 22.64,10.83 21.66,10.83 20.67,10.83 20.67,11.82 21.66,11.82 22.64,11.82 23.63,11.82 
			24.61,11.82 25.6,11.82 26.58,11.82 27.57,11.82 28.55,11.82 29.54,11.82 30.52,11.82 31.5,11.82 31.5,10.83 30.52,10.83 		"/>
		<polygon class="st4" points="14.77,9.85 13.78,9.85 13.78,10.83 12.8,10.83 12.8,9.85 11.81,9.85 11.81,8.86 10.83,8.86 
			10.83,7.88 9.84,7.88 8.86,7.88 8.86,8.86 8.86,9.85 7.87,9.85 7.87,8.86 6.89,8.86 6.89,9.85 5.9,9.85 5.9,10.83 4.92,10.83 
			3.94,10.83 2.95,10.83 1.97,10.83 0.98,10.83 0,10.83 0,11.82 0.98,11.82 1.97,11.82 2.95,11.82 3.94,11.82 4.92,11.82 5.9,11.82 
			6.89,11.82 7.87,11.82 8.86,11.82 9.84,11.82 10.83,11.82 11.81,11.82 12.8,11.82 13.78,11.82 14.77,11.82 15.75,11.82 
			15.75,10.83 14.77,10.83 		"/>
		<rect x="5.9" y="7.88" class="st4" width="0.99" height="0.98"/>
	</g>
</g>
</svg>
