<?xml version="1.0" encoding="utf-8"?>
<!-- Generator: Adobe Illustrator 26.5.0, SVG Export Plug-In . SVG Version: 6.00 Build 0)  -->
<svg version="1.1" id="Layer_1" xmlns="http://www.w3.org/2000/svg" xmlns:xlink="http://www.w3.org/1999/xlink" x="0px" y="0px"
	 viewBox="0 0 21.33 45.3" style="enable-background:new 0 0 21.33 45.3;" xml:space="preserve">
<style type="text/css">
	.st0{fill:#F8B7AD;}
	.st1{fill:#ADADAD;}
	.st2{fill:#FF967F;}
</style>
<g>
	<rect x="18.42" y="39.39" class="st0" width="0.97" height="0.98"/>
	<rect x="18.42" y="38.4" class="st0" width="0.97" height="0.99"/>
	<rect x="18.42" y="37.42" class="st0" width="0.97" height="0.98"/>
	<rect x="17.45" y="41.36" class="st0" width="0.97" height="0.98"/>
	<rect x="17.45" y="40.37" class="st0" width="0.97" height="0.99"/>
	<rect x="17.45" y="39.39" class="st0" width="0.97" height="0.98"/>
	<rect x="17.45" y="38.4" class="st0" width="0.97" height="0.99"/>
	<rect x="17.45" y="37.42" class="st0" width="0.97" height="0.98"/>
	<rect x="17.45" y="36.43" class="st0" width="0.97" height="0.99"/>
	<rect x="17.45" y="35.45" class="st0" width="0.97" height="0.98"/>
	<rect x="16.48" y="42.34" class="st0" width="0.97" height="0.99"/>
	<rect x="16.48" y="41.36" class="st0" width="0.97" height="0.98"/>
	<rect x="16.48" y="40.37" class="st0" width="0.97" height="0.99"/>
	<rect x="16.48" y="39.39" class="st0" width="0.97" height="0.98"/>
	<rect x="16.48" y="38.4" class="st0" width="0.97" height="0.99"/>
	<rect x="16.48" y="37.42" class="st0" width="0.97" height="0.98"/>
	<rect x="16.48" y="36.43" class="st0" width="0.97" height="0.99"/>
	<rect x="16.48" y="35.45" class="st0" width="0.97" height="0.98"/>
	<rect x="16.48" y="34.47" class="st0" width="0.97" height="0.98"/>
	<rect x="16.48" y="29.54" class="st0" width="0.97" height="0.99"/>
	<rect x="16.48" y="28.56" class="st0" width="0.97" height="0.98"/>
	<rect x="16.48" y="27.57" class="st0" width="0.97" height="0.99"/>
	<rect x="16.48" y="0.99" class="st0" width="0.97" height="0.98"/>
	<rect x="15.51" y="43.33" class="st0" width="0.97" height="0.98"/>
	<rect x="15.51" y="42.34" class="st0" width="0.97" height="0.99"/>
	<rect x="15.51" y="41.36" class="st0" width="0.97" height="0.98"/>
	<rect x="15.51" y="40.37" class="st0" width="0.97" height="0.99"/>
	<rect x="15.51" y="39.39" class="st0" width="0.97" height="0.98"/>
	<rect x="15.51" y="38.4" class="st0" width="0.97" height="0.99"/>
	<rect x="15.51" y="37.42" class="st0" width="0.97" height="0.98"/>
	<rect x="15.51" y="36.43" class="st0" width="0.97" height="0.99"/>
	<rect x="15.51" y="35.45" class="st0" width="0.97" height="0.98"/>
	<rect x="15.51" y="34.47" class="st0" width="0.97" height="0.98"/>
	<rect x="15.51" y="33.48" class="st0" width="0.97" height="0.99"/>
	<rect x="15.51" y="32.5" class="st0" width="0.97" height="0.98"/>
	<rect x="15.51" y="30.53" class="st0" width="0.97" height="0.98"/>
	<rect x="15.51" y="29.54" class="st0" width="0.97" height="0.99"/>
	<rect x="15.51" y="28.56" class="st0" width="0.97" height="0.98"/>
	<rect x="15.51" y="27.57" class="st0" width="0.97" height="0.99"/>
	<rect x="15.51" y="26.59" class="st0" width="0.97" height="0.98"/>
	<rect x="15.51" y="2.96" class="st0" width="0.97" height="0.98"/>
	<rect x="15.51" y="0.99" class="st0" width="0.97" height="0.98"/>
	<rect x="14.54" y="43.33" class="st0" width="0.97" height="0.98"/>
	<rect x="14.54" y="42.34" class="st0" width="0.97" height="0.99"/>
	<rect x="14.54" y="41.36" class="st0" width="0.97" height="0.98"/>
	<rect x="14.54" y="40.37" class="st0" width="0.97" height="0.99"/>
	<rect x="14.54" y="39.39" class="st0" width="0.97" height="0.98"/>
	<rect x="14.54" y="38.4" class="st0" width="0.97" height="0.99"/>
	<rect x="14.54" y="37.42" class="st0" width="0.97" height="0.98"/>
	<rect x="14.54" y="36.43" class="st0" width="0.97" height="0.99"/>
	<rect x="14.54" y="35.45" class="st0" width="0.97" height="0.98"/>
	<rect x="14.54" y="34.47" class="st0" width="0.97" height="0.98"/>
	<rect x="14.54" y="33.48" class="st0" width="0.97" height="0.99"/>
	<rect x="14.54" y="32.5" class="st0" width="0.97" height="0.98"/>
	<rect x="14.54" y="31.51" class="st0" width="0.97" height="0.99"/>
	<rect x="14.54" y="30.53" class="st0" width="0.97" height="0.98"/>
	<rect x="14.54" y="29.54" class="st0" width="0.97" height="0.99"/>
	<rect x="14.54" y="28.56" class="st0" width="0.97" height="0.98"/>
	<rect x="14.54" y="27.57" class="st0" width="0.97" height="0.99"/>
	<rect x="14.54" y="26.59" class="st0" width="0.97" height="0.98"/>
	<rect x="14.54" y="4.93" class="st0" width="0.97" height="0.98"/>
	<rect x="14.54" y="2.96" class="st0" width="0.97" height="0.98"/>
	<rect x="14.54" y="1.97" class="st0" width="0.97" height="0.99"/>
	<rect x="14.54" y="0.99" class="st0" width="0.97" height="0.98"/>
	<rect x="13.57" y="44.31" class="st0" width="0.97" height="0.99"/>
	<rect x="13.57" y="43.33" class="st0" width="0.97" height="0.98"/>
	<rect x="13.57" y="42.34" class="st0" width="0.97" height="0.99"/>
	<rect x="13.57" y="41.36" class="st0" width="0.97" height="0.98"/>
	<rect x="13.57" y="40.37" class="st0" width="0.97" height="0.99"/>
	<rect x="13.57" y="39.39" class="st0" width="0.97" height="0.98"/>
	<rect x="13.57" y="38.4" class="st0" width="0.97" height="0.99"/>
	<rect x="13.57" y="37.42" class="st0" width="0.97" height="0.98"/>
	<rect x="13.57" y="36.43" class="st0" width="0.97" height="0.99"/>
	<rect x="13.57" y="35.45" class="st0" width="0.97" height="0.98"/>
	<rect x="13.57" y="34.47" class="st0" width="0.97" height="0.98"/>
	<rect x="13.57" y="33.48" class="st0" width="0.97" height="0.99"/>
	<rect x="13.57" y="32.5" class="st0" width="0.97" height="0.98"/>
	<rect x="13.57" y="31.51" class="st0" width="0.97" height="0.99"/>
	<rect x="13.57" y="30.53" class="st0" width="0.97" height="0.98"/>
	<rect x="13.57" y="29.54" class="st0" width="0.97" height="0.99"/>
	<rect x="13.57" y="28.56" class="st0" width="0.97" height="0.98"/>
	<rect x="13.57" y="27.57" class="st0" width="0.97" height="0.99"/>
	<rect x="13.57" y="26.59" class="st0" width="0.97" height="0.98"/>
	<rect x="13.57" y="25.6" class="st0" width="0.97" height="0.99"/>
	<rect x="13.57" y="4.93" class="st0" width="0.97" height="0.98"/>
	<rect x="13.57" y="3.94" class="st0" width="0.97" height="0.99"/>
	<rect x="13.57" y="2.96" class="st0" width="0.97" height="0.98"/>
	<rect x="13.57" class="st0" width="0.97" height="0.99"/>
	<rect x="12.6" y="44.31" class="st0" width="0.97" height="0.99"/>
	<rect x="12.6" y="43.33" class="st0" width="0.97" height="0.98"/>
	<rect x="12.6" y="42.34" class="st0" width="0.97" height="0.99"/>
	<rect x="12.6" y="41.36" class="st0" width="0.97" height="0.98"/>
	<rect x="12.6" y="40.37" class="st0" width="0.97" height="0.99"/>
	<rect x="12.6" y="39.39" class="st0" width="0.97" height="0.98"/>
	<rect x="12.6" y="36.43" class="st0" width="0.97" height="0.99"/>
	<rect x="12.6" y="35.45" class="st0" width="0.97" height="0.98"/>
	<rect x="12.6" y="34.47" class="st0" width="0.97" height="0.98"/>
	<rect x="12.6" y="33.48" class="st0" width="0.97" height="0.99"/>
	<rect x="12.6" y="29.54" class="st0" width="0.97" height="0.99"/>
	<rect x="12.6" y="28.56" class="st0" width="0.97" height="0.98"/>
	<rect x="12.6" y="27.57" class="st0" width="0.97" height="0.99"/>
	<rect x="12.6" y="26.59" class="st0" width="0.97" height="0.98"/>
	<rect x="12.6" y="25.6" class="st0" width="0.97" height="0.99"/>
	<rect x="12.6" y="4.93" class="st0" width="0.97" height="0.98"/>
	<rect x="12.6" class="st0" width="0.97" height="0.99"/>
	<rect x="11.63" y="44.31" class="st0" width="0.97" height="0.99"/>
	<rect x="11.63" y="43.33" class="st0" width="0.97" height="0.98"/>
	<rect x="11.63" y="42.34" class="st0" width="0.97" height="0.99"/>
	<rect x="11.63" y="41.36" class="st0" width="0.97" height="0.98"/>
	<rect x="11.63" y="40.37" class="st0" width="0.97" height="0.99"/>
	<rect x="11.63" y="39.39" class="st0" width="0.97" height="0.98"/>
	<rect x="11.63" y="36.43" class="st0" width="0.97" height="0.99"/>
	<rect x="11.63" y="35.45" class="st0" width="0.97" height="0.98"/>
	<rect x="11.63" y="34.47" class="st0" width="0.97" height="0.98"/>
	<rect x="11.63" y="28.56" class="st0" width="0.97" height="0.98"/>
	<rect x="11.63" y="27.57" class="st0" width="0.97" height="0.99"/>
	<rect x="11.63" y="26.59" class="st0" width="0.97" height="0.98"/>
	<rect x="11.63" y="25.6" class="st0" width="0.97" height="0.99"/>
	<g>
		<polygon class="st1" points="20.36,37.42 20.36,36.43 19.39,36.43 19.39,35.45 19.39,34.47 18.42,34.47 18.42,33.48 17.45,33.48 
			17.45,32.5 17.45,31.51 18.42,31.51 18.42,30.53 19.39,30.53 19.39,29.54 19.39,28.56 18.42,28.56 18.42,27.57 17.45,27.57 
			17.45,28.56 17.45,29.54 17.45,30.53 16.48,30.53 16.48,31.51 15.51,31.51 15.51,32.5 16.48,32.5 16.48,33.48 16.48,34.47 
			17.45,34.47 17.45,35.45 18.42,35.45 18.42,36.43 18.42,37.42 19.39,37.42 19.39,38.4 19.39,39.39 19.39,40.37 18.42,40.37 
			18.42,41.36 18.42,42.34 17.45,42.34 17.45,43.33 16.48,43.33 16.48,44.31 17.45,44.31 18.42,44.31 18.42,43.33 19.39,43.33 
			19.39,42.34 19.39,41.36 20.36,41.36 20.36,40.37 21.33,40.37 21.33,39.39 21.33,38.4 21.33,37.42 		"/>
		<rect x="16.48" y="26.59" class="st1" width="0.97" height="0.98"/>
		<polygon class="st1" points="15.51,25.6 14.54,25.6 14.54,26.59 15.51,26.59 16.48,26.59 16.48,25.6 		"/>
		<rect x="15.51" y="1.97" class="st1" width="0.97" height="0.99"/>
		<polygon class="st1" points="14.54,44.31 14.54,45.3 15.51,45.3 16.48,45.3 16.48,44.31 15.51,44.31 		"/>
		<rect x="14.54" y="3.94" class="st1" width="0.97" height="0.99"/>
		<rect x="14.54" class="st1" width="0.97" height="0.99"/>
		<rect x="12.6" y="5.91" class="st1" width="0.97" height="0.99"/>
		<polygon class="st1" points="11.63,7.88 11.63,8.87 11.63,9.85 11.63,10.83 11.63,11.82 11.63,12.8 11.63,13.79 11.63,14.77 
			11.63,15.76 11.63,16.74 11.63,17.73 11.63,18.71 11.63,19.7 11.63,20.68 11.63,21.67 11.63,22.65 11.63,23.63 11.63,24.62 
			11.63,25.6 12.6,25.6 12.6,24.62 12.6,23.63 12.6,22.65 12.6,21.67 12.6,20.68 12.6,19.7 12.6,18.71 12.6,17.73 12.6,16.74 
			12.6,15.76 12.6,14.77 12.6,13.79 12.6,12.8 12.6,11.82 12.6,10.83 12.6,9.85 12.6,8.87 12.6,7.88 12.6,6.9 11.63,6.9 		"/>
	</g>
	<rect x="11.63" y="5.91" class="st0" width="0.97" height="0.99"/>
	<rect x="11.63" class="st0" width="0.97" height="0.99"/>
	<rect x="10.66" y="44.31" class="st0" width="0.97" height="0.99"/>
	<rect x="10.66" y="43.33" class="st0" width="0.97" height="0.98"/>
	<rect x="10.66" y="42.34" class="st0" width="0.97" height="0.99"/>
	<rect x="10.66" y="41.36" class="st0" width="0.97" height="0.98"/>
	<rect x="10.66" y="40.37" class="st0" width="0.97" height="0.99"/>
	<rect x="10.66" y="39.39" class="st0" width="0.97" height="0.98"/>
	<rect x="10.66" y="36.43" class="st0" width="0.97" height="0.99"/>
	<rect x="10.66" y="35.45" class="st0" width="0.97" height="0.98"/>
	<rect x="10.66" y="27.57" class="st0" width="0.97" height="0.99"/>
	<rect x="10.66" y="26.59" class="st0" width="0.97" height="0.98"/>
	<rect x="10.66" y="25.6" class="st0" width="0.97" height="0.99"/>
	<rect x="10.66" y="24.62" class="st0" width="0.97" height="0.98"/>
	<rect x="10.66" y="23.63" class="st0" width="0.97" height="0.99"/>
	<rect x="10.66" y="22.65" class="st0" width="0.97" height="0.98"/>
	<rect x="10.66" y="21.67" class="st0" width="0.97" height="0.98"/>
	<rect x="10.66" y="20.68" class="st0" width="0.97" height="0.99"/>
	<rect x="10.66" y="19.7" class="st0" width="0.97" height="0.98"/>
	<rect x="10.66" y="18.71" class="st0" width="0.97" height="0.99"/>
	<rect x="10.66" y="17.73" class="st0" width="0.97" height="0.98"/>
	<rect x="10.66" y="16.74" class="st0" width="0.97" height="0.99"/>
	<rect x="10.66" y="15.76" class="st0" width="0.97" height="0.98"/>
	<rect x="10.66" y="14.77" class="st0" width="0.97" height="0.99"/>
	<rect x="10.66" y="13.79" class="st0" width="0.97" height="0.98"/>
	<rect x="10.66" y="12.8" class="st0" width="0.97" height="0.99"/>
	<rect x="10.66" y="11.82" class="st0" width="0.97" height="0.98"/>
	<rect x="10.66" y="10.83" class="st0" width="0.97" height="0.99"/>
	<rect x="10.66" y="9.85" class="st0" width="0.97" height="0.98"/>
	<rect x="10.66" y="8.87" class="st0" width="0.97" height="0.98"/>
	<rect x="10.66" y="7.88" class="st0" width="0.97" height="0.99"/>
	<rect x="10.66" y="6.9" class="st0" width="0.97" height="0.98"/>
	<rect x="10.66" class="st0" width="0.97" height="0.99"/>
	<rect x="9.69" y="44.31" class="st0" width="0.97" height="0.99"/>
	<rect x="9.69" y="43.33" class="st0" width="0.97" height="0.98"/>
	<rect x="9.69" y="42.34" class="st0" width="0.97" height="0.99"/>
	<rect x="9.69" y="41.36" class="st0" width="0.97" height="0.98"/>
	<rect x="9.69" y="40.37" class="st0" width="0.97" height="0.99"/>
	<rect x="9.69" y="39.39" class="st0" width="0.97" height="0.98"/>
	<rect x="9.69" y="36.43" class="st0" width="0.97" height="0.99"/>
	<rect x="9.69" y="35.45" class="st0" width="0.97" height="0.98"/>
	<rect x="9.69" y="1.97" class="st0" width="0.97" height="0.99"/>
	<rect x="9.69" y="0.99" class="st0" width="0.97" height="0.98"/>
	<rect x="8.72" y="44.31" class="st0" width="0.97" height="0.99"/>
	<rect x="8.72" y="43.33" class="st0" width="0.97" height="0.98"/>
	<rect x="8.72" y="42.34" class="st0" width="0.97" height="0.99"/>
	<rect x="8.72" y="41.36" class="st0" width="0.97" height="0.98"/>
	<rect x="8.72" y="40.37" class="st0" width="0.97" height="0.99"/>
	<rect x="8.72" y="39.39" class="st0" width="0.97" height="0.98"/>
	<rect x="8.72" y="36.43" class="st0" width="0.97" height="0.99"/>
	<rect x="8.72" y="35.45" class="st0" width="0.97" height="0.98"/>
	<rect x="8.72" y="3.94" class="st0" width="0.97" height="0.99"/>
	<rect x="8.72" y="2.96" class="st0" width="0.97" height="0.98"/>
	<rect x="8.72" y="0.99" class="st0" width="0.97" height="0.98"/>
	<rect x="7.75" y="44.31" class="st0" width="0.97" height="0.99"/>
	<rect x="7.75" y="43.33" class="st0" width="0.97" height="0.98"/>
	<rect x="7.75" y="42.34" class="st0" width="0.97" height="0.99"/>
	<rect x="7.75" y="41.36" class="st0" width="0.97" height="0.98"/>
	<rect x="7.75" y="40.37" class="st0" width="0.97" height="0.99"/>
	<rect x="7.75" y="39.39" class="st0" width="0.97" height="0.98"/>
	<rect x="7.75" y="36.43" class="st0" width="0.97" height="0.99"/>
	<rect x="7.75" y="35.45" class="st0" width="0.97" height="0.98"/>
	<rect x="7.75" y="34.47" class="st0" width="0.97" height="0.98"/>
	<rect x="7.75" y="28.56" class="st0" width="0.97" height="0.98"/>
	<rect x="7.75" y="27.57" class="st0" width="0.97" height="0.99"/>
	<rect x="7.75" y="26.59" class="st0" width="0.97" height="0.98"/>
	<rect x="7.75" y="25.6" class="st0" width="0.97" height="0.99"/>
	<rect x="7.75" y="5.91" class="st0" width="0.97" height="0.99"/>
	<rect x="7.75" y="4.93" class="st0" width="0.97" height="0.98"/>
	<rect x="7.75" y="2.96" class="st0" width="0.97" height="0.98"/>
	<rect x="6.79" y="44.31" class="st0" width="0.96" height="0.99"/>
	<rect x="6.79" y="43.33" class="st0" width="0.96" height="0.98"/>
	<rect x="6.79" y="42.34" class="st0" width="0.96" height="0.99"/>
	<rect x="6.79" y="41.36" class="st0" width="0.96" height="0.98"/>
	<rect x="6.79" y="40.37" class="st0" width="0.96" height="0.99"/>
	<rect x="6.79" y="39.39" class="st0" width="0.96" height="0.98"/>
	<rect x="6.79" y="36.43" class="st0" width="0.96" height="0.99"/>
	<rect x="6.79" y="35.45" class="st0" width="0.96" height="0.98"/>
	<rect x="6.79" y="34.47" class="st0" width="0.96" height="0.98"/>
	<rect x="6.79" y="33.48" class="st0" width="0.96" height="0.99"/>
	<g>
		<polygon class="st2" points="13.57,0.99 12.6,0.99 11.63,0.99 10.66,0.99 10.66,1.97 10.66,2.96 9.69,2.96 9.69,3.94 9.69,4.93 
			8.72,4.93 8.72,5.91 8.72,6.9 8.72,7.88 8.72,8.87 8.72,9.85 8.72,10.83 8.72,11.82 8.72,12.8 8.72,13.79 8.72,14.77 8.72,15.76 
			8.72,16.74 8.72,17.73 8.72,18.71 8.72,19.7 8.72,20.68 8.72,21.67 8.72,22.65 8.72,23.63 8.72,24.62 8.72,25.6 8.72,26.59 
			8.72,27.57 8.72,28.56 8.72,29.54 7.75,29.54 7.75,30.53 6.79,30.53 6.79,31.51 6.79,32.5 6.79,33.48 7.75,33.48 7.75,34.47 
			8.72,34.47 8.72,35.45 9.69,35.45 10.66,35.45 11.63,35.45 11.63,34.47 12.6,34.47 12.6,33.48 13.57,33.48 13.57,32.5 
			13.57,31.51 13.57,30.53 12.6,30.53 12.6,29.54 11.63,29.54 11.63,28.56 10.66,28.56 10.66,27.57 10.66,26.59 10.66,25.6 
			10.66,24.62 10.66,23.63 10.66,22.65 10.66,21.67 10.66,20.68 10.66,19.7 10.66,18.71 10.66,17.73 10.66,16.74 10.66,15.76 
			10.66,14.77 10.66,13.79 10.66,12.8 10.66,11.82 10.66,10.83 10.66,9.85 10.66,8.87 10.66,7.88 10.66,6.9 11.63,6.9 11.63,5.91 
			12.6,5.91 12.6,4.93 13.57,4.93 13.57,3.94 13.57,2.96 14.54,2.96 14.54,1.97 14.54,0.99 		"/>
		<polygon class="st2" points="11.63,37.42 10.66,37.42 9.69,37.42 8.72,37.42 7.75,37.42 6.79,37.42 6.79,38.4 6.79,39.39 
			7.75,39.39 8.72,39.39 9.69,39.39 10.66,39.39 11.63,39.39 12.6,39.39 13.57,39.39 13.57,38.4 13.57,37.42 12.6,37.42 		"/>
	</g>
	<rect x="6.79" y="29.54" class="st0" width="0.96" height="0.99"/>
	<rect x="6.79" y="28.56" class="st0" width="0.96" height="0.98"/>
	<rect x="6.79" y="27.57" class="st0" width="0.96" height="0.99"/>
	<rect x="6.79" y="26.59" class="st0" width="0.96" height="0.98"/>
	<rect x="6.79" y="25.6" class="st0" width="0.96" height="0.99"/>
	<rect x="6.79" y="4.93" class="st0" width="0.96" height="0.98"/>
	<rect x="5.82" y="44.31" class="st0" width="0.97" height="0.99"/>
	<rect x="5.82" y="43.33" class="st0" width="0.97" height="0.98"/>
	<rect x="5.82" y="42.34" class="st0" width="0.97" height="0.99"/>
	<rect x="5.82" y="41.36" class="st0" width="0.97" height="0.98"/>
	<rect x="5.82" y="40.37" class="st0" width="0.97" height="0.99"/>
	<rect x="5.82" y="39.39" class="st0" width="0.97" height="0.98"/>
	<rect x="5.82" y="38.4" class="st0" width="0.97" height="0.99"/>
	<rect x="5.82" y="37.42" class="st0" width="0.97" height="0.98"/>
	<rect x="5.82" y="36.43" class="st0" width="0.97" height="0.99"/>
	<rect x="5.82" y="35.45" class="st0" width="0.97" height="0.98"/>
	<rect x="5.82" y="34.47" class="st0" width="0.97" height="0.98"/>
	<rect x="5.82" y="33.48" class="st0" width="0.97" height="0.99"/>
	<rect x="5.82" y="32.5" class="st0" width="0.97" height="0.98"/>
	<rect x="5.82" y="31.51" class="st0" width="0.97" height="0.99"/>
	<rect x="5.82" y="30.53" class="st0" width="0.97" height="0.98"/>
	<rect x="5.82" y="29.54" class="st0" width="0.97" height="0.99"/>
	<rect x="5.82" y="28.56" class="st0" width="0.97" height="0.98"/>
	<rect x="5.82" y="27.57" class="st0" width="0.97" height="0.99"/>
	<rect x="5.82" y="26.59" class="st0" width="0.97" height="0.98"/>
	<rect x="5.82" y="25.6" class="st0" width="0.97" height="0.99"/>
	<rect x="4.85" y="43.33" class="st0" width="0.97" height="0.98"/>
	<rect x="4.85" y="42.34" class="st0" width="0.97" height="0.99"/>
	<rect x="4.85" y="41.36" class="st0" width="0.97" height="0.98"/>
	<rect x="4.85" y="40.37" class="st0" width="0.97" height="0.99"/>
	<rect x="4.85" y="39.39" class="st0" width="0.97" height="0.98"/>
	<rect x="4.85" y="38.4" class="st0" width="0.97" height="0.99"/>
	<rect x="4.85" y="37.42" class="st0" width="0.97" height="0.98"/>
	<rect x="4.85" y="36.43" class="st0" width="0.97" height="0.99"/>
	<rect x="4.85" y="35.45" class="st0" width="0.97" height="0.98"/>
	<rect x="4.85" y="34.47" class="st0" width="0.97" height="0.98"/>
	<rect x="4.85" y="33.48" class="st0" width="0.97" height="0.99"/>
	<rect x="4.85" y="32.5" class="st0" width="0.97" height="0.98"/>
	<rect x="4.85" y="31.51" class="st0" width="0.97" height="0.99"/>
	<rect x="4.85" y="30.53" class="st0" width="0.97" height="0.98"/>
	<rect x="4.85" y="29.54" class="st0" width="0.97" height="0.99"/>
	<rect x="4.85" y="28.56" class="st0" width="0.97" height="0.98"/>
	<rect x="4.85" y="27.57" class="st0" width="0.97" height="0.99"/>
	<rect x="4.85" y="26.59" class="st0" width="0.97" height="0.98"/>
	<rect x="3.88" y="43.33" class="st0" width="0.97" height="0.98"/>
	<rect x="3.88" y="42.34" class="st0" width="0.97" height="0.99"/>
	<rect x="3.88" y="41.36" class="st0" width="0.97" height="0.98"/>
	<rect x="3.88" y="40.37" class="st0" width="0.97" height="0.99"/>
	<rect x="3.88" y="39.39" class="st0" width="0.97" height="0.98"/>
	<rect x="3.88" y="38.4" class="st0" width="0.97" height="0.99"/>
	<rect x="3.88" y="37.42" class="st0" width="0.97" height="0.98"/>
	<rect x="3.88" y="36.43" class="st0" width="0.97" height="0.99"/>
	<rect x="3.88" y="35.45" class="st0" width="0.97" height="0.98"/>
	<rect x="3.88" y="34.47" class="st0" width="0.97" height="0.98"/>
	<rect x="3.88" y="33.48" class="st0" width="0.97" height="0.99"/>
	<rect x="3.88" y="32.5" class="st0" width="0.97" height="0.98"/>
	<rect x="3.88" y="31.51" class="st0" width="0.97" height="0.99"/>
	<rect x="3.88" y="30.53" class="st0" width="0.97" height="0.98"/>
	<rect x="3.88" y="29.54" class="st0" width="0.97" height="0.99"/>
	<rect x="3.88" y="28.56" class="st0" width="0.97" height="0.98"/>
	<rect x="3.88" y="27.57" class="st0" width="0.97" height="0.99"/>
	<rect x="3.88" y="26.59" class="st0" width="0.97" height="0.98"/>
	<rect x="2.91" y="42.34" class="st0" width="0.97" height="0.99"/>
	<rect x="2.91" y="41.36" class="st0" width="0.97" height="0.98"/>
	<rect x="2.91" y="40.37" class="st0" width="0.97" height="0.99"/>
	<rect x="2.91" y="39.39" class="st0" width="0.97" height="0.98"/>
	<rect x="2.91" y="38.4" class="st0" width="0.97" height="0.99"/>
	<rect x="2.91" y="37.42" class="st0" width="0.97" height="0.98"/>
	<rect x="2.91" y="36.43" class="st0" width="0.97" height="0.99"/>
	<rect x="2.91" y="35.45" class="st0" width="0.97" height="0.98"/>
	<rect x="2.91" y="34.47" class="st0" width="0.97" height="0.98"/>
	<rect x="2.91" y="33.48" class="st0" width="0.97" height="0.99"/>
	<rect x="2.91" y="32.5" class="st0" width="0.97" height="0.98"/>
	<rect x="2.91" y="29.54" class="st0" width="0.97" height="0.99"/>
	<rect x="2.91" y="28.56" class="st0" width="0.97" height="0.98"/>
	<rect x="2.91" y="27.57" class="st0" width="0.97" height="0.99"/>
	<rect x="1.94" y="42.34" class="st0" width="0.97" height="0.99"/>
	<rect x="1.94" y="41.36" class="st0" width="0.97" height="0.98"/>
	<rect x="1.94" y="40.37" class="st0" width="0.97" height="0.99"/>
	<rect x="1.94" y="39.39" class="st0" width="0.97" height="0.98"/>
	<rect x="1.94" y="38.4" class="st0" width="0.97" height="0.99"/>
	<rect x="1.94" y="37.42" class="st0" width="0.97" height="0.98"/>
	<rect x="1.94" y="36.43" class="st0" width="0.97" height="0.99"/>
	<rect x="1.94" y="35.45" class="st0" width="0.97" height="0.98"/>
	<rect x="1.94" y="34.47" class="st0" width="0.97" height="0.98"/>
	<rect x="1.94" y="33.48" class="st0" width="0.97" height="0.99"/>
	<rect x="0.97" y="41.36" class="st0" width="0.97" height="0.98"/>
	<rect x="0.97" y="40.37" class="st0" width="0.97" height="0.99"/>
	<rect x="0.97" y="39.39" class="st0" width="0.97" height="0.98"/>
	<rect x="0.97" y="38.4" class="st0" width="0.97" height="0.99"/>
	<rect x="0.97" y="37.42" class="st0" width="0.97" height="0.98"/>
	<rect x="0.97" y="36.43" class="st0" width="0.97" height="0.99"/>
	<rect x="0.97" y="35.45" class="st0" width="0.97" height="0.98"/>
	<rect x="0.97" y="34.47" class="st0" width="0.97" height="0.98"/>
	<rect y="39.39" class="st0" width="0.97" height="0.98"/>
	<rect y="38.4" class="st0" width="0.97" height="0.99"/>
	<rect y="37.42" class="st0" width="0.97" height="0.98"/>
	<rect y="36.43" class="st0" width="0.97" height="0.99"/>
</g>
</svg>
