<?xml version="1.0" encoding="utf-8"?>
<!-- Generator: Adobe Illustrator 26.5.0, SVG Export Plug-In . SVG Version: 6.00 Build 0)  -->
<svg version="1.1" id="Layer_1" xmlns="http://www.w3.org/2000/svg" xmlns:xlink="http://www.w3.org/1999/xlink" x="0px" y="0px"
	 viewBox="0 0 60.06 27.57" style="enable-background:new 0 0 60.06 27.57;" xml:space="preserve">
<style type="text/css">
	.st0{fill:#A07356;}
	.st1{fill:#ECF8FE;}
	.st2{fill:#D8739D;}
	.st3{fill:#B58361;}
	.st4{fill:#A44F6C;}
	.st5{fill:#DF8828;}
	.st6{fill:#EDAF64;}
	.st7{fill:#E8E694;}
	.st8{fill:#AA778C;}
	.st9{fill:#B85E80;}
	.st10{fill:#EAC5A7;}
	.st11{fill:#D69B73;}
	.st12{fill:#B8493B;}
	.st13{fill:#C8907D;}
	.st14{fill:#AF7480;}
	.st15{fill:#D24827;}
	.st16{fill:#E2F4FD;}
	.st17{fill:#E2794B;}
	.st18{fill:#F4CD98;}
	.st19{fill:#B35665;}
	.st20{fill:#4CA06B;}
	.st21{fill:#A3D39A;}
	.st22{fill:#D9EABE;}
	.st23{fill:#328250;}
	.st24{fill:#5DBE83;}
</style>
<g>
	<rect x="39.38" y="23.63" class="st0" width="0.99" height="0.98"/>
	<rect x="38.4" y="22.65" class="st0" width="0.98" height="0.98"/>
	<rect x="38.4" y="21.66" class="st0" width="0.98" height="0.99"/>
	<rect x="38.4" y="20.68" class="st0" width="0.98" height="0.98"/>
	<polygon class="st1" points="39.38,12.8 38.4,12.8 38.4,13.78 39.38,13.78 40.37,13.78 40.37,12.8 	"/>
	<g>
		<rect x="41.35" y="12.8" class="st2" width="0.99" height="0.98"/>
		<polygon class="st2" points="40.37,11.81 39.38,11.81 38.4,11.81 38.4,12.8 39.38,12.8 40.37,12.8 41.35,12.8 41.35,11.81 		"/>
		<rect x="37.41" y="12.8" class="st2" width="0.99" height="0.98"/>
	</g>
	<rect x="36.43" y="23.63" class="st3" width="0.98" height="0.98"/>
	<rect x="36.43" y="22.65" class="st3" width="0.98" height="0.98"/>
	<rect x="36.43" y="21.66" class="st3" width="0.98" height="0.99"/>
	<rect x="36.43" y="20.68" class="st3" width="0.98" height="0.98"/>
	<rect x="36.43" y="19.69" class="st3" width="0.98" height="0.99"/>
	<rect x="36.43" y="18.71" class="st3" width="0.98" height="0.98"/>
	<g>
		<polygon class="st4" points="43.32,15.75 43.32,16.74 43.32,17.72 43.32,18.71 44.31,18.71 44.31,17.72 44.31,16.74 44.31,15.75 
					"/>
		<rect x="42.34" y="18.71" class="st4" width="0.98" height="0.98"/>
		<polygon class="st4" points="38.4,19.69 38.4,20.68 39.38,20.68 40.37,20.68 40.37,19.69 39.38,19.69 		"/>
		<rect x="37.41" y="18.71" class="st4" width="0.99" height="0.98"/>
		<rect x="36.43" y="17.72" class="st4" width="0.98" height="0.99"/>
	</g>
	<g>
		<polygon class="st5" points="42.34,15.75 42.34,16.74 42.34,17.72 42.34,18.71 43.32,18.71 43.32,17.72 43.32,16.74 43.32,15.75 
					"/>
		<polygon class="st5" points="42.34,13.78 41.35,13.78 41.35,14.77 40.37,14.77 40.37,15.75 41.35,15.75 42.34,15.75 42.34,14.77 
					"/>
		<rect x="39.38" y="15.75" class="st5" width="0.99" height="0.99"/>
		<polygon class="st5" points="37.41,17.72 37.41,18.71 38.4,18.71 38.4,19.69 39.38,19.69 39.38,18.71 39.38,17.72 38.4,17.72 		
			"/>
		<polygon class="st5" points="36.43,16.74 35.44,16.74 35.44,17.72 36.43,17.72 37.41,17.72 37.41,16.74 		"/>
	</g>
	<polygon class="st6" points="40.37,13.78 39.38,13.78 38.4,13.78 38.4,14.77 37.41,14.77 36.43,14.77 36.43,15.75 35.44,15.75 
		35.44,16.74 36.43,16.74 37.41,16.74 37.41,17.72 38.4,17.72 39.38,17.72 39.38,16.74 39.38,15.75 40.37,15.75 40.37,14.77 
		41.35,14.77 41.35,13.78 	"/>
	<g>
		<rect x="40.37" y="12.8" class="st7" width="0.98" height="0.98"/>
		<polygon class="st7" points="36.43,13.78 36.43,14.77 37.41,14.77 38.4,14.77 38.4,13.78 37.41,13.78 		"/>
		<rect x="35.44" y="14.77" class="st7" width="0.99" height="0.98"/>
		<rect x="34.46" y="15.75" class="st7" width="0.98" height="0.99"/>
	</g>
	<g>
		<rect x="34.46" y="18.71" class="st8" width="0.98" height="0.98"/>
		<rect x="33.48" y="17.72" class="st8" width="0.98" height="0.99"/>
	</g>
	<g>
		<polygon class="st9" points="42.34,13.78 42.34,14.77 42.34,15.75 43.32,15.75 43.32,14.77 43.32,13.78 		"/>
		<rect x="36.43" y="12.8" class="st9" width="0.98" height="0.98"/>
		<rect x="35.44" y="17.72" class="st9" width="0.99" height="0.99"/>
		<rect x="35.44" y="13.78" class="st9" width="0.99" height="0.99"/>
		<rect x="34.46" y="14.77" class="st9" width="0.98" height="0.98"/>
		<polygon class="st9" points="33.48,16.74 33.48,17.72 34.46,17.72 35.44,17.72 35.44,16.74 34.46,16.74 34.46,15.75 33.48,15.75 
					"/>
	</g>
	<g>
		<polygon class="st10" points="37.41,21.66 37.41,22.65 37.41,23.63 37.41,24.61 37.41,25.6 38.4,25.6 38.4,24.61 38.4,23.63 
			38.4,22.65 38.4,21.66 		"/>
		<polygon class="st10" points="27.57,17.72 27.57,18.71 27.57,19.69 27.57,20.68 27.57,21.66 27.57,22.65 26.58,22.65 26.58,23.63 
			26.58,24.61 26.58,25.6 27.57,25.6 27.57,24.61 28.55,24.61 28.55,23.63 28.55,22.65 28.55,21.66 28.55,20.68 28.55,19.69 
			28.55,18.71 28.55,17.72 28.55,16.74 27.57,16.74 		"/>
	</g>
	<g>
		<polygon class="st11" points="38.4,23.63 38.4,24.61 38.4,25.6 39.38,25.6 39.38,24.61 39.38,23.63 		"/>
		<polygon class="st11" points="38.4,20.68 38.4,19.69 37.41,19.69 37.41,20.68 37.41,21.66 38.4,21.66 		"/>
		<polygon class="st11" points="29.54,21.66 29.54,20.68 29.54,19.69 29.54,18.71 28.55,18.71 28.55,19.69 28.55,20.68 28.55,21.66 
			28.55,22.65 28.55,23.63 28.55,24.61 27.57,24.61 27.57,25.6 28.55,25.6 29.54,25.6 30.52,25.6 30.52,24.61 30.52,23.63 
			30.52,22.65 29.54,22.65 		"/>
		<polygon class="st11" points="27.57,16.74 28.55,16.74 28.55,15.75 28.55,14.77 27.57,14.77 27.57,15.75 		"/>
		<polygon class="st11" points="27.57,13.78 27.57,12.8 26.58,12.8 26.58,13.78 26.58,14.77 27.57,14.77 		"/>
	</g>
	<g>
		<polygon class="st12" points="30.52,22.65 30.52,23.63 30.52,24.61 30.52,25.6 31.51,25.6 31.51,24.61 31.51,23.63 31.51,22.65 		
			"/>
		<polygon class="st12" points="30.52,20.68 30.52,19.69 30.52,18.71 29.54,18.71 29.54,19.69 29.54,20.68 29.54,21.66 29.54,22.65 
			30.52,22.65 30.52,21.66 		"/>
		<polygon class="st12" points="29.54,16.74 29.54,15.75 29.54,14.77 28.55,14.77 28.55,15.75 28.55,16.74 28.55,17.72 28.55,18.71 
			29.54,18.71 29.54,17.72 		"/>
		<polygon class="st12" points="28.55,12.8 27.57,12.8 27.57,13.78 27.57,14.77 28.55,14.77 28.55,13.78 		"/>
		<polygon class="st12" points="26.58,15.75 26.58,16.74 26.58,17.72 26.58,18.71 26.58,19.69 26.58,20.68 26.58,21.66 26.58,22.65 
			27.57,22.65 27.57,21.66 27.57,20.68 27.57,19.69 27.57,18.71 27.57,17.72 27.57,16.74 27.57,15.75 27.57,14.77 26.58,14.77 		"/>
		<rect x="25.6" y="22.65" class="st12" width="0.98" height="0.98"/>
		<polygon class="st12" points="26.58,12.8 25.6,12.8 25.6,13.78 25.6,14.77 26.58,14.77 26.58,13.78 		"/>
	</g>
	<g>
		<rect x="35.44" y="18.71" class="st13" width="0.99" height="0.98"/>
		<rect x="34.46" y="17.72" class="st13" width="0.98" height="0.99"/>
		<polygon class="st13" points="30.52,11.81 30.52,10.83 29.54,10.83 28.55,10.83 28.55,11.81 27.57,11.81 26.58,11.81 25.6,11.81 
			25.6,12.8 26.58,12.8 27.57,12.8 28.55,12.8 28.55,13.78 29.54,13.78 29.54,12.8 30.52,12.8 31.51,12.8 32.49,12.8 32.49,11.81 
			31.51,11.81 		"/>
		<polygon class="st13" points="23.63,12.8 23.63,13.78 24.61,13.78 25.6,13.78 25.6,12.8 24.61,12.8 		"/>
	</g>
	<g>
		<polygon class="st14" points="31.51,12.8 30.52,12.8 29.54,12.8 29.54,13.78 30.52,13.78 31.51,13.78 32.49,13.78 32.49,12.8 		
			"/>
		<rect x="28.55" y="13.78" class="st14" width="0.99" height="0.99"/>
		<polygon class="st14" points="23.63,13.78 22.64,13.78 22.64,14.77 23.63,14.77 24.61,14.77 25.6,14.77 25.6,13.78 24.61,13.78 		
			"/>
	</g>
	<g>
		<polygon class="st15" points="34.46,7.88 34.46,6.89 34.46,5.91 33.48,5.91 33.48,4.92 32.49,4.92 32.49,3.94 31.51,3.94 
			31.51,2.95 30.52,2.95 30.52,1.97 29.54,1.97 28.55,1.97 28.55,0.98 27.57,0.98 26.58,0.98 25.6,0.98 25.6,1.97 26.58,1.97 
			26.58,2.95 27.57,2.95 27.57,3.94 27.57,4.92 28.55,4.92 28.55,3.94 29.54,3.94 29.54,4.92 30.52,4.92 30.52,5.91 29.54,5.91 
			29.54,4.92 28.55,4.92 28.55,5.91 28.55,6.89 28.55,7.88 29.54,7.88 29.54,6.89 30.52,6.89 30.52,7.88 31.51,7.88 31.51,6.89 
			32.49,6.89 32.49,7.88 31.51,7.88 31.51,8.86 30.52,8.86 30.52,7.88 29.54,7.88 29.54,8.86 28.55,8.86 28.55,7.88 27.57,7.88 
			27.57,8.86 26.58,8.86 26.58,9.85 25.6,9.85 24.61,9.85 24.61,10.83 23.63,10.83 23.63,11.81 24.61,11.81 25.6,11.81 25.6,10.83 
			26.58,10.83 27.57,10.83 28.55,10.83 28.55,9.85 29.54,9.85 30.52,9.85 30.52,10.83 31.51,10.83 32.49,10.83 32.49,11.81 
			33.48,11.81 34.46,11.81 34.46,10.83 35.44,10.83 35.44,9.85 35.44,8.86 35.44,7.88 		"/>
		<rect x="22.64" y="11.81" class="st15" width="0.99" height="0.99"/>
	</g>
	<g>
		<polygon class="st16" points="24.61,1.97 23.63,1.97 23.63,2.95 24.61,2.95 25.6,2.95 25.6,1.97 		"/>
		<rect x="22.64" y="2.95" class="st16" width="0.99" height="0.99"/>
		<rect x="21.66" y="4.92" class="st16" width="0.98" height="0.99"/>
	</g>
	<g>
		<rect x="31.51" y="6.89" class="st17" width="0.98" height="0.99"/>
		<rect x="30.52" y="7.88" class="st17" width="0.99" height="0.98"/>
		<rect x="29.54" y="6.89" class="st17" width="0.98" height="0.99"/>
		<rect x="29.54" y="4.92" class="st17" width="0.98" height="0.99"/>
		<rect x="28.55" y="7.88" class="st17" width="0.99" height="0.98"/>
		<rect x="28.55" y="3.94" class="st17" width="0.99" height="0.98"/>
		<polygon class="st17" points="28.55,5.91 28.55,4.92 27.57,4.92 27.57,3.94 27.57,2.95 26.58,2.95 26.58,1.97 25.6,1.97 
			25.6,2.95 24.61,2.95 23.63,2.95 23.63,3.94 22.64,3.94 22.64,4.92 22.64,5.91 21.66,5.91 21.66,6.89 20.68,6.89 20.68,7.88 
			20.68,8.86 20.68,9.85 19.69,9.85 19.69,10.83 19.69,11.81 20.68,11.81 20.68,12.8 21.66,12.8 22.64,12.8 22.64,11.81 
			23.63,11.81 23.63,10.83 24.61,10.83 24.61,9.85 25.6,9.85 26.58,9.85 26.58,8.86 27.57,8.86 27.57,7.88 28.55,7.88 28.55,6.89 		
			"/>
	</g>
	<g>
		<polygon class="st18" points="24.61,0.98 23.63,0.98 23.63,1.97 24.61,1.97 25.6,1.97 25.6,0.98 		"/>
		<rect x="22.64" y="1.97" class="st18" width="0.99" height="0.98"/>
		<rect x="21.66" y="3.94" class="st18" width="0.98" height="0.98"/>
		<polygon class="st18" points="21.66,13.78 22.64,13.78 22.64,12.8 21.66,12.8 20.68,12.8 20.68,13.78 		"/>
		<polygon class="st18" points="20.68,5.91 20.68,6.89 21.66,6.89 21.66,5.91 21.66,4.92 20.68,4.92 		"/>
		<polygon class="st18" points="19.69,7.88 19.69,8.86 19.69,9.85 20.68,9.85 20.68,8.86 20.68,7.88 20.68,6.89 19.69,6.89 		"/>
		<polygon class="st18" points="18.71,10.83 18.71,11.81 18.71,12.8 19.69,12.8 20.68,12.8 20.68,11.81 19.69,11.81 19.69,10.83 
			19.69,9.85 18.71,9.85 		"/>
	</g>
	<g>
		<polygon class="st19" points="35.44,7.88 35.44,8.86 35.44,9.85 35.44,10.83 36.43,10.83 36.43,9.85 36.43,8.86 36.43,7.88 		"/>
		<rect x="34.46" y="10.83" class="st19" width="0.98" height="0.98"/>
		<polygon class="st19" points="34.46,7.88 35.44,7.88 35.44,6.89 35.44,5.91 34.46,5.91 34.46,6.89 		"/>
		<rect x="33.48" y="4.92" class="st19" width="0.98" height="0.99"/>
		<polygon class="st19" points="32.49,11.81 32.49,12.8 33.48,12.8 34.46,12.8 34.46,11.81 33.48,11.81 		"/>
		<rect x="32.49" y="3.94" class="st19" width="0.99" height="0.98"/>
		<polygon class="st19" points="31.51,10.83 30.52,10.83 30.52,11.81 31.51,11.81 32.49,11.81 32.49,10.83 		"/>
		<rect x="31.51" y="2.95" class="st19" width="0.98" height="0.99"/>
		<rect x="30.52" y="1.97" class="st19" width="0.99" height="0.98"/>
		<polygon class="st19" points="29.54,9.85 28.55,9.85 28.55,10.83 29.54,10.83 30.52,10.83 30.52,9.85 		"/>
		<polygon class="st19" points="29.54,1.97 30.52,1.97 30.52,0.98 29.54,0.98 28.55,0.98 28.55,1.97 		"/>
		<polygon class="st19" points="26.58,10.83 25.6,10.83 25.6,11.81 26.58,11.81 27.57,11.81 28.55,11.81 28.55,10.83 27.57,10.83 		
			"/>
		<polygon class="st19" points="25.6,0.98 26.58,0.98 27.57,0.98 28.55,0.98 28.55,0 27.57,0 26.58,0 25.6,0 24.61,0 23.63,0 
			23.63,0.98 24.61,0.98 		"/>
		<polygon class="st19" points="23.63,11.81 23.63,12.8 24.61,12.8 25.6,12.8 25.6,11.81 24.61,11.81 		"/>
		<rect x="22.64" y="12.8" class="st19" width="0.99" height="0.98"/>
		<rect x="22.64" y="0.98" class="st19" width="0.99" height="0.99"/>
		<polygon class="st19" points="22.64,2.95 22.64,1.97 21.66,1.97 21.66,2.95 21.66,3.94 22.64,3.94 		"/>
		<polygon class="st19" points="20.68,13.78 20.68,14.77 21.66,14.77 22.64,14.77 22.64,13.78 21.66,13.78 		"/>
		<rect x="20.68" y="3.94" class="st19" width="0.98" height="0.98"/>
		<polygon class="st19" points="19.69,12.8 18.71,12.8 18.71,13.78 19.69,13.78 20.68,13.78 20.68,12.8 		"/>
		<polygon class="st19" points="20.68,5.91 20.68,4.92 19.69,4.92 19.69,5.91 19.69,6.89 20.68,6.89 		"/>
		<polygon class="st19" points="19.69,8.86 19.69,7.88 19.69,6.89 18.71,6.89 18.71,7.88 18.71,8.86 18.71,9.85 19.69,9.85 		"/>
		<polygon class="st19" points="18.71,10.83 18.71,9.85 17.72,9.85 17.72,10.83 17.72,11.81 17.72,12.8 18.71,12.8 18.71,11.81 		
			"/>
	</g>
	<g>
		<polygon class="st20" points="57.11,25.6 57.11,24.61 57.11,23.63 56.12,23.63 56.12,22.65 56.12,21.66 55.14,21.66 55.14,22.65 
			55.14,23.63 55.14,24.61 56.12,24.61 56.12,25.6 56.12,26.58 57.11,26.58 58.09,26.58 58.09,25.6 		"/>
		<polygon class="st20" points="52.18,22.65 52.18,23.63 53.17,23.63 53.17,22.65 53.17,21.66 52.18,21.66 		"/>
		<polygon class="st20" points="48.24,25.6 48.24,26.58 49.23,26.58 49.23,25.6 49.23,24.61 48.24,24.61 		"/>
		<polygon class="st20" points="48.24,22.65 47.26,22.65 47.26,23.63 47.26,24.61 48.24,24.61 48.24,23.63 		"/>
		<rect x="46.28" y="21.66" class="st20" width="0.98" height="0.99"/>
		<polygon class="st20" points="46.28,19.69 45.29,19.69 45.29,20.68 45.29,21.66 46.28,21.66 46.28,20.68 		"/>
		<polygon class="st20" points="45.29,23.63 44.31,23.63 44.31,22.65 44.31,21.66 43.32,21.66 43.32,22.65 43.32,23.63 43.32,24.61 
			44.31,24.61 44.31,25.6 45.29,25.6 46.28,25.6 46.28,24.61 45.29,24.61 		"/>
		<rect x="42.34" y="20.68" class="st20" width="0.98" height="0.98"/>
		<rect x="36.43" y="25.6" class="st20" width="0.98" height="0.98"/>
		<rect x="35.44" y="24.61" class="st20" width="0.99" height="0.99"/>
		<polygon class="st20" points="35.44,22.65 34.46,22.65 34.46,23.63 34.46,24.61 35.44,24.61 35.44,23.63 		"/>
		<polygon class="st20" points="26.58,25.6 25.6,25.6 25.6,24.61 25.6,23.63 24.61,23.63 24.61,24.61 24.61,25.6 24.61,26.58 
			25.6,26.58 25.6,27.57 26.58,27.57 27.57,27.57 27.57,26.58 26.58,26.58 		"/>
		<polygon class="st20" points="19.69,25.6 18.71,25.6 18.71,26.58 19.69,26.58 20.68,26.58 21.66,26.58 21.66,25.6 20.68,25.6 		
			"/>
		<polygon class="st20" points="17.72,24.61 17.72,23.63 16.74,23.63 16.74,24.61 16.74,25.6 17.72,25.6 18.71,25.6 18.71,24.61 		
			"/>
		<polygon class="st20" points="16.74,21.66 15.75,21.66 15.75,22.65 15.75,23.63 16.74,23.63 16.74,22.65 		"/>
		<polygon class="st20" points="12.8,24.61 12.8,23.63 11.81,23.63 11.81,22.65 11.81,21.66 10.83,21.66 10.83,22.65 10.83,23.63 
			10.83,24.61 11.81,24.61 11.81,25.6 12.8,25.6 13.78,25.6 14.77,25.6 14.77,24.61 13.78,24.61 		"/>
		<polygon class="st20" points="10.83,19.69 9.84,19.69 9.84,20.68 9.84,21.66 10.83,21.66 10.83,20.68 		"/>
		<rect x="8.86" y="24.61" class="st20" width="0.98" height="0.99"/>
		<rect x="8.86" y="18.71" class="st20" width="0.98" height="0.98"/>
		<polygon class="st20" points="7.88,24.61 7.88,23.63 6.89,23.63 6.89,24.61 6.89,25.6 6.89,26.58 7.88,26.58 8.86,26.58 
			8.86,25.6 7.88,25.6 		"/>
	</g>
	<g>
		<rect x="55.14" y="20.68" class="st21" width="0.98" height="0.98"/>
		<rect x="54.15" y="21.66" class="st21" width="0.99" height="0.99"/>
		<polygon class="st21" points="41.35,20.68 41.35,21.66 42.34,21.66 42.34,20.68 42.34,19.69 41.35,19.69 		"/>
		<rect x="40.37" y="18.71" class="st21" width="0.98" height="0.98"/>
		<polygon class="st21" points="23.63,22.65 23.63,23.63 24.61,23.63 24.61,22.65 24.61,21.66 23.63,21.66 		"/>
		<rect x="22.64" y="23.63" class="st21" width="0.99" height="0.98"/>
		<rect x="13.78" y="23.63" class="st21" width="0.99" height="0.98"/>
		<polygon class="st21" points="5.91,23.63 5.91,24.61 6.89,24.61 6.89,23.63 6.89,22.65 5.91,22.65 		"/>
	</g>
	<g>
		<rect x="56.12" y="18.71" class="st22" width="0.99" height="0.98"/>
		<rect x="55.14" y="19.69" class="st22" width="0.98" height="0.99"/>
		<polygon class="st22" points="40.37,17.72 40.37,18.71 41.35,18.71 41.35,17.72 41.35,16.74 40.37,16.74 		"/>
		<rect x="22.64" y="20.68" class="st22" width="0.99" height="0.98"/>
		<rect x="16.74" y="18.71" class="st22" width="0.98" height="0.98"/>
		<polygon class="st22" points="15.75,20.68 15.75,21.66 16.74,21.66 16.74,20.68 16.74,19.69 15.75,19.69 		"/>
		<polygon class="st22" points="14.77,22.65 14.77,23.63 15.75,23.63 15.75,22.65 15.75,21.66 14.77,21.66 		"/>
		<polygon class="st22" points="8.86,17.72 8.86,18.71 9.84,18.71 9.84,17.72 9.84,16.74 8.86,16.74 		"/>
		<polygon class="st22" points="7.88,19.69 7.88,20.68 7.88,21.66 8.86,21.66 8.86,20.68 8.86,19.69 8.86,18.71 7.88,18.71 		"/>
		<rect x="4.92" y="21.66" class="st22" width="0.99" height="0.99"/>
	</g>
	<g>
		<rect x="58.09" y="25.6" class="st23" width="0.99" height="0.98"/>
		<polygon class="st23" points="58.09,23.63 57.11,23.63 57.11,24.61 57.11,25.6 58.09,25.6 58.09,24.61 		"/>
		<rect x="57.11" y="18.71" class="st23" width="0.98" height="0.98"/>
		<polygon class="st23" points="57.11,21.66 57.11,20.68 57.11,19.69 56.12,19.69 56.12,20.68 56.12,21.66 56.12,22.65 56.12,23.63 
			57.11,23.63 57.11,22.65 		"/>
		<rect x="56.12" y="17.72" class="st23" width="0.99" height="0.99"/>
		<rect x="55.14" y="18.71" class="st23" width="0.98" height="0.98"/>
		<polygon class="st23" points="54.15,20.68 54.15,21.66 55.14,21.66 55.14,20.68 55.14,19.69 54.15,19.69 		"/>
		<polygon class="st23" points="53.17,22.65 53.17,23.63 54.15,23.63 54.15,22.65 54.15,21.66 53.17,21.66 		"/>
		<polygon class="st23" points="52.18,24.61 52.18,25.6 53.17,25.6 53.17,24.61 53.17,23.63 52.18,23.63 		"/>
		<rect x="52.18" y="20.68" class="st23" width="0.99" height="0.98"/>
		<rect x="51.2" y="21.66" class="st23" width="0.98" height="0.99"/>
		<polygon class="st23" points="50.21,23.63 50.21,24.61 51.2,24.61 51.2,23.63 51.2,22.65 50.21,22.65 		"/>
		<polygon class="st23" points="49.23,25.6 49.23,26.58 50.21,26.58 50.21,25.6 50.21,24.61 49.23,24.61 		"/>
		<polygon class="st23" points="49.23,22.65 48.24,22.65 48.24,23.63 48.24,24.61 49.23,24.61 49.23,23.63 		"/>
		<rect x="47.26" y="21.66" class="st23" width="0.98" height="0.99"/>
		<polygon class="st23" points="47.26,19.69 46.28,19.69 46.28,20.68 46.28,21.66 47.26,21.66 47.26,20.68 		"/>
		<rect x="45.29" y="23.63" class="st23" width="0.99" height="0.98"/>
		<polygon class="st23" points="45.29,18.71 44.31,18.71 44.31,19.69 44.31,20.68 43.32,20.68 43.32,21.66 44.31,21.66 44.31,22.65 
			44.31,23.63 45.29,23.63 45.29,22.65 45.29,21.66 45.29,20.68 45.29,19.69 46.28,19.69 46.28,18.71 		"/>
		<rect x="42.34" y="19.69" class="st23" width="0.98" height="0.99"/>
		<polygon class="st23" points="41.35,23.63 41.35,24.61 42.34,24.61 42.34,23.63 42.34,22.65 42.34,21.66 41.35,21.66 41.35,22.65 
					"/>
		<polygon class="st23" points="42.34,17.72 42.34,16.74 42.34,15.75 41.35,15.75 40.37,15.75 40.37,16.74 41.35,16.74 41.35,17.72 
			41.35,18.71 41.35,19.69 42.34,19.69 42.34,18.71 		"/>
		<polygon class="st23" points="40.37,20.68 40.37,21.66 41.35,21.66 41.35,20.68 41.35,19.69 40.37,19.69 		"/>
		<polygon class="st23" points="39.38,24.61 39.38,25.6 40.37,25.6 41.35,25.6 41.35,24.61 40.37,24.61 		"/>
		<polygon class="st23" points="40.37,17.72 40.37,16.74 39.38,16.74 39.38,17.72 39.38,18.71 39.38,19.69 40.37,19.69 40.37,18.71 
					"/>
		<polygon class="st23" points="37.41,25.6 37.41,26.58 38.4,26.58 39.38,26.58 39.38,25.6 38.4,25.6 		"/>
		<rect x="36.43" y="24.61" class="st23" width="0.98" height="0.99"/>
		<polygon class="st23" points="36.43,22.65 36.43,21.66 36.43,20.68 36.43,19.69 35.44,19.69 35.44,20.68 34.46,20.68 34.46,21.66 
			34.46,22.65 35.44,22.65 35.44,23.63 35.44,24.61 36.43,24.61 36.43,23.63 		"/>
		<polygon class="st23" points="33.48,23.63 33.48,24.61 33.48,25.6 34.46,25.6 34.46,24.61 34.46,23.63 34.46,22.65 33.48,22.65 		
			"/>
		<polygon class="st23" points="31.51,25.6 30.52,25.6 29.54,25.6 28.55,25.6 27.57,25.6 26.58,25.6 26.58,26.58 27.57,26.58 
			28.55,26.58 29.54,26.58 30.52,26.58 31.51,26.58 32.49,26.58 33.48,26.58 33.48,25.6 32.49,25.6 		"/>
		<polygon class="st23" points="26.58,23.63 25.6,23.63 25.6,24.61 25.6,25.6 26.58,25.6 26.58,24.61 		"/>
		<polygon class="st23" points="25.6,21.66 24.61,21.66 24.61,22.65 24.61,23.63 25.6,23.63 25.6,22.65 		"/>
		<rect x="23.63" y="20.68" class="st23" width="0.98" height="0.98"/>
		<polygon class="st23" points="22.64,22.65 22.64,23.63 23.63,23.63 23.63,22.65 23.63,21.66 22.64,21.66 		"/>
		<polygon class="st23" points="23.63,20.68 23.63,19.69 22.64,19.69 21.66,19.69 21.66,20.68 21.66,21.66 22.64,21.66 22.64,20.68 
					"/>
		<rect x="21.66" y="23.63" class="st23" width="0.98" height="0.98"/>
		<polygon class="st23" points="19.69,24.61 18.71,24.61 18.71,25.6 19.69,25.6 20.68,25.6 21.66,25.6 21.66,24.61 20.68,24.61 		
			"/>
		<rect x="17.72" y="23.63" class="st23" width="0.99" height="0.98"/>
		<polygon class="st23" points="17.72,19.69 18.71,19.69 18.71,18.71 18.71,17.72 17.72,17.72 16.74,17.72 16.74,18.71 17.72,18.71 
					"/>
		<polygon class="st23" points="17.72,21.66 17.72,20.68 17.72,19.69 16.74,19.69 16.74,20.68 16.74,21.66 16.74,22.65 16.74,23.63 
			17.72,23.63 17.72,22.65 		"/>
		<rect x="15.75" y="18.71" class="st23" width="0.99" height="0.98"/>
		<polygon class="st23" points="14.77,20.68 14.77,21.66 15.75,21.66 15.75,20.68 15.75,19.69 14.77,19.69 		"/>
		<polygon class="st23" points="13.78,22.65 13.78,23.63 14.77,23.63 14.77,22.65 14.77,21.66 13.78,21.66 		"/>
		<rect x="12.8" y="23.63" class="st23" width="0.98" height="0.98"/>
		<polygon class="st23" points="12.8,21.66 11.81,21.66 11.81,22.65 11.81,23.63 12.8,23.63 12.8,22.65 		"/>
		<polygon class="st23" points="11.81,19.69 10.83,19.69 10.83,20.68 10.83,21.66 11.81,21.66 11.81,20.68 		"/>
		<polygon class="st23" points="10.83,17.72 10.83,16.74 9.84,16.74 9.84,17.72 9.84,18.71 9.84,19.69 10.83,19.69 10.83,18.71 		
			"/>
		<rect x="8.86" y="15.75" class="st23" width="0.98" height="0.99"/>
		<polygon class="st23" points="7.88,17.72 7.88,18.71 8.86,18.71 8.86,17.72 8.86,16.74 7.88,16.74 		"/>
		<polygon class="st23" points="6.89,22.65 6.89,23.63 7.88,23.63 7.88,24.61 7.88,25.6 8.86,25.6 8.86,24.61 9.84,24.61 
			9.84,23.63 8.86,23.63 8.86,22.65 8.86,21.66 7.88,21.66 7.88,22.65 		"/>
		<polygon class="st23" points="6.89,19.69 6.89,20.68 6.89,21.66 7.88,21.66 7.88,20.68 7.88,19.69 7.88,18.71 6.89,18.71 		"/>
		<rect x="5.91" y="21.66" class="st23" width="0.98" height="0.99"/>
		<polygon class="st23" points="4.92,23.63 4.92,24.61 4.92,25.6 5.91,25.6 5.91,24.61 5.91,23.63 5.91,22.65 4.92,22.65 		"/>
		<polygon class="st23" points="5.91,21.66 5.91,20.68 4.92,20.68 3.94,20.68 3.94,21.66 3.94,22.65 4.92,22.65 4.92,21.66 		"/>
		<rect x="3.94" y="25.6" class="st23" width="0.98" height="0.98"/>
	</g>
	<g>
		<polygon class="st24" points="59.08,26.58 58.09,26.58 57.11,26.58 56.12,26.58 56.12,25.6 56.12,24.61 55.14,24.61 55.14,23.63 
			55.14,22.65 54.15,22.65 54.15,23.63 53.17,23.63 53.17,24.61 53.17,25.6 52.18,25.6 52.18,24.61 52.18,23.63 52.18,22.65 
			51.2,22.65 51.2,23.63 51.2,24.61 50.21,24.61 50.21,25.6 50.21,26.58 49.23,26.58 48.24,26.58 48.24,25.6 48.24,24.61 
			47.26,24.61 47.26,23.63 47.26,22.65 46.28,22.65 46.28,21.66 45.29,21.66 45.29,22.65 45.29,23.63 46.28,23.63 46.28,24.61 
			46.28,25.6 45.29,25.6 44.31,25.6 44.31,24.61 43.32,24.61 43.32,23.63 43.32,22.65 43.32,21.66 42.34,21.66 42.34,22.65 
			42.34,23.63 42.34,24.61 41.35,24.61 41.35,25.6 40.37,25.6 39.38,25.6 39.38,26.58 38.4,26.58 37.41,26.58 36.43,26.58 
			36.43,25.6 35.44,25.6 35.44,24.61 34.46,24.61 34.46,25.6 33.48,25.6 33.48,26.58 32.49,26.58 31.51,26.58 30.52,26.58 
			29.54,26.58 28.55,26.58 27.57,26.58 27.57,27.57 28.55,27.57 29.54,27.57 30.52,27.57 31.51,27.57 32.49,27.57 33.48,27.57 
			34.46,27.57 35.44,27.57 36.43,27.57 37.41,27.57 38.4,27.57 39.38,27.57 40.37,27.57 41.35,27.57 42.34,27.57 43.32,27.57 
			44.31,27.57 45.29,27.57 46.28,27.57 47.26,27.57 48.24,27.57 49.23,27.57 50.21,27.57 51.2,27.57 52.18,27.57 53.17,27.57 
			54.15,27.57 55.14,27.57 56.12,27.57 57.11,27.57 58.09,27.57 59.08,27.57 60.06,27.57 60.06,26.58 		"/>
		<polygon class="st24" points="24.61,25.6 24.61,24.61 24.61,23.63 23.63,23.63 23.63,24.61 22.64,24.61 21.66,24.61 21.66,25.6 
			21.66,26.58 20.68,26.58 19.69,26.58 18.71,26.58 18.71,25.6 17.72,25.6 16.74,25.6 16.74,24.61 16.74,23.63 15.75,23.63 
			14.77,23.63 14.77,24.61 14.77,25.6 13.78,25.6 12.8,25.6 11.81,25.6 11.81,24.61 10.83,24.61 10.83,23.63 10.83,22.65 
			10.83,21.66 9.84,21.66 9.84,20.68 9.84,19.69 8.86,19.69 8.86,20.68 8.86,21.66 8.86,22.65 8.86,23.63 9.84,23.63 9.84,24.61 
			9.84,25.6 8.86,25.6 8.86,26.58 7.88,26.58 6.89,26.58 6.89,25.6 6.89,24.61 5.91,24.61 5.91,25.6 4.92,25.6 4.92,26.58 
			3.94,26.58 2.95,26.58 1.97,26.58 0.98,26.58 0,26.58 0,27.57 0.98,27.57 1.97,27.57 2.95,27.57 3.94,27.57 4.92,27.57 
			5.91,27.57 6.89,27.57 7.88,27.57 8.86,27.57 9.84,27.57 10.83,27.57 11.81,27.57 12.8,27.57 13.78,27.57 14.77,27.57 
			15.75,27.57 16.74,27.57 17.72,27.57 18.71,27.57 19.69,27.57 20.68,27.57 21.66,27.57 22.64,27.57 23.63,27.57 24.61,27.57 
			25.6,27.57 25.6,26.58 24.61,26.58 		"/>
	</g>
</g>
</svg>
