<?xml version="1.0" encoding="utf-8"?>
<!-- Generator: Adobe Illustrator 26.5.0, SVG Export Plug-In . SVG Version: 6.00 Build 0)  -->
<svg version="1.1" id="Layer_1" xmlns="http://www.w3.org/2000/svg" xmlns:xlink="http://www.w3.org/1999/xlink" x="0px" y="0px"
	 viewBox="0 0 24.2 23.3" style="enable-background:new 0 0 24.2 23.3;" xml:space="preserve">
<style type="text/css">
	.st0{fill:#FFF3DF;}
	.st1{fill:#FFE0A1;}
	.st2{fill:#FFFFFF;}
	.st3{fill:#FDC388;}
	.st4{fill:#C6813B;}
</style>
<g>
	<g>
		<polygon class="st0" points="21.3,1 20.4,1 19.4,1 18.4,1 17.5,1 16.5,1 15.5,1 14.5,1 13.6,1 12.6,1 11.6,1 11.6,1.9 12.6,1.9 
			13.6,1.9 14.5,1.9 15.5,1.9 16.5,1.9 17.5,1.9 18.4,1.9 19.4,1.9 20.4,1.9 21.3,1.9 22.3,1.9 22.3,1 		"/>
		<polygon class="st0" points="3.9,1 2.9,1 2.9,1.9 3.9,1.9 4.8,1.9 5.8,1.9 5.8,1 4.8,1 		"/>
	</g>
	<path class="st1" d="M21.3,1.9h-1h-1h-1h-1h-1h-1h-1h-1h-1h-1h-1h-1h-1h-1h-1h-1h-1h-1h-1h-1v1v1v1v1v1v1v1v1v1v1v1v1v1v1v1v1h1v1
		h1v1h1h1h1h1h1h1h1h1h1h1h1h1h1h1h1h1v-1h1h1v-1h1v-1v-1v-1v-1v-1v-1v-1v-1v-1v-1v-1v-1v-1v-1v-1v-1H21.3z M5.8,2.9h1v1h-1h-1v-1
		H5.8z M2.9,2.9h1v1h-1V2.9z"/>
	<g>
		<polygon class="st2" points="10.7,1 9.7,1 8.7,1 7.8,1 6.8,1 5.8,1 5.8,1.9 6.8,1.9 7.8,1.9 8.7,1.9 9.7,1.9 10.7,1.9 11.6,1.9 
			11.6,1 		"/>
		<polygon class="st2" points="4.8,2.9 4.8,3.9 5.8,3.9 6.8,3.9 6.8,2.9 5.8,2.9 		"/>
		<rect x="2.9" y="2.9" class="st2" width="1" height="1"/>
		<rect x="1.9" y="1" class="st2" width="1" height="1"/>
	</g>
	<polygon class="st3" points="22.3,1.9 22.3,2.9 22.3,3.9 22.3,4.9 22.3,5.8 22.3,6.8 22.3,7.8 22.3,8.7 22.3,9.7 22.3,10.7 
		22.3,11.6 22.3,12.6 22.3,13.6 22.3,14.5 22.3,15.5 22.3,16.5 22.3,17.4 21.3,17.4 21.3,18.4 20.4,18.4 19.4,18.4 19.4,19.4 
		18.4,19.4 17.5,19.4 16.5,19.4 15.5,19.4 14.5,19.4 13.6,19.4 12.6,19.4 11.6,19.4 10.7,19.4 9.7,19.4 8.7,19.4 7.8,19.4 6.8,19.4 
		5.8,19.4 4.8,19.4 3.9,19.4 3.9,18.4 2.9,18.4 2.9,17.4 1.9,17.4 1.9,16.5 1.9,15.5 1.9,14.5 1.9,13.6 1.9,12.6 1.9,11.6 1.9,10.7 
		1.9,9.7 1.9,8.7 1.9,7.8 1.9,6.8 1.9,5.8 1.9,4.9 1.9,3.9 1.9,2.9 1.9,1.9 1,1.9 1,2.9 1,3.9 1,4.9 1,5.8 1,6.8 1,7.8 1,8.7 1,9.7 
		1,10.7 1,11.6 1,12.6 1,13.6 1,14.5 1,15.5 1,16.5 1,17.4 1,18.4 1,19.4 1,20.4 1,21.3 1.9,21.3 1.9,22.3 2.9,22.3 3.9,22.3 
		4.8,22.3 5.8,22.3 6.8,22.3 7.8,22.3 8.7,22.3 9.7,22.3 10.7,22.3 11.6,22.3 12.6,22.3 13.6,22.3 14.5,22.3 15.5,22.3 16.5,22.3 
		17.5,22.3 18.4,22.3 19.4,22.3 20.4,22.3 21.3,22.3 22.3,22.3 22.3,21.3 23.3,21.3 23.3,20.4 23.3,19.4 23.3,18.4 23.3,17.4 
		23.3,16.5 23.3,15.5 23.3,14.5 23.3,13.6 23.3,12.6 23.3,11.6 23.3,10.7 23.3,9.7 23.3,8.7 23.3,7.8 23.3,6.8 23.3,5.8 23.3,4.9 
		23.3,3.9 23.3,2.9 23.3,1.9 	"/>
	<g>
		<polygon class="st4" points="23.3,1.9 23.3,2.9 23.3,3.9 23.3,4.9 23.3,5.8 23.3,6.8 23.3,7.8 23.3,8.7 23.3,9.7 23.3,10.7 
			23.3,11.6 23.3,12.6 23.3,13.6 23.3,14.5 23.3,15.5 23.3,16.5 23.3,17.4 23.3,18.4 23.3,19.4 23.3,20.4 23.3,21.3 24.2,21.3 
			24.2,20.4 24.2,19.4 24.2,18.4 24.2,17.4 24.2,16.5 24.2,15.5 24.2,14.5 24.2,13.6 24.2,12.6 24.2,11.6 24.2,10.7 24.2,9.7 
			24.2,8.7 24.2,7.8 24.2,6.8 24.2,5.8 24.2,4.9 24.2,3.9 24.2,2.9 24.2,1.9 		"/>
		<rect x="22.3" y="21.3" class="st4" width="1" height="1"/>
		<rect x="22.3" y="1" class="st4" width="1" height="1"/>
		<polygon class="st4" points="20.4,22.3 19.4,22.3 18.4,22.3 17.5,22.3 16.5,22.3 15.5,22.3 14.5,22.3 13.6,22.3 12.6,22.3 
			11.6,22.3 10.7,22.3 9.7,22.3 8.7,22.3 7.8,22.3 6.8,22.3 5.8,22.3 4.8,22.3 3.9,22.3 2.9,22.3 1.9,22.3 1.9,23.3 2.9,23.3 
			3.9,23.3 4.8,23.3 5.8,23.3 6.8,23.3 7.8,23.3 8.7,23.3 9.7,23.3 10.7,23.3 11.6,23.3 12.6,23.3 13.6,23.3 14.5,23.3 15.5,23.3 
			16.5,23.3 17.5,23.3 18.4,23.3 19.4,23.3 20.4,23.3 21.3,23.3 22.3,23.3 22.3,22.3 21.3,22.3 		"/>
		<polygon class="st4" points="3.9,1 4.8,1 5.8,1 6.8,1 7.8,1 8.7,1 9.7,1 10.7,1 11.6,1 12.6,1 13.6,1 14.5,1 15.5,1 16.5,1 
			17.5,1 18.4,1 19.4,1 20.4,1 21.3,1 22.3,1 22.3,0 21.3,0 20.4,0 19.4,0 18.4,0 17.5,0 16.5,0 15.5,0 14.5,0 13.6,0 12.6,0 
			11.6,0 10.7,0 9.7,0 8.7,0 7.8,0 6.8,0 5.8,0 4.8,0 3.9,0 2.9,0 1.9,0 1.9,1 2.9,1 		"/>
		<rect x="1" y="21.3" class="st4" width="1" height="1"/>
		<rect x="1" y="1" class="st4" width="1" height="1"/>
		<polygon class="st4" points="1,19.4 1,18.4 1,17.4 1,16.5 1,15.5 1,14.5 1,13.6 1,12.6 1,11.6 1,10.7 1,9.7 1,8.7 1,7.8 1,6.8 
			1,5.8 1,4.9 1,3.9 1,2.9 1,1.9 0,1.9 0,2.9 0,3.9 0,4.9 0,5.8 0,6.8 0,7.8 0,8.7 0,9.7 0,10.7 0,11.6 0,12.6 0,13.6 0,14.5 
			0,15.5 0,16.5 0,17.4 0,18.4 0,19.4 0,20.4 0,21.3 1,21.3 1,20.4 		"/>
	</g>
</g>
</svg>
