<?xml version="1.0" encoding="utf-8"?>
<!-- Generator: Adobe Illustrator 26.5.0, SVG Export Plug-In . SVG Version: 6.00 Build 0)  -->
<svg version="1.1" id="Layer_1" xmlns="http://www.w3.org/2000/svg" xmlns:xlink="http://www.w3.org/1999/xlink" x="0px" y="0px"
	 viewBox="0 0 24.24 23.27" style="enable-background:new 0 0 24.24 23.27;" xml:space="preserve">
<style type="text/css">
	.st0{fill:#CDEBEF;}
	.st1{fill:#E7F5F9;}
	.st2{fill:#BBDEE0;}
	.st3{fill:#E48BBA;}
	.st4{fill:#C67786;}
</style>
<g>
	<polygon class="st0" points="21.33,1.94 20.36,1.94 19.39,1.94 18.42,1.94 17.45,1.94 16.48,1.94 15.51,1.94 14.54,1.94 
		13.57,1.94 12.6,1.94 11.64,1.94 10.67,1.94 9.7,1.94 8.73,1.94 7.76,1.94 6.79,1.94 5.82,1.94 4.85,1.94 3.88,1.94 2.91,1.94 
		1.94,1.94 1.94,2.91 1.94,3.88 1.94,4.85 1.94,5.82 1.94,6.79 1.94,7.76 1.94,8.73 1.94,9.7 1.94,10.67 1.94,11.64 1.94,12.6 
		1.94,13.57 1.94,14.54 1.94,15.51 1.94,16.48 1.94,17.45 2.91,17.45 2.91,18.42 3.88,18.42 3.88,19.39 4.85,19.39 5.82,19.39 
		6.79,19.39 7.76,19.39 8.73,19.39 9.7,19.39 10.67,19.39 11.64,19.39 12.6,19.39 13.57,19.39 14.54,19.39 15.51,19.39 16.48,19.39 
		17.45,19.39 18.42,19.39 19.39,19.39 19.39,18.42 20.36,18.42 21.33,18.42 21.33,17.45 22.3,17.45 22.3,16.48 22.3,15.51 
		22.3,14.54 22.3,13.57 22.3,12.6 22.3,11.64 22.3,10.67 22.3,9.7 22.3,8.73 22.3,7.76 22.3,6.79 22.3,5.82 22.3,4.85 22.3,3.88 
		22.3,2.91 22.3,1.94 	"/>
	<polygon class="st1" points="21.33,0.97 20.36,0.97 19.39,0.97 18.42,0.97 17.45,0.97 16.48,0.97 15.51,0.97 14.54,0.97 
		13.57,0.97 12.6,0.97 11.64,0.97 10.67,0.97 9.7,0.97 8.73,0.97 7.76,0.97 6.79,0.97 5.82,0.97 4.85,0.97 3.88,0.97 2.91,0.97 
		1.94,0.97 1.94,1.94 2.91,1.94 3.88,1.94 4.85,1.94 5.82,1.94 6.79,1.94 7.76,1.94 8.73,1.94 9.7,1.94 10.67,1.94 11.64,1.94 
		12.6,1.94 13.57,1.94 14.54,1.94 15.51,1.94 16.48,1.94 17.45,1.94 18.42,1.94 19.39,1.94 20.36,1.94 21.33,1.94 22.3,1.94 
		22.3,0.97 	"/>
	<polygon class="st2" points="21.33,0 20.36,0 19.39,0 18.42,0 17.45,0 16.48,0 15.51,0 14.54,0 13.57,0 12.6,0 11.64,0 10.67,0 
		9.7,0 8.73,0 7.76,0 6.79,0 5.82,0 4.85,0 3.88,0 2.91,0 1.94,0 1.94,0.97 2.91,0.97 3.88,0.97 4.85,0.97 5.82,0.97 6.79,0.97 
		7.76,0.97 8.73,0.97 9.7,0.97 10.67,0.97 11.64,0.97 12.6,0.97 13.57,0.97 14.54,0.97 15.51,0.97 16.48,0.97 17.45,0.97 
		18.42,0.97 19.39,0.97 20.36,0.97 21.33,0.97 22.3,0.97 22.3,0 	"/>
	<polygon class="st3" points="22.3,1.94 22.3,2.91 22.3,3.88 22.3,4.85 22.3,5.82 22.3,6.79 22.3,7.76 22.3,8.73 22.3,9.7 
		22.3,10.67 22.3,11.64 22.3,12.6 22.3,13.57 22.3,14.54 22.3,15.51 22.3,16.48 22.3,17.45 21.33,17.45 21.33,18.42 20.36,18.42 
		19.39,18.42 19.39,19.39 18.42,19.39 17.45,19.39 16.48,19.39 15.51,19.39 14.54,19.39 13.57,19.39 12.6,19.39 11.64,19.39 
		10.67,19.39 9.7,19.39 8.73,19.39 7.76,19.39 6.79,19.39 5.82,19.39 4.85,19.39 3.88,19.39 3.88,18.42 2.91,18.42 2.91,17.45 
		1.94,17.45 1.94,16.48 1.94,15.51 1.94,14.54 1.94,13.57 1.94,12.6 1.94,11.64 1.94,10.67 1.94,9.7 1.94,8.73 1.94,7.76 1.94,6.79 
		1.94,5.82 1.94,4.85 1.94,3.88 1.94,2.91 1.94,1.94 0.97,1.94 0.97,2.91 0.97,3.88 0.97,4.85 0.97,5.82 0.97,6.79 0.97,7.76 
		0.97,8.73 0.97,9.7 0.97,10.67 0.97,11.64 0.97,12.6 0.97,13.57 0.97,14.54 0.97,15.51 0.97,16.48 0.97,17.45 0.97,18.42 
		0.97,19.39 0.97,20.36 0.97,21.33 1.94,21.33 1.94,22.3 2.91,22.3 3.88,22.3 4.85,22.3 5.82,22.3 6.79,22.3 7.76,22.3 8.73,22.3 
		9.7,22.3 10.67,22.3 11.64,22.3 12.6,22.3 13.57,22.3 14.54,22.3 15.51,22.3 16.48,22.3 17.45,22.3 18.42,22.3 19.39,22.3 
		20.36,22.3 21.33,22.3 22.3,22.3 22.3,21.33 23.27,21.33 23.27,20.36 23.27,19.39 23.27,18.42 23.27,17.45 23.27,16.48 
		23.27,15.51 23.27,14.54 23.27,13.57 23.27,12.6 23.27,11.64 23.27,10.67 23.27,9.7 23.27,8.73 23.27,7.76 23.27,6.79 23.27,5.82 
		23.27,4.85 23.27,3.88 23.27,2.91 23.27,1.94 	"/>
	<g>
		<polygon class="st4" points="23.27,1.94 23.27,2.91 23.27,3.88 23.27,4.85 23.27,5.82 23.27,6.79 23.27,7.76 23.27,8.73 
			23.27,9.7 23.27,10.67 23.27,11.64 23.27,12.6 23.27,13.57 23.27,14.54 23.27,15.51 23.27,16.48 23.27,17.45 23.27,18.42 
			23.27,19.39 23.27,20.36 23.27,21.33 24.24,21.33 24.24,20.36 24.24,19.39 24.24,18.42 24.24,17.45 24.24,16.48 24.24,15.51 
			24.24,14.54 24.24,13.57 24.24,12.6 24.24,11.64 24.24,10.67 24.24,9.7 24.24,8.73 24.24,7.76 24.24,6.79 24.24,5.82 24.24,4.85 
			24.24,3.88 24.24,2.91 24.24,1.94 		"/>
		<rect x="22.3" y="21.33" class="st4" width="0.97" height="0.97"/>
		<rect x="22.3" y="0.97" class="st4" width="0.97" height="0.97"/>
		<polygon class="st4" points="20.36,22.3 19.39,22.3 18.42,22.3 17.45,22.3 16.48,22.3 15.51,22.3 14.54,22.3 13.57,22.3 
			12.6,22.3 11.64,22.3 10.67,22.3 9.7,22.3 8.73,22.3 7.76,22.3 6.79,22.3 5.82,22.3 4.85,22.3 3.88,22.3 2.91,22.3 1.94,22.3 
			1.94,23.27 2.91,23.27 3.88,23.27 4.85,23.27 5.82,23.27 6.79,23.27 7.76,23.27 8.73,23.27 9.7,23.27 10.67,23.27 11.64,23.27 
			12.6,23.27 13.57,23.27 14.54,23.27 15.51,23.27 16.48,23.27 17.45,23.27 18.42,23.27 19.39,23.27 20.36,23.27 21.33,23.27 
			22.3,23.27 22.3,22.3 21.33,22.3 		"/>
		<rect x="0.97" y="21.33" class="st4" width="0.97" height="0.97"/>
		<rect x="0.97" y="0.97" class="st4" width="0.97" height="0.97"/>
		<polygon class="st4" points="0.97,19.39 0.97,18.42 0.97,17.45 0.97,16.48 0.97,15.51 0.97,14.54 0.97,13.57 0.97,12.6 
			0.97,11.64 0.97,10.67 0.97,9.7 0.97,8.73 0.97,7.76 0.97,6.79 0.97,5.82 0.97,4.85 0.97,3.88 0.97,2.91 0.97,1.94 0,1.94 0,2.91 
			0,3.88 0,4.85 0,5.82 0,6.79 0,7.76 0,8.73 0,9.7 0,10.67 0,11.64 0,12.6 0,13.57 0,14.54 0,15.51 0,16.48 0,17.45 0,18.42 
			0,19.39 0,20.36 0,21.33 0.97,21.33 0.97,20.36 		"/>
	</g>
</g>
</svg>
