<svg xmlns="http://www.w3.org/2000/svg" width="241.466" height="135.944" viewBox="0 0 241.466 135.944">
  <g id="CornerProp" transform="translate(-1128.559 -650.052)">
    <g id="NavItem_Me_Active" transform="translate(1210.12 711.823)">
      <path id="UnderlyingMask" d="M33.722,14.734V0H0V14.734H33.722Z" transform="translate(59.518 9.774) rotate(90)" fill="#fdeef5"/>
      <path id="UnderlyingMask-2" data-name="UnderlyingMask" d="M34.86,59.442V3.88H7.76V59.442h27.1Z" transform="translate(67.748 16.69) rotate(90)" fill="#fdeef5"/>
      <path id="UnderlyingMask-3" data-name="UnderlyingMask" d="M34.763,15.189V0H0V15.189H34.763Z" transform="translate(31.604 9.254) rotate(90)" fill="#fdeef5"/>
      <path id="UnderlyingMask-4" data-name="UnderlyingMask" d="M6.482,4.964V0H0V4.964H6.482Z" transform="translate(26.379 5.254) rotate(90)" fill="#fdeef5"/>
      <path id="UnderlyingMask-5" data-name="UnderlyingMask" d="M6.482,4.964V0H0V4.964H6.482Z" transform="translate(54.379 5.254) rotate(90)" fill="#fdeef5"/>
      <rect id="Rectangle_32" data-name="Rectangle 32" width="4.026" height="4.026" transform="translate(64.229 32.062)" fill="#fad3e4"/>
      <rect id="Rectangle_33" data-name="Rectangle 33" width="4.026" height="4.026" transform="translate(60.203 32.062)" fill="#fad3e4"/>
      <path id="Path_60" data-name="Path 60" d="M27.588,11.64v8.011H23.562v4.026H15.51V27.7H27.588V23.677h4.026V11.64Z" transform="translate(36.641 24.448)" fill="#d3eaf9"/>
      <g id="Group_14" data-name="Group 14" transform="translate(19.984 28.036)">
        <path id="Path_61" data-name="Path 61" d="M21.622,9.7H13.57v4.026H25.648V9.7Z" transform="translate(10.545 -9.7)" fill="#c97795"/>
        <path id="Path_62" data-name="Path 62" d="M14.7,11.64H10.67v3.985H22.707V11.64H14.7Z" transform="translate(1.408 -3.588)" fill="#c97795"/>
        <path id="Path_63" data-name="Path 63" d="M19.838,9.7H7.76v4.026H19.838Z" transform="translate(-7.76 -9.7)" fill="#c97795"/>
      </g>
      <path id="Path_65" data-name="Path 65" d="M50.065,20.954V12.9H46.039V4.85H42.013V12.9H37.987v4.026H25.95V12.9H21.924V4.85H17.9V12.9H13.872v8.052H9.846V33.032H5.82v8.011H9.846v4.026H46.039V41.043h4.026V37.017h4.026V20.954ZM37.987,37.017H25.95V33.032H37.987v3.985ZM13.872,24.98H25.95v4.026H13.872Zm36.193,4.026H37.987V24.98H50.065Z" transform="translate(6.112 3.056)" fill="#fdeef5"/>
      <rect id="Rectangle_34" data-name="Rectangle 34" width="4.026" height="4.026" transform="translate(11.932 32.062)" fill="#fad3e4"/>
      <g id="Group_15" data-name="Group 15" transform="translate(7.906 7.906)">
        <path id="Path_66" data-name="Path 66" d="M23.562,15.625H19.536v4.026H15.51v4.026h8.052V19.651h4.026V11.64H23.562Z" transform="translate(28.735 16.542)" fill="#f5e4eb"/>
        <path id="Path_67" data-name="Path 67" d="M17.45,8.73v8.052h4.026V8.73Z" transform="translate(34.847 7.374)" fill="#f5e4eb"/>
        <path id="Path_68" data-name="Path 68" d="M20.506,6.79H16.48v8.052h4.026V6.79Z" transform="translate(31.791 1.262)" fill="#f5e4eb"/>
        <path id="Path_69" data-name="Path 69" d="M19.536,4.85H15.51V12.9h4.026V4.85Z" transform="translate(28.735 -4.85)" fill="#f5e4eb"/>
        <path id="Path_70" data-name="Path 70" d="M37.987,14.54H5.82v4.026H46.039V14.54H37.987Z" transform="translate(-1.794 25.679)" fill="#f5e4eb"/>
        <rect id="Rectangle_35" data-name="Rectangle 35" width="4.026" height="4.026" transform="translate(0 36.193)" fill="#f5e4eb"/>
      </g>
      <g id="Group_16" data-name="Group 16" transform="translate(7.906 7.906)">
        <path id="Path_71" data-name="Path 71" d="M7.76,4.85V12.9h4.026V4.85Z" transform="translate(4.318 -4.85)" fill="#fef8fb"/>
        <path id="Path_72" data-name="Path 72" d="M6.79,10.816v4.026h4.026V6.79H6.79Z" transform="translate(1.262 1.262)" fill="#fef8fb"/>
        <rect id="Rectangle_36" data-name="Rectangle 36" width="4.026" height="4.026" transform="translate(4.026 36.193)" fill="#fef8fb"/>
        <path id="Path_73" data-name="Path 73" d="M5.82,12.756v4.026H9.846V8.73H5.82Z" transform="translate(-1.794 7.374)" fill="#fef8fb"/>
        <path id="Path_74" data-name="Path 74" d="M8.876,11.64H4.85v8.011H8.876V11.64Z" transform="translate(-4.85 16.542)" fill="#fef8fb"/>
      </g>
      <rect id="Rectangle_37" data-name="Rectangle 37" width="4.026" height="4.026" transform="translate(7.906 32.062)" fill="#fad3e4"/>
      <g id="Group_17" data-name="Group 17" transform="translate(3.88 3.88)">
        <path id="Path_75" data-name="Path 75" d="M19.39,10.67V26.733h4.026V10.67Z" transform="translate(44.985 17.512)" fill="#e48bba"/>
        <rect id="Rectangle_38" data-name="Rectangle 38" width="4.026" height="4.026" transform="translate(60.349 44.245)" fill="#e48bba"/>
        <path id="Path_76" data-name="Path 76" d="M18.42,16.782h4.026V8.73H18.42v8.052Z" transform="translate(41.929 11.4)" fill="#e48bba"/>
        <path id="Path_77" data-name="Path 77" d="M17.45,14.842h4.026V6.79H17.45v8.052Z" transform="translate(38.873 5.288)" fill="#e48bba"/>
        <path id="Path_78" data-name="Path 78" d="M50.065,15.51H5.82v4.026h52.3V15.51H50.065Z" transform="translate(2.232 32.761)" fill="#e48bba"/>
        <path id="Path_79" data-name="Path 79" d="M16.48,12.9h4.026V4.85H16.48V12.9Z" transform="translate(35.817 -0.824)" fill="#e48bba"/>
        <path id="Path_80" data-name="Path 80" d="M22.592,7.906V3.88H14.54V7.906h8.052Z" transform="translate(29.705 -3.88)" fill="#e48bba"/>
        <path id="Path_81" data-name="Path 81" d="M17.6,8.876V4.85H13.57V12.9H17.6Z" transform="translate(26.649 -0.824)" fill="#e48bba"/>
        <path id="Path_82" data-name="Path 82" d="M14.7,10.816h8.011V6.79H10.67v4.026Z" transform="translate(17.512 5.288)" fill="#e48bba"/>
        <path id="Path_83" data-name="Path 83" d="M9.7,12.9h4.026V4.85H9.7V12.9Z" transform="translate(14.456 -0.824)" fill="#e48bba"/>
        <path id="Path_84" data-name="Path 84" d="M15.812,7.906V3.88H7.76V7.906h8.052Z" transform="translate(8.344 -3.88)" fill="#e48bba"/>
        <path id="Path_85" data-name="Path 85" d="M10.816,8.876V4.85H6.79V12.9h4.026Z" transform="translate(5.288 -0.824)" fill="#e48bba"/>
        <path id="Path_86" data-name="Path 86" d="M9.846,10.816V6.79H5.82v8.052H9.846Z" transform="translate(2.232 5.288)" fill="#e48bba"/>
        <rect id="Rectangle_39" data-name="Rectangle 39" width="4.026" height="4.026" transform="translate(4.026 44.245)" fill="#e48bba"/>
        <path id="Path_87" data-name="Path 87" d="M8.876,12.756V8.73H4.85v8.052H8.876Z" transform="translate(-0.824 11.4)" fill="#e48bba"/>
        <path id="Path_88" data-name="Path 88" d="M7.906,18.681V10.67H3.88V26.733H7.906V18.681Z" transform="translate(-3.88 17.512)" fill="#e48bba"/>
      </g>
    </g>
    <g id="WoodBoard" transform="translate(-24 163)">
      <g id="PixelBoardStick" transform="translate(43 -163)">
        <path id="Path_141" data-name="Path 141" d="M125.708,12.88v-9H7.76v9H125.708Z" transform="translate(1265.971 642.292) rotate(90)" fill="#c6813b"/>
        <path id="Path_139" data-name="Path 139" d="M125.708,7.906V3.88H7.76V7.906H125.708Z" transform="translate(1267.984 642.292) rotate(90)" fill="#8d5a0e"/>
        <path id="Path_140" data-name="Path 140" d="M125.708,7.906V3.88H7.76V7.906H125.708Z" transform="translate(1258.984 642.292) rotate(90)" fill="#8d5a0e"/>
      </g>
    </g>
    <g id="BgPropGrass02" transform="translate(1277.588 740.066)">
      <g id="Group_34" data-name="Group 34" transform="translate(13.944 9.311)">
        <path id="Path_172" data-name="Path 172" d="M26.58,6.9v4.632h2.34V6.9Z" transform="translate(22.294 0.095)" fill="#a3d39a"/>
        <rect id="Rectangle_65" data-name="Rectangle 65" width="2.316" height="2.34" transform="translate(46.557 11.628)" fill="#a3d39a"/>
        <rect id="Rectangle_66" data-name="Rectangle 66" width="2.34" height="2.316" transform="translate(44.218 13.967)" fill="#a3d39a"/>
        <path id="Path_173" data-name="Path 173" d="M13.78,10.2v2.34h2.34V7.88H13.78Z" transform="translate(4.843 1.431)" fill="#a3d39a"/>
        <rect id="Rectangle_67" data-name="Rectangle 67" width="2.34" height="2.34" transform="translate(9.311)" fill="#a3d39a"/>
        <path id="Path_174" data-name="Path 174" d="M8.86,7.246V11.9h2.316V4.93H8.86Z" transform="translate(-1.865 -2.59)" fill="#a3d39a"/>
        <rect id="Rectangle_68" data-name="Rectangle 68" width="2.34" height="2.34" transform="translate(0 11.628)" fill="#a3d39a"/>
      </g>
      <g id="Group_35" data-name="Group 35" transform="translate(11.628 11.651)">
        <path id="Path_175" data-name="Path 175" d="M37.492,14.852H35.176V12.536h-2.34V7.88H30.52v6.972h2.316v2.34h7v-2.34Z" transform="translate(29.981 -0.908)" fill="#4ca06b"/>
        <path id="Path_176" data-name="Path 176" d="M28.92,8.86H26.58v4.656h4.656V11.2H28.92Z" transform="translate(24.61 0.428)" fill="#4ca06b"/>
        <path id="Path_177" data-name="Path 177" d="M24.058,17.538H19.426V15.221h-2.34V5.91H14.77V17.538h2.316v2.34H28.714v-2.34H24.058Z" transform="translate(8.509 -3.594)" fill="#4ca06b"/>
        <path id="Path_178" data-name="Path 178" d="M11.81,8.86V11.2h2.34v2.316h2.316V8.86H11.81Z" transform="translate(4.473 0.428)" fill="#4ca06b"/>
        <path id="Path_179" data-name="Path 179" d="M14.5,9.586H12.18V4.93H9.84V11.9h2.34v2.316H14.5V9.586Z" transform="translate(1.788 -4.93)" fill="#4ca06b"/>
        <path id="Path_180" data-name="Path 180" d="M6.89,7.88V10.2H9.206v2.34h2.34V7.88H6.89Z" transform="translate(-2.234 -0.908)" fill="#4ca06b"/>
        <rect id="Rectangle_69" data-name="Rectangle 69" width="2.34" height="2.316" transform="translate(2.316 4.656)" fill="#4ca06b"/>
        <rect id="Rectangle_70" data-name="Rectangle 70" width="2.316" height="2.34" transform="translate(0 2.316)" fill="#4ca06b"/>
      </g>
      <g id="Group_36" data-name="Group 36" transform="translate(9.311 2.34)">
        <rect id="Rectangle_71" data-name="Rectangle 71" width="2.316" height="2.34" transform="translate(51.19 11.628)" fill="#d9eabe"/>
        <rect id="Rectangle_72" data-name="Rectangle 72" width="2.316" height="2.316" transform="translate(16.283)" fill="#d9eabe"/>
        <path id="Path_181" data-name="Path 181" d="M9.84,4.31V6.626h2.34V1.97H9.84Z" transform="translate(4.104 0.346)" fill="#d9eabe"/>
        <path id="Path_182" data-name="Path 182" d="M4.92,9.216v2.316H7.236V6.9H4.92Z" transform="translate(-2.604 7.067)" fill="#d9eabe"/>
        <rect id="Rectangle_73" data-name="Rectangle 73" width="2.316" height="2.34" transform="translate(0 11.628)" fill="#d9eabe"/>
      </g>
      <g id="Group_37" data-name="Group 37" transform="translate(6.972)">
        <path id="Path_183" data-name="Path 183" d="M34.806,9.85H32.49v2.316h4.656V9.85Z" transform="translate(37.323 13.429)" fill="#328250"/>
        <path id="Path_184" data-name="Path 184" d="M35.176,9.216V6.9H30.52V9.216h2.316v4.656h2.34V9.216Z" transform="translate(34.637 9.407)" fill="#328250"/>
        <path id="Path_185" data-name="Path 185" d="M29.54,10.2v2.34h2.316V7.88H29.54Z" transform="translate(33.301 10.743)" fill="#328250"/>
        <rect id="Rectangle_74" data-name="Rectangle 74" width="2.34" height="2.316" transform="translate(60.501 23.279)" fill="#328250"/>
        <path id="Path_186" data-name="Path 186" d="M29.886,9.216V6.9H27.57v6.972h2.316V9.216Z" transform="translate(30.615 9.407)" fill="#328250"/>
        <rect id="Rectangle_75" data-name="Rectangle 75" width="2.34" height="2.34" transform="translate(55.845 13.967)" fill="#328250"/>
        <path id="Path_187" data-name="Path 187" d="M25.6,9.216v2.316h2.316V6.9H25.6Z" transform="translate(27.929 9.407)" fill="#328250"/>
        <path id="Path_188" data-name="Path 188" d="M29.266,7.246V4.93H24.61V9.586h2.34V7.246Z" transform="translate(26.58 6.721)" fill="#328250"/>
        <rect id="Rectangle_76" data-name="Rectangle 76" width="2.34" height="2.34" transform="translate(51.19 20.939)" fill="#328250"/>
        <path id="Path_189" data-name="Path 189" d="M30.684,9.85H16.74v2.316h18.6V9.85H30.684Z" transform="translate(15.85 13.429)" fill="#328250"/>
        <path id="Path_190" data-name="Path 190" d="M19.426,11.9V4.93H14.77V7.246h2.316v9.311h2.34V11.9Z" transform="translate(13.164 6.721)" fill="#328250"/>
        <path id="Path_191" data-name="Path 191" d="M13.78,8.25v2.316h2.34V5.91H13.78Z" transform="translate(11.815 8.057)" fill="#328250"/>
        <path id="Path_192" data-name="Path 192" d="M14.15,6.9H11.81v4.632h4.656V9.216H14.15Z" transform="translate(9.129 9.407)" fill="#328250"/>
        <path id="Path_193" data-name="Path 193" d="M13.146,4.656h2.34V0H10.83V2.34h2.316Z" transform="translate(7.793)" fill="#328250"/>
        <path id="Path_194" data-name="Path 194" d="M13.146,8.965v-7H10.83V13.621h2.316V8.965Z" transform="translate(7.793 2.686)" fill="#328250"/>
        <rect id="Rectangle_77" data-name="Rectangle 77" width="2.34" height="2.316" transform="translate(16.283 2.34)" fill="#328250"/>
        <path id="Path_195" data-name="Path 195" d="M8.86,4.31V8.965h2.316v-7H8.86Z" transform="translate(5.107 2.686)" fill="#328250"/>
        <path id="Path_196" data-name="Path 196" d="M9.206,7.246v2.34H6.89V11.9h4.656V4.93H9.206Z" transform="translate(2.421 6.721)" fill="#328250"/>
        <rect id="Rectangle_78" data-name="Rectangle 78" width="2.34" height="2.34" transform="translate(6.972 13.967)" fill="#328250"/>
        <path id="Path_197" data-name="Path 197" d="M7.606,4.93H2.95V9.586H5.29V7.246H9.922V4.93Z" transform="translate(-2.95 6.721)" fill="#328250"/>
        <path id="Path_198" data-name="Path 198" d="M5.29,11.2H2.95v2.316H9.922V8.86H7.606V11.2Z" transform="translate(-2.95 12.079)" fill="#328250"/>
        <path id="Path_199" data-name="Path 199" d="M3.94,11.532H6.256V6.9H3.94v4.632Z" transform="translate(-1.6 9.407)" fill="#328250"/>
      </g>
      <g id="Group_38" data-name="Group 38" transform="translate(0 18.623)">
        <path id="Path_200" data-name="Path 200" d="M39.116,10.83H34.46v2.34h6.972V10.83Z" transform="translate(46.98 -3.858)" fill="#5dbe83"/>
        <path id="Path_201" data-name="Path 201" d="M43.949,9.85H41.633v2.316h-7V9.85H32.321v2.316H20.67v2.34H46.265v-2.34H43.949Z" transform="translate(28.18 -5.194)" fill="#5dbe83"/>
        <path id="Path_202" data-name="Path 202" d="M34.906,12.536h-2.34v2.316H30.251V12.536h-2.34V10.2H25.595V7.88H20.939v4.656H18.6V10.2H16.283v2.34h-2.34v2.316H0v2.34H37.222v-2.34H34.906Z" transform="translate(0 -7.88)" fill="#5dbe83"/>
        <rect id="Rectangle_79" data-name="Rectangle 79" width="2.34" height="2.316" transform="translate(13.944)" fill="#5dbe83"/>
      </g>
    </g>
    <g id="BgPropGrass02-2" data-name="BgPropGrass02" transform="translate(1204 740.066)">
      <g id="Group_34-2" data-name="Group 34" transform="translate(13.944 9.311)">
        <path id="Path_172-2" data-name="Path 172" d="M26.58,6.9v4.632h2.34V6.9Z" transform="translate(22.294 0.095)" fill="#a3d39a"/>
        <rect id="Rectangle_65-2" data-name="Rectangle 65" width="2.316" height="2.34" transform="translate(46.557 11.628)" fill="#a3d39a"/>
        <rect id="Rectangle_66-2" data-name="Rectangle 66" width="2.34" height="2.316" transform="translate(44.218 13.967)" fill="#a3d39a"/>
        <path id="Path_173-2" data-name="Path 173" d="M13.78,10.2v2.34h2.34V7.88H13.78Z" transform="translate(4.843 1.431)" fill="#a3d39a"/>
        <rect id="Rectangle_67-2" data-name="Rectangle 67" width="2.34" height="2.34" transform="translate(9.311)" fill="#a3d39a"/>
        <path id="Path_174-2" data-name="Path 174" d="M8.86,7.246V11.9h2.316V4.93H8.86Z" transform="translate(-1.865 -2.59)" fill="#a3d39a"/>
        <rect id="Rectangle_68-2" data-name="Rectangle 68" width="2.34" height="2.34" transform="translate(0 11.628)" fill="#a3d39a"/>
      </g>
      <g id="Group_35-2" data-name="Group 35" transform="translate(11.628 11.651)">
        <path id="Path_175-2" data-name="Path 175" d="M37.492,14.852H35.176V12.536h-2.34V7.88H30.52v6.972h2.316v2.34h7v-2.34Z" transform="translate(29.981 -0.908)" fill="#4ca06b"/>
        <path id="Path_176-2" data-name="Path 176" d="M28.92,8.86H26.58v4.656h4.656V11.2H28.92Z" transform="translate(24.61 0.428)" fill="#4ca06b"/>
        <path id="Path_177-2" data-name="Path 177" d="M24.058,17.538H19.426V15.221h-2.34V5.91H14.77V17.538h2.316v2.34H28.714v-2.34H24.058Z" transform="translate(8.509 -3.594)" fill="#4ca06b"/>
        <path id="Path_178-2" data-name="Path 178" d="M11.81,8.86V11.2h2.34v2.316h2.316V8.86H11.81Z" transform="translate(4.473 0.428)" fill="#4ca06b"/>
        <path id="Path_179-2" data-name="Path 179" d="M14.5,9.586H12.18V4.93H9.84V11.9h2.34v2.316H14.5V9.586Z" transform="translate(1.788 -4.93)" fill="#4ca06b"/>
        <path id="Path_180-2" data-name="Path 180" d="M6.89,7.88V10.2H9.206v2.34h2.34V7.88H6.89Z" transform="translate(-2.234 -0.908)" fill="#4ca06b"/>
        <rect id="Rectangle_69-2" data-name="Rectangle 69" width="2.34" height="2.316" transform="translate(2.316 4.656)" fill="#4ca06b"/>
        <rect id="Rectangle_70-2" data-name="Rectangle 70" width="2.316" height="2.34" transform="translate(0 2.316)" fill="#4ca06b"/>
      </g>
      <g id="Group_36-2" data-name="Group 36" transform="translate(9.311 2.34)">
        <rect id="Rectangle_71-2" data-name="Rectangle 71" width="2.316" height="2.34" transform="translate(51.19 11.628)" fill="#d9eabe"/>
        <rect id="Rectangle_72-2" data-name="Rectangle 72" width="2.316" height="2.316" transform="translate(16.283)" fill="#d9eabe"/>
        <path id="Path_181-2" data-name="Path 181" d="M9.84,4.31V6.626h2.34V1.97H9.84Z" transform="translate(4.104 0.346)" fill="#d9eabe"/>
        <path id="Path_182-2" data-name="Path 182" d="M4.92,9.216v2.316H7.236V6.9H4.92Z" transform="translate(-2.604 7.067)" fill="#d9eabe"/>
        <rect id="Rectangle_73-2" data-name="Rectangle 73" width="2.316" height="2.34" transform="translate(0 11.628)" fill="#d9eabe"/>
      </g>
      <g id="Group_37-2" data-name="Group 37" transform="translate(6.972)">
        <path id="Path_183-2" data-name="Path 183" d="M34.806,9.85H32.49v2.316h4.656V9.85Z" transform="translate(37.323 13.429)" fill="#328250"/>
        <path id="Path_184-2" data-name="Path 184" d="M35.176,9.216V6.9H30.52V9.216h2.316v4.656h2.34V9.216Z" transform="translate(34.637 9.407)" fill="#328250"/>
        <path id="Path_185-2" data-name="Path 185" d="M29.54,10.2v2.34h2.316V7.88H29.54Z" transform="translate(33.301 10.743)" fill="#328250"/>
        <rect id="Rectangle_74-2" data-name="Rectangle 74" width="2.34" height="2.316" transform="translate(60.501 23.279)" fill="#328250"/>
        <path id="Path_186-2" data-name="Path 186" d="M29.886,9.216V6.9H27.57v6.972h2.316V9.216Z" transform="translate(30.615 9.407)" fill="#328250"/>
        <rect id="Rectangle_75-2" data-name="Rectangle 75" width="2.34" height="2.34" transform="translate(55.845 13.967)" fill="#328250"/>
        <path id="Path_187-2" data-name="Path 187" d="M25.6,9.216v2.316h2.316V6.9H25.6Z" transform="translate(27.929 9.407)" fill="#328250"/>
        <path id="Path_188-2" data-name="Path 188" d="M29.266,7.246V4.93H24.61V9.586h2.34V7.246Z" transform="translate(26.58 6.721)" fill="#328250"/>
        <rect id="Rectangle_76-2" data-name="Rectangle 76" width="2.34" height="2.34" transform="translate(51.19 20.939)" fill="#328250"/>
        <path id="Path_189-2" data-name="Path 189" d="M30.684,9.85H16.74v2.316h18.6V9.85H30.684Z" transform="translate(15.85 13.429)" fill="#328250"/>
        <path id="Path_190-2" data-name="Path 190" d="M19.426,11.9V4.93H14.77V7.246h2.316v9.311h2.34V11.9Z" transform="translate(13.164 6.721)" fill="#328250"/>
        <path id="Path_191-2" data-name="Path 191" d="M13.78,8.25v2.316h2.34V5.91H13.78Z" transform="translate(11.815 8.057)" fill="#328250"/>
        <path id="Path_192-2" data-name="Path 192" d="M14.15,6.9H11.81v4.632h4.656V9.216H14.15Z" transform="translate(9.129 9.407)" fill="#328250"/>
        <path id="Path_193-2" data-name="Path 193" d="M13.146,4.656h2.34V0H10.83V2.34h2.316Z" transform="translate(7.793)" fill="#328250"/>
        <path id="Path_194-2" data-name="Path 194" d="M13.146,8.965v-7H10.83V13.621h2.316V8.965Z" transform="translate(7.793 2.686)" fill="#328250"/>
        <rect id="Rectangle_77-2" data-name="Rectangle 77" width="2.34" height="2.316" transform="translate(16.283 2.34)" fill="#328250"/>
        <path id="Path_195-2" data-name="Path 195" d="M8.86,4.31V8.965h2.316v-7H8.86Z" transform="translate(5.107 2.686)" fill="#328250"/>
        <path id="Path_196-2" data-name="Path 196" d="M9.206,7.246v2.34H6.89V11.9h4.656V4.93H9.206Z" transform="translate(2.421 6.721)" fill="#328250"/>
        <rect id="Rectangle_78-2" data-name="Rectangle 78" width="2.34" height="2.34" transform="translate(6.972 13.967)" fill="#328250"/>
        <path id="Path_197-2" data-name="Path 197" d="M7.606,4.93H2.95V9.586H5.29V7.246H9.922V4.93Z" transform="translate(-2.95 6.721)" fill="#328250"/>
        <path id="Path_198-2" data-name="Path 198" d="M5.29,11.2H2.95v2.316H9.922V8.86H7.606V11.2Z" transform="translate(-2.95 12.079)" fill="#328250"/>
        <path id="Path_199-2" data-name="Path 199" d="M3.94,11.532H6.256V6.9H3.94v4.632Z" transform="translate(-1.6 9.407)" fill="#328250"/>
      </g>
      <g id="Group_38-2" data-name="Group 38" transform="translate(0 18.623)">
        <path id="Path_200-2" data-name="Path 200" d="M39.116,10.83H34.46v2.34h6.972V10.83Z" transform="translate(46.98 -3.858)" fill="#5dbe83"/>
        <path id="Path_201-2" data-name="Path 201" d="M43.949,9.85H41.633v2.316h-7V9.85H32.321v2.316H20.67v2.34H46.265v-2.34H43.949Z" transform="translate(28.18 -5.194)" fill="#5dbe83"/>
        <path id="Path_202-2" data-name="Path 202" d="M34.906,12.536h-2.34v2.316H30.251V12.536h-2.34V10.2H25.595V7.88H20.939v4.656H18.6V10.2H16.283v2.34h-2.34v2.316H0v2.34H37.222v-2.34H34.906Z" transform="translate(0 -7.88)" fill="#5dbe83"/>
        <rect id="Rectangle_79-2" data-name="Rectangle 79" width="2.34" height="2.316" transform="translate(13.944)" fill="#5dbe83"/>
      </g>
    </g>
    <g id="BgPropGrass02-3" data-name="BgPropGrass02" transform="translate(1132.585 740.066)">
      <g id="Group_34-3" data-name="Group 34" transform="translate(13.944 9.311)">
        <path id="Path_172-3" data-name="Path 172" d="M26.58,6.9v4.632h2.34V6.9Z" transform="translate(22.294 0.095)" fill="#a3d39a"/>
        <rect id="Rectangle_65-3" data-name="Rectangle 65" width="2.316" height="2.34" transform="translate(46.557 11.628)" fill="#a3d39a"/>
        <rect id="Rectangle_66-3" data-name="Rectangle 66" width="2.34" height="2.316" transform="translate(44.218 13.967)" fill="#a3d39a"/>
        <path id="Path_173-3" data-name="Path 173" d="M13.78,10.2v2.34h2.34V7.88H13.78Z" transform="translate(4.843 1.431)" fill="#a3d39a"/>
        <rect id="Rectangle_67-3" data-name="Rectangle 67" width="2.34" height="2.34" transform="translate(9.311)" fill="#a3d39a"/>
        <path id="Path_174-3" data-name="Path 174" d="M8.86,7.246V11.9h2.316V4.93H8.86Z" transform="translate(-1.865 -2.59)" fill="#a3d39a"/>
        <rect id="Rectangle_68-3" data-name="Rectangle 68" width="2.34" height="2.34" transform="translate(0 11.628)" fill="#a3d39a"/>
      </g>
      <g id="Group_35-3" data-name="Group 35" transform="translate(11.628 11.651)">
        <path id="Path_175-3" data-name="Path 175" d="M37.492,14.852H35.176V12.536h-2.34V7.88H30.52v6.972h2.316v2.34h7v-2.34Z" transform="translate(29.981 -0.908)" fill="#4ca06b"/>
        <path id="Path_176-3" data-name="Path 176" d="M28.92,8.86H26.58v4.656h4.656V11.2H28.92Z" transform="translate(24.61 0.428)" fill="#4ca06b"/>
        <path id="Path_177-3" data-name="Path 177" d="M24.058,17.538H19.426V15.221h-2.34V5.91H14.77V17.538h2.316v2.34H28.714v-2.34H24.058Z" transform="translate(8.509 -3.594)" fill="#4ca06b"/>
        <path id="Path_178-3" data-name="Path 178" d="M11.81,8.86V11.2h2.34v2.316h2.316V8.86H11.81Z" transform="translate(4.473 0.428)" fill="#4ca06b"/>
        <path id="Path_179-3" data-name="Path 179" d="M14.5,9.586H12.18V4.93H9.84V11.9h2.34v2.316H14.5V9.586Z" transform="translate(1.788 -4.93)" fill="#4ca06b"/>
        <path id="Path_180-3" data-name="Path 180" d="M6.89,7.88V10.2H9.206v2.34h2.34V7.88H6.89Z" transform="translate(-2.234 -0.908)" fill="#4ca06b"/>
        <rect id="Rectangle_69-3" data-name="Rectangle 69" width="2.34" height="2.316" transform="translate(2.316 4.656)" fill="#4ca06b"/>
        <rect id="Rectangle_70-3" data-name="Rectangle 70" width="2.316" height="2.34" transform="translate(0 2.316)" fill="#4ca06b"/>
      </g>
      <g id="Group_36-3" data-name="Group 36" transform="translate(9.311 2.34)">
        <rect id="Rectangle_71-3" data-name="Rectangle 71" width="2.316" height="2.34" transform="translate(51.19 11.628)" fill="#d9eabe"/>
        <rect id="Rectangle_72-3" data-name="Rectangle 72" width="2.316" height="2.316" transform="translate(16.283)" fill="#d9eabe"/>
        <path id="Path_181-3" data-name="Path 181" d="M9.84,4.31V6.626h2.34V1.97H9.84Z" transform="translate(4.104 0.346)" fill="#d9eabe"/>
        <path id="Path_182-3" data-name="Path 182" d="M4.92,9.216v2.316H7.236V6.9H4.92Z" transform="translate(-2.604 7.067)" fill="#d9eabe"/>
        <rect id="Rectangle_73-3" data-name="Rectangle 73" width="2.316" height="2.34" transform="translate(0 11.628)" fill="#d9eabe"/>
      </g>
      <g id="Group_37-3" data-name="Group 37" transform="translate(6.972)">
        <path id="Path_183-3" data-name="Path 183" d="M34.806,9.85H32.49v2.316h4.656V9.85Z" transform="translate(37.323 13.429)" fill="#328250"/>
        <path id="Path_184-3" data-name="Path 184" d="M35.176,9.216V6.9H30.52V9.216h2.316v4.656h2.34V9.216Z" transform="translate(34.637 9.407)" fill="#328250"/>
        <path id="Path_185-3" data-name="Path 185" d="M29.54,10.2v2.34h2.316V7.88H29.54Z" transform="translate(33.301 10.743)" fill="#328250"/>
        <rect id="Rectangle_74-3" data-name="Rectangle 74" width="2.34" height="2.316" transform="translate(60.501 23.279)" fill="#328250"/>
        <path id="Path_186-3" data-name="Path 186" d="M29.886,9.216V6.9H27.57v6.972h2.316V9.216Z" transform="translate(30.615 9.407)" fill="#328250"/>
        <rect id="Rectangle_75-3" data-name="Rectangle 75" width="2.34" height="2.34" transform="translate(55.845 13.967)" fill="#328250"/>
        <path id="Path_187-3" data-name="Path 187" d="M25.6,9.216v2.316h2.316V6.9H25.6Z" transform="translate(27.929 9.407)" fill="#328250"/>
        <path id="Path_188-3" data-name="Path 188" d="M29.266,7.246V4.93H24.61V9.586h2.34V7.246Z" transform="translate(26.58 6.721)" fill="#328250"/>
        <rect id="Rectangle_76-3" data-name="Rectangle 76" width="2.34" height="2.34" transform="translate(51.19 20.939)" fill="#328250"/>
        <path id="Path_189-3" data-name="Path 189" d="M30.684,9.85H16.74v2.316h18.6V9.85H30.684Z" transform="translate(15.85 13.429)" fill="#328250"/>
        <path id="Path_190-3" data-name="Path 190" d="M19.426,11.9V4.93H14.77V7.246h2.316v9.311h2.34V11.9Z" transform="translate(13.164 6.721)" fill="#328250"/>
        <path id="Path_191-3" data-name="Path 191" d="M13.78,8.25v2.316h2.34V5.91H13.78Z" transform="translate(11.815 8.057)" fill="#328250"/>
        <path id="Path_192-3" data-name="Path 192" d="M14.15,6.9H11.81v4.632h4.656V9.216H14.15Z" transform="translate(9.129 9.407)" fill="#328250"/>
        <path id="Path_193-3" data-name="Path 193" d="M13.146,4.656h2.34V0H10.83V2.34h2.316Z" transform="translate(7.793)" fill="#328250"/>
        <path id="Path_194-3" data-name="Path 194" d="M13.146,8.965v-7H10.83V13.621h2.316V8.965Z" transform="translate(7.793 2.686)" fill="#328250"/>
        <rect id="Rectangle_77-3" data-name="Rectangle 77" width="2.34" height="2.316" transform="translate(16.283 2.34)" fill="#328250"/>
        <path id="Path_195-3" data-name="Path 195" d="M8.86,4.31V8.965h2.316v-7H8.86Z" transform="translate(5.107 2.686)" fill="#328250"/>
        <path id="Path_196-3" data-name="Path 196" d="M9.206,7.246v2.34H6.89V11.9h4.656V4.93H9.206Z" transform="translate(2.421 6.721)" fill="#328250"/>
        <rect id="Rectangle_78-3" data-name="Rectangle 78" width="2.34" height="2.34" transform="translate(6.972 13.967)" fill="#328250"/>
        <path id="Path_197-3" data-name="Path 197" d="M7.606,4.93H2.95V9.586H5.29V7.246H9.922V4.93Z" transform="translate(-2.95 6.721)" fill="#328250"/>
        <path id="Path_198-3" data-name="Path 198" d="M5.29,11.2H2.95v2.316H9.922V8.86H7.606V11.2Z" transform="translate(-2.95 12.079)" fill="#328250"/>
        <path id="Path_199-3" data-name="Path 199" d="M3.94,11.532H6.256V6.9H3.94v4.632Z" transform="translate(-1.6 9.407)" fill="#328250"/>
      </g>
      <g id="Group_38-3" data-name="Group 38" transform="translate(0 18.623)">
        <path id="Path_200-3" data-name="Path 200" d="M39.116,10.83H34.46v2.34h6.972V10.83Z" transform="translate(46.98 -3.858)" fill="#5dbe83"/>
        <path id="Path_201-3" data-name="Path 201" d="M43.949,9.85H41.633v2.316h-7V9.85H32.321v2.316H20.67v2.34H46.265v-2.34H43.949Z" transform="translate(28.18 -5.194)" fill="#5dbe83"/>
        <path id="Path_202-3" data-name="Path 202" d="M34.906,12.536h-2.34v2.316H30.251V12.536h-2.34V10.2H25.595V7.88H20.939v4.656H18.6V10.2H16.283v2.34h-2.34v2.316H0v2.34H37.222v-2.34H34.906Z" transform="translate(0 -7.88)" fill="#5dbe83"/>
        <rect id="Rectangle_79-3" data-name="Rectangle 79" width="2.34" height="2.316" transform="translate(13.944)" fill="#5dbe83"/>
      </g>
    </g>
    <g id="Ground" transform="translate(19 17.996)">
      <path id="Path_167" data-name="Path 167" d="M240.2,6.863V4.85H6.79V8.876H240.2Z" transform="translate(1106.795 745.154)" fill="#8d5a0e"/>
      <path id="Path_168" data-name="Path 168" d="M10.816,11.835V4.85H6.79V18.82h4.026Z" transform="translate(1102.769 749.18)" fill="#8d5a0e"/>
      <path id="Path_171" data-name="Path 171" d="M240.2,11.835V4.85H6.79V18.82H240.2Z" transform="translate(1106.795 749.18)" fill="#c6813b"/>
      <path id="Path_170" data-name="Path 170" d="M10.816,11.835V4.85H6.79V18.82h4.026Z" transform="translate(1340.21 749.18)" fill="#8d5a0e"/>
    </g>
    <g id="fist" transform="translate(21)">
      <path id="Path_123" data-name="Path 123" d="M22.592,7.906V3.88H14.54V7.906h8.052Z" transform="translate(1237.705 732.823)" fill="#e48bba"/>
      <path id="Path_129" data-name="Path 129" d="M22.592,11.958V3.88H14.54v8.078h8.052Z" transform="translate(1237.627 736.823)" fill="#fdeef5"/>
      <path id="Path_125" data-name="Path 125" d="M22.592,7.906V3.88H14.54V7.906h8.052Z" transform="translate(1237.705 744.901)" fill="#e48bba"/>
      <path id="Path_124" data-name="Path 124" d="M17.6,8.876V4.85H13.57V12.9H17.6Z" transform="translate(1234.649 735.879)" fill="#e48bba"/>
      <path id="Path_127" data-name="Path 127" d="M17.6,8.876V4.85H13.57V12.9H17.6Z" transform="translate(1246.649 735.879)" fill="#e48bba"/>
    </g>
  </g>
</svg>
