<svg xmlns="http://www.w3.org/2000/svg" width="27.483" height="27.468" viewBox="0 0 27.483 27.468">
  <g id="CrossSign" transform="translate(-897.517 -251.24)">
    <path id="Union_5" data-name="Union 5" d="M14.991,22.487V0h2.5V0h2.5V2.5h2.5v5h-2.5v2.5h-2.5v2.5h2.5v2.5h2.5v5h-2.5v2.5Zm-12.492,0v-2.5h5v2.5Zm9.994-2.5V2.5h2.5v17.49Zm-5,0V2.5h2.5V5h2.5V17.49h-2.5v2.5Zm-2.5,0H2.5v-2.5h0v2.5H0v-5H2.5v-2.5H5v-2.5H7.5v9.994ZM5,9.995H2.5V7.5H0v-5H2.5V0h5V9.995Z" transform="translate(900.015 253.738)" fill="#fff"/>
    <path id="Union_6" data-name="Union 6" d="M17.489,27.468V24.986h-2.5v-2.5h-2.5v-2.5h2.5v2.5h2.5v2.482h5V22.487h2.5v2.5h-2.5v2.482ZM5,27.468v-2.5H2.5v-2.5H.017V17.49h2.5v4.98H5v2.5h5v2.5Zm5-2.482v-2.5h2.5v2.5Zm14.99-2.5v-5h2.5v5Zm-2.514-5v-2.5h2.5v2.5Zm-19.956,0v-2.5h2.5v2.5Zm17.474-2.5v-2.5h2.5v2.5ZM5,14.959V12.493H2.5v-2.5H5V12.46H7.5v2.5Zm17.49-2.466v-2.5h2.5v2.5Zm2.5-2.5V5.014h-2.5v-2.5h2.5V5h2.5v5Zm-24.969,0V7.5h2.5v2.5ZM12.492,7.5V5h2.5V7.5ZM0,7.5V5H2.5V7.5ZM14.991,5.014v-2.5h2.5v2.5Zm-12.476,0v-2.5h2.5v2.5ZM9.994,5V2.515h2.5V5ZM5,2.515V.016H7.5V0h2.5V2.5H7.5v.016ZM17.489,2.5V0h5V2.5Z" transform="translate(897.517 251.24)" fill="#c6813b"/>
  </g>
</svg>
