<?xml version="1.0" encoding="utf-8"?>
<!-- Generator: Adobe Illustrator 26.5.0, SVG Export Plug-In . SVG Version: 6.00 Build 0)  -->
<svg version="1.1" id="Layer_1" xmlns="http://www.w3.org/2000/svg" xmlns:xlink="http://www.w3.org/1999/xlink" x="0px" y="0px"
	 viewBox="0 0 393.89 393.89" style="enable-background:new 0 0 393.89 393.89;" xml:space="preserve">
<style type="text/css">
	.st0{fill:#AE9AAF;}
	.st1{fill:#F8E7F0;}
	.st2{fill:#8BBAE5;}
	.st3{fill:#F6D0E4;}
	.st4{fill:#D49FC8;}
	.st5{fill:#E8B8D6;}
	.st6{fill:#A58EA5;}
	.st7{fill:#DAA6CC;}
	.st8{fill:#CD90BF;}
	.st9{fill:#876E86;}
	.st10{fill:#A7D8F6;}
	.st11{fill:#4F67AE;}
	.st12{fill:#8AB1DF;}
	.st13{fill:#FFF9DE;}
	.st14{fill:#7A78A8;}
	.st15{fill:#4559A5;}
	.st16{fill:#F5B6D4;}
	.st17{fill:#E8B4AA;}
	.st18{fill:#8FA0D2;}
	.st19{fill:#EB94BF;}
	.st20{fill:#E09A90;}
	.st21{fill:#F0F6E3;}
	.st22{fill:#DD8AB3;}
	.st23{fill:#E3F4FE;}
	.st24{fill:#D0E3EA;}
	.st25{fill:#E5F2F1;}
	.st26{fill:#FBC88C;}
	.st27{fill:#8F89C2;}
</style>
<g>
	<polygon class="st0" points="368.51,44.98 358.7,44.98 358.7,54.78 368.51,54.78 378.31,54.78 378.31,44.98 	"/>
	<g>
		<rect x="368.51" y="54.78" class="st1" width="9.8" height="9.81"/>
		<rect x="358.7" y="64.59" class="st1" width="9.81" height="9.8"/>
		<rect x="348.9" y="74.39" class="st1" width="9.8" height="9.8"/>
		<rect x="339.1" y="84.19" class="st1" width="9.8" height="9.81"/>
		<rect x="329.29" y="94" class="st1" width="9.81" height="9.8"/>
	</g>
	<rect x="309.69" y="241.06" class="st2" width="9.8" height="9.8"/>
	<rect x="309.69" y="231.25" class="st2" width="9.8" height="9.81"/>
	<g>
		<polygon class="st3" points="368.51,64.59 368.51,74.39 358.7,74.39 358.7,84.19 348.9,84.19 348.9,94 358.7,94 368.51,94 
			378.31,94 378.31,84.19 378.31,74.39 378.31,64.59 		"/>
		<rect x="358.7" y="54.78" class="st3" width="9.81" height="9.81"/>
		<polygon class="st3" points="358.7,74.39 358.7,64.59 348.9,64.59 339.1,64.59 339.1,74.39 339.1,84.19 348.9,84.19 348.9,74.39 
					"/>
		<rect x="319.49" y="103.8" class="st3" width="9.8" height="9.81"/>
		<rect x="309.69" y="113.61" class="st3" width="9.8" height="9.8"/>
		<rect x="299.88" y="123.41" class="st3" width="9.81" height="9.8"/>
	</g>
	<g>
		<polygon class="st4" points="319.49,123.41 309.69,123.41 309.69,133.21 319.49,133.21 329.29,133.21 329.29,123.41 		"/>
		<polygon class="st4" points="309.69,103.8 309.69,94 299.88,94 299.88,103.8 299.88,113.61 299.88,123.41 309.69,123.41 
			309.69,113.61 		"/>
	</g>
	<g>
		<polygon class="st5" points="358.7,94 348.9,94 339.1,94 339.1,103.8 348.9,103.8 358.7,103.8 368.51,103.8 368.51,94 		"/>
		<polygon class="st5" points="339.1,74.39 329.29,74.39 329.29,84.19 329.29,94 339.1,94 339.1,84.19 		"/>
		<rect x="290.08" y="133.21" class="st5" width="9.8" height="9.81"/>
		<rect x="280.27" y="143.02" class="st5" width="9.81" height="9.8"/>
		<rect x="270.47" y="152.82" class="st5" width="9.8" height="9.81"/>
	</g>
	<g>
		<polygon class="st6" points="378.31,54.78 378.31,64.59 378.31,74.39 378.31,84.19 378.31,94 388.12,94 388.12,84.19 
			388.12,74.39 388.12,64.59 388.12,54.78 		"/>
		<polygon class="st6" points="339.1,54.78 339.1,64.59 348.9,64.59 358.7,64.59 358.7,54.78 348.9,54.78 		"/>
		<polygon class="st6" points="319.49,64.59 319.49,74.39 329.29,74.39 339.1,74.39 339.1,64.59 329.29,64.59 		"/>
		<rect x="309.69" y="74.39" class="st6" width="9.8" height="9.8"/>
		<rect x="299.88" y="84.19" class="st6" width="9.81" height="9.81"/>
		<rect x="290.08" y="94" class="st6" width="9.8" height="9.8"/>
		<polygon class="st6" points="280.27,113.61 280.27,123.41 290.08,123.41 290.08,113.61 290.08,103.8 280.27,103.8 		"/>
		<polygon class="st6" points="270.47,133.21 270.47,143.02 280.27,143.02 280.27,133.21 280.27,123.41 270.47,123.41 		"/>
	</g>
	<g>
		<polygon class="st7" points="358.7,103.8 348.9,103.8 339.1,103.8 329.29,103.8 329.29,113.61 319.49,113.61 319.49,123.41 
			329.29,123.41 329.29,133.21 339.1,133.21 339.1,123.41 348.9,123.41 358.7,123.41 358.7,113.61 368.51,113.61 368.51,103.8 		"/>
		<polygon class="st7" points="329.29,103.8 329.29,94 329.29,84.19 329.29,74.39 319.49,74.39 319.49,84.19 309.69,84.19 
			309.69,94 309.69,103.8 309.69,113.61 319.49,113.61 319.49,103.8 		"/>
		<rect x="260.67" y="162.63" class="st7" width="9.8" height="9.8"/>
	</g>
	<g>
		<polygon class="st8" points="309.69,133.21 299.88,133.21 299.88,143.02 309.69,143.02 319.49,143.02 319.49,133.21 		"/>
		<rect x="290.08" y="143.02" class="st8" width="9.8" height="9.8"/>
		<polygon class="st8" points="299.88,133.21 299.88,123.41 299.88,113.61 299.88,103.8 290.08,103.8 290.08,113.61 290.08,123.41 
			280.27,123.41 280.27,133.21 280.27,143.02 290.08,143.02 290.08,133.21 		"/>
		<rect x="270.47" y="143.02" class="st8" width="9.8" height="9.8"/>
		<rect x="250.86" y="172.43" class="st8" width="9.81" height="9.8"/>
	</g>
	<g>
		<polygon class="st9" points="368.51,94 368.51,103.8 368.51,113.61 378.31,113.61 378.31,103.8 378.31,94 		"/>
		<rect x="358.7" y="113.61" class="st9" width="9.81" height="9.8"/>
		<polygon class="st9" points="339.1,123.41 339.1,133.21 348.9,133.21 358.7,133.21 358.7,123.41 348.9,123.41 		"/>
		<polygon class="st9" points="319.49,133.21 319.49,143.02 329.29,143.02 339.1,143.02 339.1,133.21 329.29,133.21 		"/>
		<polygon class="st9" points="299.88,143.02 299.88,152.82 309.69,152.82 319.49,152.82 319.49,143.02 309.69,143.02 		"/>
		<polygon class="st9" points="280.27,152.82 280.27,162.63 290.08,162.63 299.88,162.63 299.88,152.82 290.08,152.82 		"/>
		<rect x="270.47" y="162.63" class="st9" width="9.8" height="9.8"/>
		<rect x="260.67" y="172.43" class="st9" width="9.8" height="9.8"/>
		<polygon class="st9" points="270.47,152.82 270.47,143.02 260.67,143.02 260.67,152.82 260.67,162.63 270.47,162.63 		"/>
		<rect x="250.86" y="162.63" class="st9" width="9.81" height="9.8"/>
		<polygon class="st9" points="250.86,172.43 241.06,172.43 241.06,182.23 241.06,192.04 250.86,192.04 260.67,192.04 
			260.67,182.23 250.86,182.23 		"/>
		<rect x="231.25" y="192.04" class="st9" width="9.81" height="9.8"/>
	</g>
	<g>
		<polygon class="st10" points="299.88,211.65 299.88,221.45 299.88,231.25 309.69,231.25 309.69,221.45 309.69,211.65 		"/>
		<polygon class="st10" points="299.88,192.04 290.08,192.04 290.08,201.84 290.08,211.65 299.88,211.65 299.88,201.84 		"/>
		<polygon class="st10" points="290.08,172.43 280.27,172.43 280.27,182.23 280.27,192.04 290.08,192.04 290.08,182.23 		"/>
		<rect x="260.67" y="133.21" class="st10" width="9.8" height="9.81"/>
		<polygon class="st10" points="260.67,113.61 250.86,113.61 250.86,123.41 250.86,133.21 260.67,133.21 260.67,123.41 		"/>
		<polygon class="st10" points="250.86,94 241.06,94 241.06,103.8 241.06,113.61 250.86,113.61 250.86,103.8 		"/>
		<polygon class="st10" points="241.06,74.39 231.25,74.39 231.25,84.19 231.25,94 241.06,94 241.06,84.19 		"/>
		<polygon class="st10" points="221.45,64.59 211.65,64.59 211.65,74.39 221.45,74.39 231.25,74.39 231.25,64.59 		"/>
	</g>
	<g>
		<polygon class="st11" points="280.27,241.06 270.47,241.06 260.67,241.06 260.67,250.86 270.47,250.86 280.27,250.86 
			290.08,250.86 290.08,241.06 		"/>
		<polygon class="st11" points="270.47,231.25 270.47,221.45 260.67,221.45 250.86,221.45 250.86,231.25 260.67,231.25 		"/>
		<polygon class="st11" points="211.65,123.41 211.65,133.21 221.45,133.21 231.25,133.21 231.25,123.41 221.45,123.41 		"/>
		<polygon class="st11" points="201.84,211.65 201.84,221.45 211.65,221.45 221.45,221.45 221.45,211.65 211.65,211.65 		"/>
		<polygon class="st11" points="201.84,182.23 201.84,192.04 211.65,192.04 221.45,192.04 221.45,182.23 211.65,182.23 		"/>
		<rect x="201.84" y="133.21" class="st11" width="9.81" height="9.81"/>
		<polygon class="st11" points="182.23,192.04 182.23,201.84 192.04,201.84 201.84,201.84 201.84,192.04 192.04,192.04 		"/>
	</g>
	<g>
		<rect x="329.29" y="270.47" class="st12" width="9.81" height="9.8"/>
		<polygon class="st12" points="329.29,250.86 319.49,250.86 319.49,260.67 319.49,270.47 329.29,270.47 329.29,260.67 		"/>
		<polygon class="st12" points="309.69,280.27 299.88,280.27 299.88,290.08 309.69,290.08 319.49,290.08 329.29,290.08 
			329.29,280.27 319.49,280.27 		"/>
		<polygon class="st12" points="192.04,74.39 182.23,74.39 182.23,84.19 192.04,84.19 201.84,84.19 211.65,84.19 211.65,74.39 
			201.84,74.39 		"/>
		<polygon class="st12" points="162.63,84.19 152.82,84.19 152.82,94 162.63,94 172.43,94 182.23,94 182.23,84.19 172.43,84.19 		
			"/>
	</g>
	<g>
		<rect x="270.47" y="172.43" class="st13" width="9.8" height="9.8"/>
		<polygon class="st13" points="250.86,143.02 250.86,152.82 260.67,152.82 260.67,143.02 260.67,133.21 250.86,133.21 		"/>
		<rect x="241.06" y="113.61" class="st13" width="9.8" height="9.8"/>
		<polygon class="st13" points="241.06,94 231.25,94 231.25,103.8 231.25,113.61 241.06,113.61 241.06,103.8 		"/>
		<polygon class="st13" points="231.25,74.39 221.45,74.39 211.65,74.39 211.65,84.19 221.45,84.19 221.45,94 231.25,94 
			231.25,84.19 		"/>
		<polygon class="st13" points="192.04,84.19 182.23,84.19 182.23,94 192.04,94 201.84,94 211.65,94 211.65,84.19 201.84,84.19 		
			"/>
		<polygon class="st13" points="162.63,94 152.82,94 152.82,103.8 162.63,103.8 172.43,103.8 182.23,103.8 182.23,94 172.43,94 		
			"/>
		<rect x="143.02" y="103.8" class="st13" width="9.8" height="9.81"/>
	</g>
	<g>
		<polygon class="st14" points="201.84,319.49 192.04,319.49 182.23,319.49 182.23,329.29 192.04,329.29 201.84,329.29 
			211.65,329.29 211.65,319.49 		"/>
		<polygon class="st14" points="162.63,329.29 152.82,329.29 152.82,339.1 162.63,339.1 172.43,339.1 182.23,339.1 182.23,329.29 
			172.43,329.29 		"/>
		<polygon class="st14" points="152.82,309.69 152.82,299.88 143.02,299.88 143.02,309.69 143.02,319.49 143.02,329.29 
			152.82,329.29 152.82,319.49 		"/>
		<polygon class="st14" points="143.02,280.27 133.21,280.27 133.21,290.08 133.21,299.88 143.02,299.88 143.02,290.08 		"/>
	</g>
	<g>
		<polygon class="st15" points="250.86,250.86 241.06,250.86 241.06,260.67 250.86,260.67 260.67,260.67 260.67,250.86 		"/>
		<rect x="231.25" y="260.67" class="st15" width="9.81" height="9.8"/>
		<rect x="221.45" y="143.02" class="st15" width="9.8" height="9.8"/>
		<rect x="192.04" y="133.21" class="st15" width="9.8" height="9.81"/>
		<polygon class="st15" points="182.23,221.45 182.23,231.25 192.04,231.25 201.84,231.25 201.84,221.45 192.04,221.45 		"/>
		<polygon class="st15" points="182.23,211.65 182.23,201.84 172.43,201.84 162.63,201.84 162.63,211.65 172.43,211.65 		"/>
		<polygon class="st15" points="162.63,231.25 162.63,241.06 172.43,241.06 182.23,241.06 182.23,231.25 172.43,231.25 		"/>
		<polygon class="st15" points="162.63,211.65 152.82,211.65 143.02,211.65 133.21,211.65 133.21,221.45 143.02,221.45 
			152.82,221.45 162.63,221.45 		"/>
	</g>
	<g>
		<rect x="172.43" y="152.82" class="st16" width="9.8" height="9.81"/>
		<rect x="162.63" y="143.02" class="st16" width="9.8" height="9.8"/>
		<rect x="152.82" y="133.21" class="st16" width="9.81" height="9.81"/>
		<polygon class="st16" points="143.02,123.41 133.21,123.41 133.21,133.21 143.02,133.21 152.82,133.21 152.82,123.41 		"/>
	</g>
	<polygon class="st17" points="162.63,152.82 162.63,143.02 152.82,143.02 152.82,133.21 143.02,133.21 133.21,133.21 
		133.21,143.02 123.41,143.02 123.41,152.82 133.21,152.82 133.21,162.63 143.02,162.63 152.82,162.63 162.63,162.63 172.43,162.63 
		172.43,152.82 	"/>
	<g>
		<polygon class="st18" points="290.08,290.08 280.27,290.08 270.47,290.08 270.47,299.88 280.27,299.88 290.08,299.88 
			299.88,299.88 299.88,290.08 		"/>
		<polygon class="st18" points="133.21,94 123.41,94 123.41,103.8 133.21,103.8 143.02,103.8 152.82,103.8 152.82,94 143.02,94 		
			"/>
	</g>
	<g>
		<polygon class="st19" points="162.63,162.63 152.82,162.63 152.82,172.43 162.63,172.43 172.43,172.43 172.43,162.63 		"/>
		<polygon class="st19" points="113.61,133.21 113.61,143.02 123.41,143.02 133.21,143.02 133.21,133.21 123.41,133.21 		"/>
	</g>
	<polygon class="st20" points="143.02,162.63 133.21,162.63 133.21,152.82 123.41,152.82 123.41,143.02 113.61,143.02 
		113.61,152.82 103.8,152.82 103.8,162.63 113.61,162.63 113.61,172.43 123.41,172.43 123.41,182.23 133.21,182.23 133.21,172.43 
		143.02,172.43 152.82,172.43 152.82,162.63 	"/>
	<g>
		<polygon class="st21" points="280.27,192.04 280.27,201.84 280.27,211.65 290.08,211.65 290.08,201.84 290.08,192.04 		"/>
		<rect x="270.47" y="182.23" class="st21" width="9.8" height="9.81"/>
		<polygon class="st21" points="123.41,103.8 123.41,113.61 133.21,113.61 143.02,113.61 143.02,103.8 133.21,103.8 		"/>
		<polygon class="st21" points="103.8,113.61 103.8,123.41 113.61,123.41 123.41,123.41 123.41,113.61 113.61,113.61 		"/>
	</g>
	<g>
		<polygon class="st22" points="143.02,172.43 133.21,172.43 133.21,182.23 143.02,182.23 152.82,182.23 152.82,172.43 		"/>
		<rect x="123.41" y="182.23" class="st22" width="9.8" height="9.81"/>
		<rect x="113.61" y="172.43" class="st22" width="9.8" height="9.8"/>
		<rect x="103.8" y="162.63" class="st22" width="9.81" height="9.8"/>
		<polygon class="st22" points="113.61,152.82 113.61,143.02 103.8,143.02 94,143.02 94,152.82 94,162.63 103.8,162.63 
			103.8,152.82 		"/>
	</g>
	<g>
		<polygon class="st23" points="290.08,231.25 290.08,221.45 290.08,211.65 280.27,211.65 280.27,201.84 280.27,192.04 
			270.47,192.04 270.47,182.23 260.67,182.23 260.67,192.04 250.86,192.04 241.06,192.04 241.06,201.84 241.06,211.65 
			241.06,221.45 241.06,231.25 250.86,231.25 250.86,221.45 260.67,221.45 270.47,221.45 270.47,231.25 260.67,231.25 
			250.86,231.25 250.86,241.06 250.86,250.86 260.67,250.86 260.67,241.06 270.47,241.06 280.27,241.06 290.08,241.06 
			290.08,250.86 299.88,250.86 299.88,241.06 299.88,231.25 		"/>
		<polygon class="st23" points="270.47,250.86 260.67,250.86 260.67,260.67 270.47,260.67 280.27,260.67 290.08,260.67 
			290.08,250.86 280.27,250.86 		"/>
		<path class="st23" d="M241.06,172.43h9.8v-9.8h9.81v-9.81h-9.81v-9.8v-9.81v-9.8h-9.8v-9.8h-9.81v-9.81V94h-9.8v-9.81h-9.8V94
			h-9.81h-9.8h-9.81v9.8h-9.8h-9.8h-9.81v9.81h-9.8h-9.81h-9.8v9.8h-9.8h-9.81H94v9.8h-9.81v9.81v9.8H94v-9.8h9.8h9.81v-9.81h9.8
			h9.8v-9.8h9.81h9.8v9.8h9.81v9.81h9.8v9.8h9.8v9.81h-9.8v9.8h-9.8h-9.81v9.8h-9.8h-9.81v9.81h-9.8v-9.81h-9.8v-9.8h-9.81v9.8v9.81
			h9.81v9.8v9.81h9.8v9.8v9.8h9.8v9.81v9.8h9.81v9.81h9.8v9.8h9.81v9.8h9.8v9.81h9.8h9.81h9.8v-9.81h9.81h9.8v-9.8v-9.8v-9.81v-9.8
			v-9.81v-9.8h-9.8h-9.81v9.8h-9.8h-9.81v9.81h-9.8h-9.8v-9.81h9.8h9.8v-9.8h9.81h9.8v-9.8h9.81h9.8v9.8h9.8v-9.8v-9.81v-9.8h9.81
			v-9.81V172.43z M221.45,143.02h9.8v9.8h-9.8V143.02z M231.25,133.21h-9.8h-9.8v9.81h-9.81h-9.8v-9.81h9.8h9.81v-9.8h9.8h9.8
			V133.21z M211.65,192.04h-9.81v9.8h-9.8h-9.81v9.81h-9.8h-9.8v9.8h-9.81h-9.8h-9.81v-9.8h9.81h9.8h9.81v-9.81h9.8h9.8v-9.8h9.81
			h9.8v-9.81h9.81h9.8v9.81H211.65z"/>
		<rect x="94" y="162.63" class="st23" width="9.8" height="9.8"/>
	</g>
	<g>
		<polygon class="st24" points="319.49,270.47 319.49,260.67 319.49,250.86 309.69,250.86 299.88,250.86 290.08,250.86 
			290.08,260.67 280.27,260.67 270.47,260.67 260.67,260.67 250.86,260.67 241.06,260.67 241.06,270.47 231.25,270.47 
			231.25,260.67 241.06,260.67 241.06,250.86 250.86,250.86 250.86,241.06 250.86,231.25 241.06,231.25 241.06,221.45 
			241.06,211.65 241.06,201.84 231.25,201.84 231.25,211.65 231.25,221.45 221.45,221.45 221.45,231.25 221.45,241.06 
			221.45,250.86 221.45,260.67 221.45,270.47 221.45,280.27 211.65,280.27 201.84,280.27 201.84,290.08 192.04,290.08 
			182.23,290.08 172.43,290.08 172.43,280.27 162.63,280.27 162.63,270.47 152.82,270.47 152.82,260.67 143.02,260.67 
			143.02,250.86 133.21,250.86 133.21,241.06 133.21,231.25 123.41,231.25 123.41,221.45 123.41,211.65 113.61,211.65 
			113.61,221.45 113.61,231.25 113.61,241.06 123.41,241.06 123.41,250.86 123.41,260.67 133.21,260.67 133.21,270.47 
			133.21,280.27 143.02,280.27 143.02,290.08 143.02,299.88 152.82,299.88 152.82,309.69 152.82,319.49 152.82,329.29 
			162.63,329.29 172.43,329.29 182.23,329.29 182.23,319.49 192.04,319.49 201.84,319.49 211.65,319.49 211.65,309.69 
			221.45,309.69 231.25,309.69 241.06,309.69 241.06,299.88 250.86,299.88 260.67,299.88 270.47,299.88 270.47,290.08 
			280.27,290.08 290.08,290.08 299.88,290.08 299.88,280.27 309.69,280.27 319.49,280.27 329.29,280.27 329.29,270.47 		"/>
		<rect x="103.8" y="192.04" class="st24" width="9.81" height="9.8"/>
		<rect x="94" y="172.43" class="st24" width="9.8" height="9.8"/>
		<rect x="84.19" y="152.82" class="st24" width="9.81" height="9.81"/>
		<rect x="74.39" y="133.21" class="st24" width="9.8" height="9.81"/>
	</g>
	<g>
		<polygon class="st25" points="299.88,231.25 299.88,241.06 299.88,250.86 309.69,250.86 309.69,241.06 309.69,231.25 		"/>
		<polygon class="st25" points="299.88,211.65 290.08,211.65 290.08,221.45 290.08,231.25 299.88,231.25 299.88,221.45 		"/>
		<rect x="94" y="113.61" class="st25" width="9.8" height="9.8"/>
		<polygon class="st25" points="74.39,123.41 74.39,133.21 84.19,133.21 94,133.21 94,123.41 84.19,123.41 		"/>
	</g>
	<g>
		<polygon class="st24" points="103.8,201.84 103.8,211.65 103.8,221.45 113.61,221.45 113.61,211.65 113.61,201.84 		"/>
		<polygon class="st24" points="103.8,182.23 94,182.23 94,192.04 94,201.84 103.8,201.84 103.8,192.04 		"/>
		<polygon class="st24" points="94,162.63 84.19,162.63 84.19,172.43 84.19,182.23 94,182.23 94,172.43 		"/>
		<polygon class="st24" points="84.19,143.02 74.39,143.02 74.39,152.82 74.39,162.63 84.19,162.63 84.19,152.82 		"/>
		<polygon class="st24" points="74.39,123.41 64.59,123.41 64.59,133.21 64.59,143.02 74.39,143.02 74.39,133.21 		"/>
	</g>
	<g>
		<polygon class="st26" points="319.49,290.08 309.69,290.08 299.88,290.08 299.88,299.88 309.69,299.88 319.49,299.88 
			329.29,299.88 329.29,290.08 		"/>
		<polygon class="st26" points="280.27,299.88 270.47,299.88 270.47,309.69 280.27,309.69 290.08,309.69 299.88,309.69 
			299.88,299.88 290.08,299.88 		"/>
		<polygon class="st26" points="250.86,309.69 241.06,309.69 241.06,319.49 250.86,319.49 260.67,319.49 270.47,319.49 
			270.47,309.69 260.67,309.69 		"/>
		<polygon class="st26" points="221.45,319.49 211.65,319.49 211.65,329.29 221.45,329.29 231.25,329.29 241.06,329.29 
			241.06,319.49 231.25,319.49 		"/>
		<polygon class="st26" points="192.04,329.29 182.23,329.29 182.23,339.1 192.04,339.1 201.84,339.1 211.65,339.1 211.65,329.29 
			201.84,329.29 		"/>
		<polygon class="st26" points="162.63,339.1 152.82,339.1 152.82,329.29 143.02,329.29 143.02,319.49 143.02,309.69 143.02,299.88 
			133.21,299.88 133.21,290.08 133.21,280.27 123.41,280.27 123.41,270.47 123.41,260.67 113.61,260.67 113.61,250.86 
			113.61,241.06 103.8,241.06 103.8,231.25 103.8,221.45 94,221.45 94,211.65 94,201.84 84.19,201.84 84.19,192.04 84.19,182.23 
			74.39,182.23 74.39,172.43 74.39,162.63 64.59,162.63 64.59,152.82 64.59,143.02 54.78,143.02 54.78,152.82 54.78,162.63 
			54.78,172.43 64.59,172.43 64.59,182.23 64.59,192.04 74.39,192.04 74.39,201.84 74.39,211.65 84.19,211.65 84.19,221.45 
			84.19,231.25 94,231.25 94,241.06 94,250.86 103.8,250.86 103.8,260.67 103.8,270.47 113.61,270.47 113.61,280.27 113.61,290.08 
			123.41,290.08 123.41,299.88 123.41,309.69 133.21,309.69 133.21,319.49 133.21,329.29 133.21,339.1 143.02,339.1 143.02,348.9 
			152.82,348.9 162.63,348.9 172.43,348.9 182.23,348.9 182.23,339.1 172.43,339.1 		"/>
	</g>
	<g>
		<polygon class="st27" points="260.67,299.88 250.86,299.88 241.06,299.88 241.06,309.69 250.86,309.69 260.67,309.69 
			270.47,309.69 270.47,299.88 		"/>
		<polygon class="st27" points="221.45,309.69 211.65,309.69 211.65,319.49 221.45,319.49 231.25,319.49 241.06,319.49 
			241.06,309.69 231.25,309.69 		"/>
		<polygon class="st27" points="123.41,270.47 123.41,280.27 133.21,280.27 133.21,270.47 133.21,260.67 123.41,260.67 		"/>
		<polygon class="st27" points="123.41,241.06 113.61,241.06 113.61,250.86 113.61,260.67 123.41,260.67 123.41,250.86 		"/>
		<polygon class="st27" points="113.61,221.45 103.8,221.45 103.8,231.25 103.8,241.06 113.61,241.06 113.61,231.25 		"/>
		<polygon class="st27" points="113.61,113.61 123.41,113.61 123.41,103.8 113.61,103.8 103.8,103.8 94,103.8 94,113.61 
			103.8,113.61 		"/>
		<polygon class="st27" points="103.8,201.84 94,201.84 94,211.65 94,221.45 103.8,221.45 103.8,211.65 		"/>
		<polygon class="st27" points="94,182.23 84.19,182.23 84.19,192.04 84.19,201.84 94,201.84 94,192.04 		"/>
		<polygon class="st27" points="84.19,162.63 74.39,162.63 74.39,172.43 74.39,182.23 84.19,182.23 84.19,172.43 		"/>
		<polygon class="st27" points="84.19,123.41 94,123.41 94,113.61 84.19,113.61 74.39,113.61 64.59,113.61 64.59,123.41 
			74.39,123.41 		"/>
		<polygon class="st27" points="74.39,143.02 64.59,143.02 64.59,152.82 64.59,162.63 74.39,162.63 74.39,152.82 		"/>
		<polygon class="st27" points="64.59,123.41 54.78,123.41 54.78,133.21 54.78,143.02 64.59,143.02 64.59,133.21 		"/>
	</g>
</g>
</svg>
