<?xml version="1.0" encoding="utf-8"?>
<!-- Generator: Adobe Illustrator 26.5.0, SVG Export Plug-In . SVG Version: 6.00 Build 0)  -->
<svg version="1.1" id="Layer_1" xmlns="http://www.w3.org/2000/svg" xmlns:xlink="http://www.w3.org/1999/xlink" x="0px" y="0px"
	 viewBox="0 0 32 11.63" style="enable-background:new 0 0 32 11.63;" xml:space="preserve">
<style type="text/css">
	.st0{fill:#CE996A;}
	.st1{fill:#FFF3DF;}
	.st2{fill:#C6813A;}
</style>
<g>
	<g>
		<rect x="28.12" y="0.97" class="st0" width="0.97" height="0.97"/>
		<rect x="22.3" y="0.97" class="st0" width="0.97" height="0.97"/>
		<polygon class="st0" points="19.39,0.97 18.42,0.97 17.45,0.97 16.48,0.97 15.52,0.97 14.55,0.97 13.58,0.97 12.61,0.97 
			11.64,0.97 10.67,0.97 9.7,0.97 8.73,0.97 7.76,0.97 6.79,0.97 6.79,1.94 7.76,1.94 8.73,1.94 9.7,1.94 10.67,1.94 11.64,1.94 
			12.61,1.94 13.58,1.94 14.55,1.94 15.52,1.94 16.48,1.94 17.45,1.94 18.42,1.94 19.39,1.94 20.36,1.94 21.33,1.94 21.33,0.97 
			20.36,0.97 		"/>
		<rect x="4.85" y="0.97" class="st0" width="0.97" height="0.97"/>
	</g>
	<g>
		<rect x="29.09" y="0.97" class="st1" width="0.97" height="0.97"/>
		<polygon class="st1" points="26.18,0.97 25.21,0.97 24.24,0.97 23.27,0.97 23.27,1.94 24.24,1.94 25.21,1.94 26.18,1.94 
			27.15,1.94 28.12,1.94 28.12,0.97 27.15,0.97 		"/>
		<rect x="21.33" y="0.97" class="st1" width="0.97" height="0.97"/>
		<rect x="5.82" y="0.97" class="st1" width="0.97" height="0.97"/>
		<polygon class="st1" points="2.91,0.97 1.94,0.97 1.94,1.94 2.91,1.94 3.88,1.94 4.85,1.94 4.85,0.97 3.88,0.97 		"/>
	</g>
	<g>
		<polygon class="st2" points="31.03,1.94 31.03,0.97 30.06,0.97 30.06,1.94 29.09,1.94 28.12,1.94 27.15,1.94 26.18,1.94 
			25.21,1.94 24.24,1.94 23.27,1.94 22.3,1.94 21.33,1.94 20.36,1.94 19.39,1.94 18.42,1.94 17.45,1.94 16.48,1.94 15.52,1.94 
			14.55,1.94 13.58,1.94 12.61,1.94 11.64,1.94 10.67,1.94 9.7,1.94 8.73,1.94 7.76,1.94 6.79,1.94 5.82,1.94 4.85,1.94 3.88,1.94 
			2.91,1.94 1.94,1.94 1.94,0.97 0.97,0.97 0.97,1.94 0,1.94 0,2.91 0,3.88 0,4.84 0,5.81 0,6.78 0,7.75 0,8.72 0,9.69 0.97,9.69 
			0.97,10.66 1.94,10.66 1.94,11.63 2.91,11.63 3.88,11.63 4.85,11.63 5.82,11.63 6.79,11.63 7.76,11.63 8.73,11.63 9.7,11.63 
			10.67,11.63 11.64,11.63 12.61,11.63 13.58,11.63 14.55,11.63 15.52,11.63 16.48,11.63 17.45,11.63 18.42,11.63 19.39,11.63 
			20.36,11.63 21.33,11.63 22.3,11.63 23.27,11.63 24.24,11.63 25.21,11.63 26.18,11.63 27.15,11.63 28.12,11.63 29.09,11.63 
			30.06,11.63 30.06,10.66 31.03,10.66 31.03,9.69 32,9.69 32,8.72 32,7.75 32,6.78 32,5.81 32,4.84 32,3.88 32,2.91 32,1.94 		"/>
		<polygon class="st2" points="3.88,0.97 4.85,0.97 5.82,0.97 6.79,0.97 7.76,0.97 8.73,0.97 9.7,0.97 10.67,0.97 11.64,0.97 
			12.61,0.97 13.58,0.97 14.55,0.97 15.52,0.97 16.48,0.97 17.45,0.97 18.42,0.97 19.39,0.97 20.36,0.97 21.33,0.97 22.3,0.97 
			23.27,0.97 24.24,0.97 25.21,0.97 26.18,0.97 27.15,0.97 28.12,0.97 29.09,0.97 30.06,0.97 30.06,0 29.09,0 28.12,0 27.15,0 
			26.18,0 25.21,0 24.24,0 23.27,0 22.3,0 21.33,0 20.36,0 19.39,0 18.42,0 17.45,0 16.48,0 15.52,0 14.55,0 13.58,0 12.61,0 
			11.64,0 10.67,0 9.7,0 8.73,0 7.76,0 6.79,0 5.82,0 4.85,0 3.88,0 2.91,0 1.94,0 1.94,0.97 2.91,0.97 		"/>
	</g>
</g>
</svg>
