<?xml version="1.0" encoding="utf-8"?>
<!-- Generator: Adobe Illustrator 26.5.0, SVG Export Plug-In . SVG Version: 6.00 Build 0)  -->
<svg version="1.1" id="Layer_1" xmlns="http://www.w3.org/2000/svg" xmlns:xlink="http://www.w3.org/1999/xlink" x="0px" y="0px"
	 viewBox="0 0 420 230" style="enable-background:new 0 0 420 230;" xml:space="preserve">
<style type="text/css">
	.st0{fill:#42945A;}
	.st1{fill:#358351;}
	.st2{fill:#4DA06B;}
	.st3{fill:#62B981;}
	.st4{fill:#52AB73;}
	.st5{fill:#FACFC4;}
	.st6{fill:#FFFFFF;}
	.st7{fill:#ED693A;}
	.st8{fill:#CE4A28;}
	.st9{fill:#DD5C3E;}
	.st10{fill:#EE885C;}
	.st11{fill:#020203;}
</style>
<g>
	<rect x="392.1" y="27.3" class="st0" width="13.5" height="13.5"/>
	<g>
		<polygon class="st1" points="405.6,94.8 405.6,108.3 405.6,121.8 419.1,121.8 419.1,108.3 419.1,94.8 		"/>
		<polygon class="st1" points="392.1,135.3 378.6,135.3 378.6,121.8 365.1,121.8 365.1,135.3 365.1,148.8 378.6,148.8 392.1,148.8 
			405.6,148.8 405.6,135.3 405.6,121.8 392.1,121.8 		"/>
		<polygon class="st1" points="392.1,81.3 392.1,67.8 378.6,67.8 378.6,81.3 365.1,81.3 365.1,94.8 378.6,94.8 392.1,94.8 
			405.6,94.8 405.6,81.3 		"/>
		<polygon class="st1" points="405.6,54.3 405.6,40.8 392.1,40.8 392.1,54.3 392.1,67.8 405.6,67.8 		"/>
		<polygon class="st1" points="351.6,108.3 338.1,108.3 338.1,121.8 351.6,121.8 365.1,121.8 365.1,108.3 		"/>
		<polygon class="st1" points="338.1,81.3 324.6,81.3 324.6,94.8 324.6,108.3 338.1,108.3 338.1,94.8 		"/>
	</g>
	<g>
		<polygon class="st2" points="392.1,94.8 392.1,108.3 392.1,121.8 405.6,121.8 405.6,108.3 405.6,94.8 		"/>
		<rect x="378.6" y="121.8" class="st2" width="13.5" height="13.5"/>
		<polygon class="st2" points="392.1,54.3 392.1,40.8 378.6,40.8 378.6,54.3 378.6,67.8 392.1,67.8 		"/>
		<rect x="365.1" y="108.3" class="st2" width="13.5" height="13.5"/>
		<rect x="365.1" y="67.8" class="st2" width="13.5" height="13.5"/>
		<polygon class="st2" points="351.6,94.8 351.6,81.3 338.1,81.3 338.1,94.8 338.1,108.3 351.6,108.3 365.1,108.3 365.1,94.8 		"/>
		<rect x="324.6" y="67.8" class="st2" width="13.5" height="13.5"/>
	</g>
	<g>
		<polygon class="st3" points="378.6,108.3 378.6,121.8 392.1,121.8 392.1,108.3 392.1,94.8 378.6,94.8 365.1,94.8 365.1,108.3 		
			"/>
		<polygon class="st3" points="365.1,67.8 378.6,67.8 378.6,54.3 378.6,40.8 392.1,40.8 392.1,27.3 378.6,27.3 378.6,13.8 
			365.1,13.8 365.1,27.3 365.1,40.8 351.6,40.8 351.6,54.3 338.1,54.3 338.1,40.8 324.6,40.8 324.6,27.3 311.1,27.3 297.6,27.3 
			297.6,40.8 311.1,40.8 311.1,54.3 324.6,54.3 324.6,67.8 338.1,67.8 338.1,81.3 351.6,81.3 351.6,94.8 365.1,94.8 365.1,81.3 		
			"/>
	</g>
	<g>
		<rect x="378.6" y="13.8" class="st4" width="13.5" height="13.5"/>
		<polygon class="st4" points="365.1,0.3 351.6,0.3 351.6,13.8 351.6,27.3 351.6,40.8 365.1,40.8 365.1,27.3 365.1,13.8 378.6,13.8 
			378.6,0.3 		"/>
		<rect x="338.1" y="40.8" class="st4" width="13.5" height="13.5"/>
		<rect x="324.6" y="27.3" class="st4" width="13.5" height="13.5"/>
		<polygon class="st4" points="311.1,81.3 324.6,81.3 324.6,67.8 324.6,54.3 311.1,54.3 311.1,67.8 		"/>
		<polygon class="st4" points="311.1,13.8 297.6,13.8 297.6,27.3 311.1,27.3 324.6,27.3 324.6,13.8 		"/>
		<rect x="297.6" y="40.8" class="st4" width="13.5" height="13.5"/>
		<rect x="284.1" y="27.3" class="st4" width="13.5" height="13.5"/>
	</g>
	<g>
		<polygon class="st5" points="284.1,94.8 270.7,94.8 270.7,108.3 284.1,108.3 297.6,108.3 297.6,94.8 		"/>
		<rect x="257.2" y="108.3" class="st5" width="13.5" height="13.5"/>
		<rect x="230.2" y="121.8" class="st5" width="13.5" height="13.5"/>
	</g>
	<rect x="189.8" y="391.5" class="st6" width="13.4" height="13.5"/>
	<g>
		<rect x="311.1" y="108.3" class="st7" width="13.5" height="13.5"/>
		<polygon class="st7" points="311.1,121.8 297.6,121.8 297.6,108.3 284.1,108.3 270.7,108.3 270.7,121.8 257.2,121.8 257.2,108.3 
			270.7,108.3 270.7,94.8 284.1,94.8 297.6,94.8 297.6,81.3 284.1,81.3 270.7,81.3 257.2,81.3 257.2,94.8 243.7,94.8 243.7,108.3 
			230.2,108.3 230.2,121.8 243.7,121.8 243.7,135.3 230.2,135.3 230.2,121.8 216.7,121.8 203.2,121.8 203.2,135.3 189.8,135.3 
			176.3,135.3 162.8,135.3 162.8,148.8 149.3,148.8 135.9,148.8 135.9,162.2 122.4,162.2 108.9,162.2 95.4,162.2 81.9,162.2 
			81.9,175.7 68.4,175.7 54.9,175.7 54.9,189.2 41.4,189.2 41.4,202.7 54.9,202.7 68.4,202.7 81.9,202.7 95.4,202.7 108.9,202.7 
			122.4,202.7 135.9,202.7 149.3,202.7 162.8,202.7 176.3,202.7 189.8,202.7 203.2,202.7 216.7,202.7 230.2,202.7 243.7,202.7 
			243.7,189.2 243.7,175.7 243.7,162.2 230.2,162.2 230.2,148.8 243.7,148.8 243.7,162.2 257.2,162.2 257.2,175.7 270.7,175.7 
			270.7,189.2 284.1,189.2 284.1,175.7 297.6,175.7 311.1,175.7 311.1,162.2 324.6,162.2 324.6,148.8 311.1,148.8 311.1,135.3 		"/>
		<rect x="297.6" y="94.8" class="st7" width="13.5" height="13.5"/>
	</g>
	<g>
		<polygon class="st8" points="338.1,121.8 338.1,135.3 338.1,148.8 338.1,162.2 324.6,162.2 324.6,175.7 311.1,175.7 311.1,189.2 
			311.1,202.7 324.6,202.7 324.6,189.2 338.1,189.2 338.1,175.7 351.6,175.7 351.6,162.2 351.6,148.8 351.6,135.3 351.6,121.8 		"/>
		<polygon class="st8" points="284.1,202.7 284.1,216.1 297.6,216.1 311.1,216.1 311.1,202.7 297.6,202.7 		"/>
		<polygon class="st8" points="257.2,216.1 243.7,216.1 230.2,216.1 216.7,216.1 203.2,216.1 189.8,216.1 176.3,216.1 162.8,216.1 
			149.3,216.1 135.9,216.1 122.4,216.1 108.9,216.1 95.4,216.1 81.9,216.1 68.4,216.1 54.9,216.1 41.4,216.1 41.4,229.6 54.9,229.6 
			68.4,229.6 81.9,229.6 95.4,229.6 108.9,229.6 122.4,229.6 135.9,229.6 149.3,229.6 162.8,229.6 176.3,229.6 189.8,229.6 
			203.2,229.6 216.7,229.6 230.2,229.6 243.7,229.6 257.2,229.6 270.7,229.6 284.1,229.6 284.1,216.1 270.7,216.1 		"/>
		<polygon class="st8" points="27.9,202.7 14.4,202.7 14.4,216.1 27.9,216.1 41.4,216.1 41.4,202.7 		"/>
	</g>
	<g>
		<polygon class="st9" points="324.6,108.3 324.6,121.8 311.1,121.8 311.1,135.3 311.1,148.8 324.6,148.8 324.6,162.2 338.1,162.2 
			338.1,148.8 338.1,135.3 338.1,121.8 338.1,108.3 		"/>
		<rect x="311.1" y="162.2" class="st9" width="13.5" height="13.5"/>
		<rect x="311.1" y="94.8" class="st9" width="13.5" height="13.5"/>
		<rect x="297.6" y="108.3" class="st9" width="13.5" height="13.5"/>
		<polygon class="st9" points="284.1,175.7 284.1,189.2 270.7,189.2 270.7,175.7 257.2,175.7 257.2,162.2 243.7,162.2 243.7,175.7 
			243.7,189.2 243.7,202.7 230.2,202.7 216.7,202.7 203.2,202.7 189.8,202.7 176.3,202.7 162.8,202.7 149.3,202.7 135.9,202.7 
			122.4,202.7 108.9,202.7 95.4,202.7 81.9,202.7 68.4,202.7 54.9,202.7 41.4,202.7 41.4,216.1 54.9,216.1 68.4,216.1 81.9,216.1 
			95.4,216.1 108.9,216.1 122.4,216.1 135.9,216.1 149.3,216.1 162.8,216.1 176.3,216.1 189.8,216.1 203.2,216.1 216.7,216.1 
			230.2,216.1 243.7,216.1 257.2,216.1 270.7,216.1 284.1,216.1 284.1,202.7 297.6,202.7 311.1,202.7 311.1,189.2 311.1,175.7 
			297.6,175.7 		"/>
		<rect x="230.2" y="148.8" class="st9" width="13.5" height="13.5"/>
		<polygon class="st9" points="27.9,189.2 14.4,189.2 14.4,202.7 27.9,202.7 41.4,202.7 41.4,189.2 		"/>
	</g>
	<g>
		<polygon class="st10" points="311.1,81.3 297.6,81.3 297.6,94.8 311.1,94.8 324.6,94.8 324.6,81.3 		"/>
		<polygon class="st10" points="284.1,67.8 270.7,67.8 257.2,67.8 257.2,81.3 270.7,81.3 284.1,81.3 297.6,81.3 297.6,67.8 		"/>
		<rect x="243.7" y="81.3" class="st10" width="13.5" height="13.5"/>
		<rect x="230.2" y="94.8" class="st10" width="13.5" height="13.5"/>
		<polygon class="st10" points="203.2,108.3 203.2,121.8 216.7,121.8 230.2,121.8 230.2,108.3 216.7,108.3 		"/>
		<polygon class="st10" points="176.3,121.8 162.8,121.8 162.8,135.3 176.3,135.3 189.8,135.3 203.2,135.3 203.2,121.8 189.8,121.8 
					"/>
		<polygon class="st10" points="108.9,148.8 95.4,148.8 81.9,148.8 81.9,162.2 95.4,162.2 108.9,162.2 122.4,162.2 135.9,162.2 
			135.9,148.8 122.4,148.8 		"/>
		<polygon class="st10" points="54.9,162.2 54.9,175.7 68.4,175.7 81.9,175.7 81.9,162.2 68.4,162.2 		"/>
		<polygon class="st10" points="27.9,175.7 14.4,175.7 14.4,189.2 27.9,189.2 41.4,189.2 54.9,189.2 54.9,175.7 41.4,175.7 		"/>
		<rect x="0.9" y="189.2" class="st10" width="13.5" height="13.5"/>
	</g>
</g>
<g>
	<path class="st11" d="M49.4,137.7l1.3,4.7l2.4-0.7l2.6,9.4l-2.4,0.7l1.3,4.7l-2.3,0.6l0.7,2.4l-4.7,1.3l0.7,2.4L34.8,167l-0.7-2.4
		l-2.4,0.7l-10.4-37.5l4.7-1.3l3.3,11.7l14.1-3.9l0.7,2.4l2.4-0.7l0.7,2.4L49.4,137.7z M50.3,150.1l-1.9-7l-2.4,0.7l-0.7-2.4L43,142
		l-0.6-2.3l-11.7,3.2l5.2,18.7l11.7-3.2l-0.6-2.3l2.4-0.7l-1.3-4.7L50.3,150.1z"/>
</g>
<g>
	<path class="st11" d="M85.3,125.6l2.3-0.8l2.4,6.9l-2.3,0.8l0.8,2.3l-18.4,6.5l1.6,4.6l2.3-0.8l0.8,2.3l11.5-4.1l-0.8-2.3l2.3-0.8
		l-0.8-2.3l4.6-1.6l1.6,4.6l-2.3,0.8l0.8,2.3l-2.3,0.8l0.8,2.3L76.5,152l-0.8-2.3l-4.6,1.6l-0.8-2.3l-2.3,0.8l-1.6-4.6l-2.3,0.8
		l-2.4-6.9l2.3-0.8l-1.6-4.6l2.3-0.8l-1.6-4.6l4.6-1.6l-0.8-2.3l11.5-4.1l0.8,2.3l2.3-0.8l0.8,2.3l2.3-0.8L85.3,125.6z M84.6,131
		l-1.6-4.6l-2.3,0.8l-0.8-2.3L68.4,129l0.8,2.3l-2.3,0.8l1.6,4.6L84.6,131z"/>
</g>
<g>
	<path class="st11" d="M105.7,113.7l13.5-5.5l1.9,4.5l-13.5,5.5L114,134l2.2-0.9l0.9,2.2l11.3-4.6l1.9,4.5l-13.5,5.5l-0.9-2.3
		l-2.3,0.9l-1.8-4.5l-2.3,0.9l-6.4-15.8l-6.7,2.8l-1.9-4.5l6.7-2.8l-4.6-11.3l4.5-1.9L105.7,113.7z"/>
</g>
<g>
	<path class="st11" d="M152.8,97.3l2.1,4.4l2.2-1.1l8.5,17.5l-4.4,2.1l-8.5-17.5l-2.2,1.1l-1.1-2.2l-2.2,1.1l-1-2.2l-10.9,5.3
		l10.6,21.9l-4.4,2.1l-18-37.3l4.4-2.1l5.3,11l13.1-6.3l1.1,2.2l2.2-1.1l1.1,2.2L152.8,97.3z"/>
</g>
<g>
	<path class="st11" d="M186.2,83.2l2.3-0.9l9.1,22.6l-4.5,1.8l-0.9-2.3l-2.3,0.9l0.9,2.3l-9,3.6l-0.9-2.3l-4.5,1.8l-0.9-2.3
		l-2.3,0.9l-1.8-4.5l-2.3,0.9l-2.7-6.8l2.3-0.9l-1.8-4.5l2.3-0.9l-1.8-4.5l4.5-1.8l-0.9-2.3l11.3-4.6l0.9,2.3l2.2-0.9L186.2,83.2z
		 M190.4,100L184,84.1l-11.3,4.6l0.9,2.3l-2.3,0.9l1.8,4.5l-2.2,0.9l2.7,6.8l2.2-0.9l0.9,2.3l2.3-0.9l0.9,2.2l9-3.6l-0.9-2.2
		L190.4,100z"/>
</g>
<g>
	<path class="st11" d="M229.1,87.3l-4.3,2.2l-10.1-19.4l-2.2,1.1l-1.1-2.2l-8.6,4.5l1.1,2.2l-2.1,1.1l10.1,19.4l-4.3,2.3L196.3,77
		l2.2-1.1l-1.1-2.1l2.2-1.1l-1.1-2.2l12.9-6.7l1.1,2.2l2.2-1.1l1.1,2.1l2.1-1.1L229.1,87.3z"/>
</g>
<g>
	<path class="st11" d="M241.7,41.8l3.7-2.1L262,69.6l-1.8,1l1.2,2.1l-1.9,1.1l1.2,2.1l-1.9,1.1l1.2,2.1l-13.1,7.3l-1.2-2.1l-1.8,1
		l-1.2-2.1l13.1-7.3l-1.2-2.1l1.8-1l-1.2-2.1l1.9-1.1l-3.6-6.4l-3.7,2.1l1.2,2.1l-7.5,4.2l-1.2-2.1l-3.7,2.1l-1.2-2.1l-1.8,1
		l-1.2-2.1l-1.9,1.1l-9.4-17l3.7-2.1l8.3,14.9l1.9-1.1l1.2,2.1l1.8-1l1.2,2.1l7.5-4.2l-1.2-2.1l1.8-1l-1.2-2.1l1.9-1.1L241.7,41.8z"
		/>
</g>
<g>
	<path class="st11" d="M274.8,58.8l2.4-0.1l0.2,4.9l-2.4,0.1l0.1,2.4l-4.8,0.2l-0.1-2.4l-2.4,0.1l-0.2-4.9L270,59l-0.1-2.4l4.8-0.2
		L274.8,58.8z"/>
</g>
</svg>
