<?xml version="1.0" encoding="utf-8"?>
<!-- Generator: Adobe Illustrator 26.5.0, SVG Export Plug-In . SVG Version: 6.00 Build 0)  -->
<svg version="1.1" id="Layer_1" xmlns="http://www.w3.org/2000/svg" xmlns:xlink="http://www.w3.org/1999/xlink" x="0px" y="0px"
	 viewBox="0 0 26.18 25.21" style="enable-background:new 0 0 26.18 25.21;" xml:space="preserve">
<style type="text/css">
	.st0{fill:#FDC388;}
	.st1{fill:#FFE0A1;}
	.st2{fill:#FFF3DF;}
	.st3{fill:#C6813B;}
</style>
<g>
	<g>
		<rect x="23.27" y="21.33" class="st0" width="0.97" height="0.97"/>
		<rect x="22.3" y="22.3" class="st0" width="0.97" height="0.97"/>
		<polygon class="st0" points="1.94,21.33 1.94,22.3 2.91,22.3 2.91,23.27 3.88,23.27 3.88,22.3 3.88,21.33 2.91,21.33 		"/>
	</g>
	<polygon class="st1" points="23.27,4.85 23.27,3.88 23.27,2.91 22.3,2.91 21.33,2.91 21.33,1.94 20.36,1.94 19.39,1.94 18.42,1.94 
		17.45,1.94 16.48,1.94 15.51,1.94 14.54,1.94 13.57,1.94 12.61,1.94 11.64,1.94 10.67,1.94 9.7,1.94 8.73,1.94 7.76,1.94 
		6.79,1.94 5.82,1.94 4.85,1.94 4.85,2.91 3.88,2.91 2.91,2.91 2.91,3.88 2.91,4.85 1.94,4.85 1.94,5.82 1.94,6.79 1.94,7.76 
		1.94,8.73 1.94,9.7 1.94,10.67 1.94,11.64 1.94,12.61 1.94,13.57 1.94,14.54 1.94,15.51 1.94,16.48 1.94,17.45 1.94,18.42 
		1.94,19.39 2.91,19.39 2.91,20.36 3.88,20.36 3.88,21.33 4.85,21.33 5.82,21.33 5.82,22.3 6.79,22.3 7.76,22.3 8.73,22.3 9.7,22.3 
		10.67,22.3 11.64,22.3 12.61,22.3 13.57,22.3 14.54,22.3 15.51,22.3 16.48,22.3 17.45,22.3 18.42,22.3 19.39,22.3 20.36,22.3 
		20.36,21.33 21.33,21.33 22.3,21.33 22.3,20.36 23.27,20.36 23.27,19.39 24.24,19.39 24.24,18.42 24.24,17.45 24.24,16.48 
		24.24,15.51 24.24,14.54 24.24,13.57 24.24,12.61 24.24,11.64 24.24,10.67 24.24,9.7 24.24,8.73 24.24,7.76 24.24,6.79 24.24,5.82 
		24.24,4.85 	"/>
	<g>
		<polygon class="st2" points="23.27,2.91 23.27,3.88 23.27,4.85 24.24,4.85 24.24,3.88 24.24,2.91 		"/>
		<polygon class="st2" points="22.3,1.94 21.33,1.94 21.33,2.91 22.3,2.91 23.27,2.91 23.27,1.94 		"/>
		<polygon class="st2" points="20.36,0.97 19.39,0.97 18.42,0.97 17.45,0.97 16.48,0.97 15.51,0.97 14.54,0.97 13.57,0.97 
			12.61,0.97 11.64,0.97 10.67,0.97 9.7,0.97 8.73,0.97 7.76,0.97 6.79,0.97 5.82,0.97 4.85,0.97 4.85,1.94 5.82,1.94 6.79,1.94 
			7.76,1.94 8.73,1.94 9.7,1.94 10.67,1.94 11.64,1.94 12.61,1.94 13.57,1.94 14.54,1.94 15.51,1.94 16.48,1.94 17.45,1.94 
			18.42,1.94 19.39,1.94 20.36,1.94 21.33,1.94 21.33,0.97 		"/>
		<polygon class="st2" points="2.91,1.94 2.91,2.91 3.88,2.91 4.85,2.91 4.85,1.94 3.88,1.94 		"/>
		<polygon class="st2" points="1.94,3.88 1.94,4.85 2.91,4.85 2.91,3.88 2.91,2.91 1.94,2.91 		"/>
	</g>
	<g>
		<polygon class="st0" points="24.24,4.85 24.24,5.82 24.24,6.79 24.24,7.76 24.24,8.73 24.24,9.7 24.24,10.67 24.24,11.64 
			24.24,12.61 24.24,13.57 24.24,14.54 24.24,15.51 24.24,16.48 24.24,17.45 24.24,18.42 24.24,19.39 23.27,19.39 23.27,20.36 
			22.3,20.36 22.3,21.33 21.33,21.33 20.36,21.33 20.36,22.3 19.39,22.3 18.42,22.3 17.45,22.3 16.48,22.3 15.51,22.3 14.54,22.3 
			13.57,22.3 12.61,22.3 11.64,22.3 10.67,22.3 9.7,22.3 8.73,22.3 7.76,22.3 6.79,22.3 5.82,22.3 5.82,21.33 4.85,21.33 
			3.88,21.33 3.88,22.3 3.88,23.27 4.85,23.27 4.85,24.24 5.82,24.24 6.79,24.24 7.76,24.24 8.73,24.24 9.7,24.24 10.67,24.24 
			11.64,24.24 12.61,24.24 13.57,24.24 14.54,24.24 15.51,24.24 16.48,24.24 17.45,24.24 18.42,24.24 19.39,24.24 20.36,24.24 
			21.33,24.24 21.33,23.27 22.3,23.27 22.3,22.3 23.27,22.3 23.27,21.33 24.24,21.33 24.24,20.36 25.21,20.36 25.21,19.39 
			25.21,18.42 25.21,17.45 25.21,16.48 25.21,15.51 25.21,14.54 25.21,13.57 25.21,12.61 25.21,11.64 25.21,10.67 25.21,9.7 
			25.21,8.73 25.21,7.76 25.21,6.79 25.21,5.82 25.21,4.85 		"/>
		<polygon class="st0" points="2.91,20.36 2.91,19.39 1.94,19.39 1.94,18.42 1.94,17.45 1.94,16.48 1.94,15.51 1.94,14.54 
			1.94,13.57 1.94,12.61 1.94,11.64 1.94,10.67 1.94,9.7 1.94,8.73 1.94,7.76 1.94,6.79 1.94,5.82 1.94,4.85 0.97,4.85 0.97,5.82 
			0.97,6.79 0.97,7.76 0.97,8.73 0.97,9.7 0.97,10.67 0.97,11.64 0.97,12.61 0.97,13.57 0.97,14.54 0.97,15.51 0.97,16.48 
			0.97,17.45 0.97,18.42 0.97,19.39 0.97,20.36 1.94,20.36 1.94,21.33 2.91,21.33 3.88,21.33 3.88,20.36 		"/>
	</g>
	<g>
		<polygon class="st3" points="25.21,4.85 25.21,5.82 25.21,6.79 25.21,7.76 25.21,8.73 25.21,9.7 25.21,10.67 25.21,11.64 
			25.21,12.61 25.21,13.57 25.21,14.54 25.21,15.51 25.21,16.48 25.21,17.45 25.21,18.42 25.21,19.39 25.21,20.36 26.18,20.36 
			26.18,19.39 26.18,18.42 26.18,17.45 26.18,16.48 26.18,15.51 26.18,14.54 26.18,13.57 26.18,12.61 26.18,11.64 26.18,10.67 
			26.18,9.7 26.18,8.73 26.18,7.76 26.18,6.79 26.18,5.82 26.18,4.85 		"/>
		<polygon class="st3" points="24.24,21.33 24.24,22.3 25.21,22.3 25.21,21.33 25.21,20.36 24.24,20.36 		"/>
		<polygon class="st3" points="24.24,4.85 25.21,4.85 25.21,3.88 25.21,2.91 24.24,2.91 24.24,3.88 		"/>
		<rect x="23.27" y="22.3" class="st3" width="0.97" height="0.97"/>
		<rect x="23.27" y="1.94" class="st3" width="0.97" height="0.97"/>
		<polygon class="st3" points="21.33,23.27 21.33,24.24 22.3,24.24 23.27,24.24 23.27,23.27 22.3,23.27 		"/>
		<polygon class="st3" points="22.3,1.94 23.27,1.94 23.27,0.97 22.3,0.97 21.33,0.97 21.33,1.94 		"/>
		<polygon class="st3" points="19.39,24.24 18.42,24.24 17.45,24.24 16.48,24.24 15.51,24.24 14.54,24.24 13.57,24.24 12.61,24.24 
			11.64,24.24 10.67,24.24 9.7,24.24 8.73,24.24 7.76,24.24 6.79,24.24 5.82,24.24 4.85,24.24 4.85,25.21 5.82,25.21 6.79,25.21 
			7.76,25.21 8.73,25.21 9.7,25.21 10.67,25.21 11.64,25.21 12.61,25.21 13.57,25.21 14.54,25.21 15.51,25.21 16.48,25.21 
			17.45,25.21 18.42,25.21 19.39,25.21 20.36,25.21 21.33,25.21 21.33,24.24 20.36,24.24 		"/>
		<polygon class="st3" points="6.79,0.97 7.76,0.97 8.73,0.97 9.7,0.97 10.67,0.97 11.64,0.97 12.61,0.97 13.57,0.97 14.54,0.97 
			15.51,0.97 16.48,0.97 17.45,0.97 18.42,0.97 19.39,0.97 20.36,0.97 21.33,0.97 21.33,0 20.36,0 19.39,0 18.42,0 17.45,0 16.48,0 
			15.51,0 14.54,0 13.57,0 12.61,0 11.64,0 10.67,0 9.7,0 8.73,0 7.76,0 6.79,0 5.82,0 4.85,0 4.85,0.97 5.82,0.97 		"/>
		<polygon class="st3" points="3.88,23.27 2.91,23.27 2.91,24.24 3.88,24.24 4.85,24.24 4.85,23.27 		"/>
		<polygon class="st3" points="4.85,1.94 4.85,0.97 3.88,0.97 2.91,0.97 2.91,1.94 3.88,1.94 		"/>
		<rect x="1.94" y="22.3" class="st3" width="0.97" height="0.97"/>
		<rect x="1.94" y="1.94" class="st3" width="0.97" height="0.97"/>
		<polygon class="st3" points="1.94,20.36 0.97,20.36 0.97,21.33 0.97,22.3 1.94,22.3 1.94,21.33 		"/>
		<polygon class="st3" points="1.94,3.88 1.94,2.91 0.97,2.91 0.97,3.88 0.97,4.85 1.94,4.85 		"/>
		<polygon class="st3" points="0.97,18.42 0.97,17.45 0.97,16.48 0.97,15.51 0.97,14.54 0.97,13.57 0.97,12.61 0.97,11.64 
			0.97,10.67 0.97,9.7 0.97,8.73 0.97,7.76 0.97,6.79 0.97,5.82 0.97,4.85 0,4.85 0,5.82 0,6.79 0,7.76 0,8.73 0,9.7 0,10.67 
			0,11.64 0,12.61 0,13.57 0,14.54 0,15.51 0,16.48 0,17.45 0,18.42 0,19.39 0,20.36 0.97,20.36 0.97,19.39 		"/>
	</g>
</g>
</svg>
