<svg xmlns="http://www.w3.org/2000/svg" width="26.18" height="25.21" viewBox="0 0 26.18 25.21">
  <g id="MainBgShadow" transform="translate(0 0)">
    <path id="Union_4" data-name="Union 4" d="M561.36-2461.79H545.85v-.97h-1.94v-.969h-.969v-.97h-.97v-1.94H541v-15.51h.97v-1.939h.97v-.968h.969v-.969h1.94V-2487h16.48v.97h1.94v.97h.969v.969h.97v1.94h.97v15.51h-.97v0h-.97v1.94h-.969v.97h-1.94v.969h0v.97Zm-17.45-1.939h0Zm3.88-.97h0Zm-4.849,0h0Zm19.39-.97h0Zm-16.48,0h0Zm-1.94-.97h0v-.969h0Zm-1.94,0h0Zm23.27-16.481v0Zm-21.33,0v.97h0v-1.94h0Zm20.361-.97v0Zm-1.94-.969v0Zm.97,22.3h-.97v-.969h1.94v.969Zm.97-.969v-.97h.969v.97Zm.969-.97v-1.94h.97v1.94Z" transform="translate(-541 2487)" fill="#fdc388"/>
  </g>
</svg>
