<?xml version="1.0" encoding="utf-8"?>
<!-- Generator: Adobe Illustrator 26.5.0, SVG Export Plug-In . SVG Version: 6.00 Build 0)  -->
<svg version="1.1" id="Layer_1" xmlns="http://www.w3.org/2000/svg" xmlns:xlink="http://www.w3.org/1999/xlink" x="0px" y="0px"
	 viewBox="0 0 24.24 23.27" style="enable-background:new 0 0 24.24 23.27;" xml:space="preserve">
<style type="text/css">
	.st0{fill:#C6813B;}
	.st1{fill:#C1844C;}
	.st2{fill:#F37044;}
	.st3{fill:#F8BE59;}
	.st4{fill:#DBAD75;}
</style>
<g>
	<rect x="19.39" y="14.54" class="st0" width="0.97" height="0.97"/>
	<rect x="19.39" y="13.57" class="st0" width="0.97" height="0.97"/>
	<rect x="19.39" y="12.6" class="st0" width="0.97" height="0.97"/>
	<rect x="19.39" y="11.64" class="st0" width="0.97" height="0.96"/>
	<rect x="19.39" y="10.67" class="st0" width="0.97" height="0.97"/>
	<rect x="19.39" y="9.7" class="st0" width="0.97" height="0.97"/>
	<rect x="19.39" y="8.73" class="st0" width="0.97" height="0.97"/>
	<rect x="19.39" y="7.76" class="st0" width="0.97" height="0.97"/>
	<rect x="19.39" y="6.79" class="st0" width="0.97" height="0.97"/>
	<rect x="19.39" y="5.82" class="st0" width="0.97" height="0.97"/>
	<rect x="18.42" y="15.51" class="st0" width="0.97" height="0.97"/>
	<rect x="18.42" y="14.54" class="st1" width="0.97" height="0.97"/>
	<rect x="18.42" y="5.82" class="st0" width="0.97" height="0.97"/>
	<rect x="18.42" y="4.85" class="st0" width="0.97" height="0.97"/>
	<rect x="17.45" y="15.51" class="st0" width="0.97" height="0.97"/>
	<rect x="17.45" y="13.57" class="st1" width="0.97" height="0.97"/>
	<rect x="17.45" y="6.79" class="st0" width="0.97" height="0.97"/>
	<rect x="17.45" y="4.85" class="st0" width="0.97" height="0.97"/>
	<rect x="16.48" y="15.51" class="st0" width="0.97" height="0.97"/>
	<rect x="16.48" y="12.6" class="st1" width="0.97" height="0.97"/>
	<rect x="16.48" y="7.76" class="st0" width="0.97" height="0.97"/>
	<rect x="16.48" y="4.85" class="st0" width="0.97" height="0.97"/>
	<rect x="15.51" y="15.51" class="st0" width="0.97" height="0.97"/>
	<rect x="15.51" y="11.64" class="st1" width="0.97" height="0.96"/>
	<rect x="15.51" y="8.73" class="st0" width="0.97" height="0.97"/>
	<rect x="15.51" y="4.85" class="st0" width="0.97" height="0.97"/>
	<rect x="14.54" y="15.51" class="st0" width="0.97" height="0.97"/>
	<rect x="14.54" y="10.67" class="st1" width="0.97" height="0.97"/>
	<rect x="14.54" y="9.7" class="st0" width="0.97" height="0.97"/>
	<rect x="14.54" y="4.85" class="st0" width="0.97" height="0.97"/>
	<rect x="13.57" y="15.51" class="st0" width="0.97" height="0.97"/>
	<rect x="13.57" y="4.85" class="st0" width="0.97" height="0.97"/>
	<rect x="12.6" y="15.51" class="st0" width="0.97" height="0.97"/>
	<rect x="12.6" y="4.85" class="st0" width="0.97" height="0.97"/>
	<rect x="11.64" y="15.51" class="st0" width="0.96" height="0.97"/>
	<rect x="11.64" y="4.85" class="st0" width="0.96" height="0.97"/>
	<rect x="10.67" y="15.51" class="st0" width="0.97" height="0.97"/>
	<rect x="10.67" y="4.85" class="st0" width="0.97" height="0.97"/>
	<rect x="9.7" y="15.51" class="st0" width="0.97" height="0.97"/>
	<polygon class="st2" points="13.57,9.7 13.57,8.73 12.6,8.73 11.64,8.73 10.67,8.73 10.67,9.7 9.7,9.7 9.7,10.67 9.7,11.64 
		9.7,12.6 10.67,12.6 10.67,13.57 11.64,13.57 12.6,13.57 13.57,13.57 13.57,12.6 14.54,12.6 14.54,11.64 14.54,10.67 14.54,9.7 	
		"/>
	<rect x="9.7" y="4.85" class="st0" width="0.97" height="0.97"/>
	<rect x="8.73" y="15.51" class="st0" width="0.97" height="0.97"/>
	<rect x="8.73" y="10.67" class="st0" width="0.97" height="0.97"/>
	<rect x="8.73" y="9.7" class="st0" width="0.97" height="0.97"/>
	<rect x="8.73" y="4.85" class="st0" width="0.97" height="0.97"/>
	<rect x="7.76" y="15.51" class="st0" width="0.97" height="0.97"/>
	<rect x="7.76" y="11.64" class="st1" width="0.97" height="0.96"/>
	<rect x="7.76" y="8.73" class="st0" width="0.97" height="0.97"/>
	<rect x="7.76" y="4.85" class="st0" width="0.97" height="0.97"/>
	<rect x="6.79" y="15.51" class="st0" width="0.97" height="0.97"/>
	<rect x="6.79" y="12.6" class="st1" width="0.97" height="0.97"/>
	<rect x="6.79" y="7.76" class="st0" width="0.97" height="0.97"/>
	<rect x="6.79" y="4.85" class="st0" width="0.97" height="0.97"/>
	<rect x="5.82" y="15.51" class="st0" width="0.97" height="0.97"/>
	<rect x="5.82" y="13.57" class="st1" width="0.97" height="0.97"/>
	<rect x="5.82" y="6.79" class="st0" width="0.97" height="0.97"/>
	<rect x="5.82" y="4.85" class="st0" width="0.97" height="0.97"/>
	<rect x="4.85" y="15.51" class="st0" width="0.97" height="0.97"/>
	<rect x="4.85" y="14.54" class="st1" width="0.97" height="0.97"/>
	<g>
		<polygon class="st3" points="18.42,7.76 18.42,8.73 17.45,8.73 17.45,9.7 16.48,9.7 16.48,10.67 15.51,10.67 15.51,11.64 
			16.48,11.64 16.48,12.6 17.45,12.6 17.45,13.57 18.42,13.57 18.42,14.54 19.39,14.54 19.39,13.57 19.39,12.6 19.39,11.64 
			19.39,10.67 19.39,9.7 19.39,8.73 19.39,7.76 		"/>
		<polygon class="st3" points="16.48,13.57 15.51,13.57 15.51,12.6 14.54,12.6 13.57,12.6 13.57,13.57 12.6,13.57 11.64,13.57 
			10.67,13.57 10.67,12.6 9.7,12.6 8.73,12.6 8.73,13.57 7.76,13.57 7.76,14.54 6.79,14.54 6.79,15.51 7.76,15.51 8.73,15.51 
			9.7,15.51 10.67,15.51 11.64,15.51 12.6,15.51 13.57,15.51 14.54,15.51 15.51,15.51 16.48,15.51 17.45,15.51 17.45,14.54 
			16.48,14.54 		"/>
		<polygon class="st3" points="6.79,7.76 7.76,7.76 7.76,8.73 8.73,8.73 8.73,9.7 9.7,9.7 10.67,9.7 10.67,8.73 11.64,8.73 
			12.6,8.73 13.57,8.73 13.57,9.7 14.54,9.7 15.51,9.7 15.51,8.73 16.48,8.73 16.48,7.76 17.45,7.76 17.45,6.79 18.42,6.79 
			18.42,5.82 17.45,5.82 16.48,5.82 15.51,5.82 14.54,5.82 13.57,5.82 12.6,5.82 11.64,5.82 10.67,5.82 9.7,5.82 8.73,5.82 
			7.76,5.82 6.79,5.82 5.82,5.82 5.82,6.79 6.79,6.79 		"/>
		<polygon class="st3" points="6.79,12.6 7.76,12.6 7.76,11.64 8.73,11.64 8.73,10.67 7.76,10.67 7.76,9.7 6.79,9.7 6.79,8.73 
			5.82,8.73 5.82,7.76 4.85,7.76 4.85,8.73 4.85,9.7 4.85,10.67 4.85,11.64 4.85,12.6 4.85,13.57 4.85,14.54 5.82,14.54 5.82,13.57 
			6.79,13.57 		"/>
	</g>
	<g>
		<rect x="18.42" y="6.79" class="st4" width="0.97" height="0.97"/>
		<rect x="17.45" y="14.54" class="st4" width="0.97" height="0.97"/>
		<rect x="17.45" y="7.76" class="st4" width="0.97" height="0.97"/>
		<rect x="16.48" y="13.57" class="st4" width="0.97" height="0.97"/>
		<rect x="16.48" y="8.73" class="st4" width="0.97" height="0.97"/>
		<rect x="15.51" y="12.6" class="st4" width="0.97" height="0.97"/>
		<rect x="15.51" y="9.7" class="st4" width="0.97" height="0.97"/>
		<rect x="14.54" y="11.64" class="st4" width="0.97" height="0.96"/>
		<rect x="8.73" y="11.64" class="st4" width="0.97" height="0.96"/>
		<rect x="7.76" y="12.6" class="st4" width="0.97" height="0.97"/>
		<rect x="7.76" y="9.7" class="st4" width="0.97" height="0.97"/>
		<rect x="6.79" y="13.57" class="st4" width="0.97" height="0.97"/>
		<rect x="6.79" y="8.73" class="st4" width="0.97" height="0.97"/>
		<rect x="5.82" y="14.54" class="st4" width="0.97" height="0.97"/>
		<rect x="5.82" y="7.76" class="st4" width="0.97" height="0.97"/>
		<rect x="4.85" y="6.79" class="st4" width="0.97" height="0.97"/>
	</g>
	<rect x="4.85" y="5.82" class="st0" width="0.97" height="0.97"/>
	<rect x="4.85" y="4.85" class="st0" width="0.97" height="0.97"/>
	<rect x="3.88" y="14.54" class="st0" width="0.97" height="0.97"/>
	<rect x="3.88" y="13.57" class="st0" width="0.97" height="0.97"/>
	<rect x="3.88" y="12.6" class="st0" width="0.97" height="0.97"/>
	<rect x="3.88" y="11.64" class="st0" width="0.97" height="0.96"/>
	<rect x="3.88" y="10.67" class="st0" width="0.97" height="0.97"/>
	<rect x="3.88" y="9.7" class="st0" width="0.97" height="0.97"/>
	<rect x="3.88" y="8.73" class="st0" width="0.97" height="0.97"/>
	<rect x="3.88" y="7.76" class="st0" width="0.97" height="0.97"/>
	<rect x="3.88" y="6.79" class="st0" width="0.97" height="0.97"/>
	<rect x="3.88" y="5.82" class="st0" width="0.97" height="0.97"/>
</g>
</svg>
