<?xml version="1.0" encoding="utf-8"?>
<!-- Generator: Adobe Illustrator 26.5.0, SVG Export Plug-In . SVG Version: 6.00 Build 0)  -->
<svg version="1.1" id="Layer_1" xmlns="http://www.w3.org/2000/svg" xmlns:xlink="http://www.w3.org/1999/xlink" x="0px" y="0px"
	 viewBox="0 0 24.24 23.27" style="enable-background:new 0 0 24.24 23.27;" xml:space="preserve">
<style type="text/css">
	.st0{fill:#C1844C;}
	.st1{fill:#E2C695;}
	.st2{fill:#F8BE59;}
	.st3{fill:#DBAD75;}
	.st4{fill:#C6813B;}
</style>
<g>
	<rect x="18.42" y="14.54" class="st0" width="0.97" height="0.97"/>
	<rect x="17.45" y="13.57" class="st0" width="0.97" height="0.97"/>
	<rect x="16.48" y="12.6" class="st0" width="0.97" height="0.97"/>
	<rect x="15.51" y="11.64" class="st0" width="0.97" height="0.96"/>
	<rect x="14.54" y="10.67" class="st0" width="0.97" height="0.97"/>
	<rect x="7.76" y="11.64" class="st0" width="0.97" height="0.96"/>
	<rect x="6.79" y="12.6" class="st0" width="0.97" height="0.97"/>
	<polygon class="st1" points="20.36,13.57 20.36,14.54 20.36,15.51 19.39,15.51 19.39,16.48 18.42,16.48 17.45,16.48 16.48,16.48 
		15.51,16.48 14.54,16.48 13.57,16.48 12.6,16.48 11.64,16.48 10.67,16.48 9.7,16.48 8.73,16.48 7.76,16.48 6.79,16.48 5.82,16.48 
		5.82,17.45 6.79,17.45 7.76,17.45 8.73,17.45 9.7,17.45 10.67,17.45 11.64,17.45 12.6,17.45 13.57,17.45 14.54,17.45 15.51,17.45 
		16.48,17.45 17.45,17.45 18.42,17.45 19.39,17.45 20.36,17.45 20.36,16.48 21.33,16.48 21.33,15.51 21.33,14.54 21.33,13.57 	"/>
	<rect x="5.82" y="13.57" class="st0" width="0.97" height="0.97"/>
	<rect x="4.85" y="14.54" class="st0" width="0.97" height="0.97"/>
	<g>
		<polygon class="st2" points="18.42,7.76 18.42,8.73 17.45,8.73 17.45,9.7 16.48,9.7 16.48,10.67 15.51,10.67 15.51,11.64 
			16.48,11.64 16.48,12.6 17.45,12.6 17.45,13.57 18.42,13.57 18.42,14.54 19.39,14.54 19.39,13.57 19.39,12.6 19.39,11.64 
			19.39,10.67 19.39,9.7 19.39,8.73 19.39,7.76 		"/>
		<polygon class="st2" points="16.48,13.57 15.51,13.57 15.51,12.6 14.54,12.6 13.57,12.6 12.6,12.6 11.64,12.6 10.67,12.6 
			9.7,12.6 8.73,12.6 8.73,13.57 7.76,13.57 7.76,14.54 6.79,14.54 6.79,15.51 7.76,15.51 8.73,15.51 9.7,15.51 10.67,15.51 
			11.64,15.51 12.6,15.51 13.57,15.51 14.54,15.51 15.51,15.51 16.48,15.51 17.45,15.51 17.45,14.54 16.48,14.54 		"/>
		<polygon class="st2" points="6.79,7.76 7.76,7.76 7.76,8.73 8.73,8.73 8.73,9.7 9.7,9.7 9.7,10.67 10.67,10.67 10.67,11.64 
			11.64,11.64 12.6,11.64 13.57,11.64 13.57,10.67 14.54,10.67 14.54,9.7 15.51,9.7 15.51,8.73 16.48,8.73 16.48,7.76 17.45,7.76 
			17.45,6.79 18.42,6.79 18.42,5.82 17.45,5.82 16.48,5.82 15.51,5.82 14.54,5.82 13.57,5.82 12.6,5.82 11.64,5.82 10.67,5.82 
			9.7,5.82 8.73,5.82 7.76,5.82 6.79,5.82 5.82,5.82 5.82,6.79 6.79,6.79 		"/>
		<polygon class="st2" points="6.79,12.6 7.76,12.6 7.76,11.64 8.73,11.64 8.73,10.67 7.76,10.67 7.76,9.7 6.79,9.7 6.79,8.73 
			5.82,8.73 5.82,7.76 4.85,7.76 4.85,8.73 4.85,9.7 4.85,10.67 4.85,11.64 4.85,12.6 4.85,13.57 4.85,14.54 5.82,14.54 5.82,13.57 
			6.79,13.57 		"/>
	</g>
	<g>
		<rect x="18.42" y="6.79" class="st3" width="0.97" height="0.97"/>
		<rect x="17.45" y="14.54" class="st3" width="0.97" height="0.97"/>
		<rect x="17.45" y="7.76" class="st3" width="0.97" height="0.97"/>
		<rect x="16.48" y="13.57" class="st3" width="0.97" height="0.97"/>
		<rect x="16.48" y="8.73" class="st3" width="0.97" height="0.97"/>
		<rect x="15.51" y="12.6" class="st3" width="0.97" height="0.97"/>
		<rect x="15.51" y="9.7" class="st3" width="0.97" height="0.97"/>
		<polygon class="st3" points="14.54,11.64 13.57,11.64 13.57,12.6 14.54,12.6 15.51,12.6 15.51,11.64 		"/>
		<polygon class="st3" points="8.73,11.64 8.73,12.6 9.7,12.6 10.67,12.6 10.67,11.64 9.7,11.64 		"/>
		<rect x="7.76" y="12.6" class="st3" width="0.97" height="0.97"/>
		<rect x="7.76" y="9.7" class="st3" width="0.97" height="0.97"/>
		<rect x="6.79" y="13.57" class="st3" width="0.97" height="0.97"/>
		<rect x="6.79" y="8.73" class="st3" width="0.97" height="0.97"/>
		<rect x="5.82" y="14.54" class="st3" width="0.97" height="0.97"/>
		<rect x="5.82" y="7.76" class="st3" width="0.97" height="0.97"/>
		<rect x="4.85" y="6.79" class="st3" width="0.97" height="0.97"/>
	</g>
	<g>
		<polygon class="st4" points="19.39,5.82 19.39,4.85 18.42,4.85 17.45,4.85 16.48,4.85 15.51,4.85 14.54,4.85 13.57,4.85 
			12.6,4.85 11.64,4.85 10.67,4.85 9.7,4.85 8.73,4.85 7.76,4.85 6.79,4.85 5.82,4.85 4.85,4.85 4.85,5.82 3.88,5.82 3.88,6.79 
			3.88,7.76 3.88,8.73 3.88,9.7 3.88,10.67 3.88,11.64 3.88,12.6 3.88,13.57 3.88,14.54 3.88,15.51 4.85,15.51 4.85,14.54 
			4.85,13.57 4.85,12.6 4.85,11.64 4.85,10.67 4.85,9.7 4.85,8.73 4.85,7.76 4.85,6.79 5.82,6.79 5.82,5.82 6.79,5.82 7.76,5.82 
			8.73,5.82 9.7,5.82 10.67,5.82 11.64,5.82 12.6,5.82 13.57,5.82 14.54,5.82 15.51,5.82 16.48,5.82 17.45,5.82 18.42,5.82 
			18.42,6.79 19.39,6.79 19.39,7.76 19.39,8.73 19.39,9.7 19.39,10.67 19.39,11.64 19.39,12.6 19.39,13.57 19.39,14.54 19.39,15.51 
			20.36,15.51 20.36,14.54 20.36,13.57 20.36,12.6 20.36,11.64 20.36,10.67 20.36,9.7 20.36,8.73 20.36,7.76 20.36,6.79 20.36,5.82 
					"/>
		<polygon class="st4" points="17.45,15.51 16.48,15.51 15.51,15.51 14.54,15.51 13.57,15.51 12.6,15.51 11.64,15.51 10.67,15.51 
			9.7,15.51 8.73,15.51 7.76,15.51 6.79,15.51 5.82,15.51 4.85,15.51 4.85,16.48 5.82,16.48 6.79,16.48 7.76,16.48 8.73,16.48 
			9.7,16.48 10.67,16.48 11.64,16.48 12.6,16.48 13.57,16.48 14.54,16.48 15.51,16.48 16.48,16.48 17.45,16.48 18.42,16.48 
			19.39,16.48 19.39,15.51 18.42,15.51 		"/>
		<rect x="17.45" y="6.79" class="st4" width="0.97" height="0.97"/>
		<rect x="16.48" y="7.76" class="st4" width="0.97" height="0.97"/>
		<rect x="15.51" y="8.73" class="st4" width="0.97" height="0.97"/>
		<rect x="14.54" y="9.7" class="st4" width="0.97" height="0.97"/>
		<rect x="13.57" y="10.67" class="st4" width="0.97" height="0.97"/>
		<polygon class="st4" points="11.64,11.64 10.67,11.64 10.67,12.6 11.64,12.6 12.6,12.6 13.57,12.6 13.57,11.64 12.6,11.64 		"/>
		<polygon class="st4" points="9.7,10.67 9.7,9.7 8.73,9.7 8.73,10.67 8.73,11.64 9.7,11.64 10.67,11.64 10.67,10.67 		"/>
		<rect x="7.76" y="8.73" class="st4" width="0.97" height="0.97"/>
		<rect x="6.79" y="7.76" class="st4" width="0.97" height="0.97"/>
		<rect x="5.82" y="6.79" class="st4" width="0.97" height="0.97"/>
	</g>
</g>
</svg>
