<?xml version="1.0" encoding="utf-8"?>
<!-- Generator: Adobe Illustrator 26.5.0, SVG Export Plug-In . SVG Version: 6.00 Build 0)  -->
<svg version="1.1" id="Layer_1" xmlns="http://www.w3.org/2000/svg" xmlns:xlink="http://www.w3.org/1999/xlink" x="0px" y="0px"
	 viewBox="0 0 24.24 23.27" style="enable-background:new 0 0 24.24 23.27;" xml:space="preserve">
<style type="text/css">
	.st0{fill:#E0F2F5;}
	.st1{fill:#E2C695;}
	.st2{fill:#D9CEE6;}
	.st3{fill:#E7F4F4;}
	.st4{fill:#DDD6E7;}
	.st5{fill:#C3BECE;}
	.st6{fill:#E48BBA;}
</style>
<g>
	<polygon class="st0" points="15.51,6.79 14.54,6.79 13.57,6.79 12.6,6.79 11.64,6.79 10.67,6.79 9.7,6.79 8.73,6.79 7.76,6.79 
		7.76,7.76 8.73,7.76 8.73,8.73 9.7,8.73 9.7,9.7 10.67,9.7 10.67,10.67 11.64,10.67 12.6,10.67 13.57,10.67 13.57,9.7 14.54,9.7 
		14.54,8.73 15.51,8.73 15.51,7.76 16.48,7.76 16.48,6.79 	"/>
	<polygon class="st1" points="20.36,13.57 20.36,14.54 20.36,15.51 19.39,15.51 19.39,16.48 18.42,16.48 17.45,16.48 16.48,16.48 
		15.51,16.48 14.54,16.48 13.57,16.48 12.6,16.48 11.64,16.48 10.67,16.48 9.7,16.48 8.73,16.48 7.76,16.48 6.79,16.48 5.82,16.48 
		5.82,17.45 6.79,17.45 7.76,17.45 8.73,17.45 9.7,17.45 10.67,17.45 11.64,17.45 12.6,17.45 13.57,17.45 14.54,17.45 15.51,17.45 
		16.48,17.45 17.45,17.45 18.42,17.45 19.39,17.45 20.36,17.45 20.36,16.48 21.33,16.48 21.33,15.51 21.33,14.54 21.33,13.57 	"/>
	<g>
		<polygon class="st2" points="17.45,8.73 17.45,9.7 16.48,9.7 16.48,10.67 15.51,10.67 15.51,11.64 16.48,11.64 16.48,12.6 
			17.45,12.6 17.45,13.57 18.42,13.57 18.42,12.6 18.42,11.64 18.42,10.67 18.42,9.7 18.42,8.73 		"/>
		<polygon class="st2" points="15.51,12.6 14.54,12.6 13.57,12.6 12.6,12.6 11.64,12.6 10.67,12.6 9.7,12.6 8.73,12.6 8.73,13.57 
			7.76,13.57 7.76,14.54 8.73,14.54 9.7,14.54 10.67,14.54 11.64,14.54 12.6,14.54 13.57,14.54 14.54,14.54 15.51,14.54 
			16.48,14.54 16.48,13.57 15.51,13.57 		"/>
		<polygon class="st2" points="7.76,11.64 8.73,11.64 8.73,10.67 7.76,10.67 7.76,9.7 6.79,9.7 6.79,8.73 5.82,8.73 5.82,9.7 
			5.82,10.67 5.82,11.64 5.82,12.6 5.82,13.57 6.79,13.57 6.79,12.6 7.76,12.6 		"/>
	</g>
	<g>
		<polygon class="st3" points="17.45,5.82 16.48,5.82 15.51,5.82 14.54,5.82 13.57,5.82 12.6,5.82 11.64,5.82 10.67,5.82 9.7,5.82 
			8.73,5.82 7.76,5.82 6.79,5.82 5.82,5.82 5.82,6.79 6.79,6.79 6.79,7.76 7.76,7.76 7.76,6.79 8.73,6.79 9.7,6.79 10.67,6.79 
			11.64,6.79 12.6,6.79 13.57,6.79 14.54,6.79 15.51,6.79 16.48,6.79 16.48,7.76 17.45,7.76 17.45,6.79 18.42,6.79 18.42,5.82 		"/>
		<rect x="15.51" y="7.76" class="st3" width="0.97" height="0.97"/>
		<rect x="14.54" y="8.73" class="st3" width="0.97" height="0.97"/>
		<rect x="13.57" y="9.7" class="st3" width="0.97" height="0.97"/>
		<polygon class="st3" points="11.64,10.67 10.67,10.67 10.67,11.64 11.64,11.64 12.6,11.64 13.57,11.64 13.57,10.67 12.6,10.67 		
			"/>
		<rect x="9.7" y="9.7" class="st3" width="0.97" height="0.97"/>
		<rect x="8.73" y="8.73" class="st3" width="0.97" height="0.97"/>
		<rect x="7.76" y="7.76" class="st3" width="0.97" height="0.97"/>
	</g>
	<g>
		<polygon class="st4" points="18.42,7.76 18.42,8.73 18.42,9.7 18.42,10.67 18.42,11.64 18.42,12.6 18.42,13.57 18.42,14.54 
			19.39,14.54 19.39,13.57 19.39,12.6 19.39,11.64 19.39,10.67 19.39,9.7 19.39,8.73 19.39,7.76 		"/>
		<polygon class="st4" points="15.51,14.54 14.54,14.54 13.57,14.54 12.6,14.54 11.64,14.54 10.67,14.54 9.7,14.54 8.73,14.54 
			7.76,14.54 6.79,14.54 6.79,15.51 7.76,15.51 8.73,15.51 9.7,15.51 10.67,15.51 11.64,15.51 12.6,15.51 13.57,15.51 14.54,15.51 
			15.51,15.51 16.48,15.51 17.45,15.51 17.45,14.54 16.48,14.54 		"/>
		<polygon class="st4" points="4.85,8.73 4.85,9.7 4.85,10.67 4.85,11.64 4.85,12.6 4.85,13.57 4.85,14.54 5.82,14.54 5.82,13.57 
			5.82,12.6 5.82,11.64 5.82,10.67 5.82,9.7 5.82,8.73 5.82,7.76 4.85,7.76 		"/>
	</g>
	<g>
		<rect x="18.42" y="6.79" class="st5" width="0.97" height="0.97"/>
		<rect x="17.45" y="14.54" class="st5" width="0.97" height="0.97"/>
		<rect x="17.45" y="7.76" class="st5" width="0.97" height="0.97"/>
		<rect x="16.48" y="13.57" class="st5" width="0.97" height="0.97"/>
		<rect x="16.48" y="8.73" class="st5" width="0.97" height="0.97"/>
		<rect x="15.51" y="12.6" class="st5" width="0.97" height="0.97"/>
		<rect x="15.51" y="9.7" class="st5" width="0.97" height="0.97"/>
		<polygon class="st5" points="14.54,11.64 13.57,11.64 13.57,12.6 14.54,12.6 15.51,12.6 15.51,11.64 		"/>
		<polygon class="st5" points="8.73,11.64 8.73,12.6 9.7,12.6 10.67,12.6 10.67,11.64 9.7,11.64 		"/>
		<rect x="7.76" y="12.6" class="st5" width="0.97" height="0.97"/>
		<rect x="7.76" y="9.7" class="st5" width="0.97" height="0.97"/>
		<rect x="6.79" y="13.57" class="st5" width="0.97" height="0.97"/>
		<rect x="6.79" y="8.73" class="st5" width="0.97" height="0.97"/>
		<rect x="5.82" y="14.54" class="st5" width="0.97" height="0.97"/>
		<rect x="5.82" y="7.76" class="st5" width="0.97" height="0.97"/>
		<rect x="4.85" y="6.79" class="st5" width="0.97" height="0.97"/>
	</g>
	<g>
		<path class="st6" d="M19.39,5.82V4.85h-0.97h-0.97h-0.97h-0.97h-0.97h-0.97H12.6h-0.96h-0.97H9.7H8.73H7.76H6.79H5.82H4.85v0.97
			H3.88v0.97v0.97v0.97V9.7v0.97v0.97v0.96v0.97v0.97v0.97h0.97v0.97h0.97h0.97h0.97h0.97H9.7h0.97h0.97h0.96h0.97h0.97h0.97h0.97
			h0.97h0.97h0.97v-0.97h0.97v-0.97v-0.97V12.6v-0.96v-0.97V9.7V8.73V7.76V6.79V5.82H19.39z M19.39,7.76v0.97V9.7v0.97v0.97v0.96
			v0.97v0.97h-0.97v0.97h-0.97h-0.97h-0.97h-0.97h-0.97H12.6h-0.96h-0.97H9.7H8.73H7.76H6.79H5.82v-0.97H4.85v-0.97V12.6v-0.96
			v-0.97V9.7V8.73V7.76V6.79h0.97V5.82h0.97h0.97h0.97H9.7h0.97h0.97h0.96h0.97h0.97h0.97h0.97h0.97h0.97v0.97h0.97V7.76z"/>
		<rect x="17.45" y="13.57" class="st6" width="0.97" height="0.97"/>
		<rect x="17.45" y="6.79" class="st6" width="0.97" height="0.97"/>
		<rect x="16.48" y="12.6" class="st6" width="0.97" height="0.97"/>
		<rect x="16.48" y="7.76" class="st6" width="0.97" height="0.97"/>
		<rect x="15.51" y="11.64" class="st6" width="0.97" height="0.96"/>
		<rect x="15.51" y="8.73" class="st6" width="0.97" height="0.97"/>
		<polygon class="st6" points="14.54,10.67 13.57,10.67 13.57,11.64 14.54,11.64 15.51,11.64 15.51,10.67 15.51,9.7 14.54,9.7 		"/>
		<polygon class="st6" points="11.64,11.64 10.67,11.64 10.67,12.6 11.64,12.6 12.6,12.6 13.57,12.6 13.57,11.64 12.6,11.64 		"/>
		<polygon class="st6" points="9.7,10.67 9.7,9.7 8.73,9.7 8.73,10.67 8.73,11.64 9.7,11.64 10.67,11.64 10.67,10.67 		"/>
		<rect x="7.76" y="11.64" class="st6" width="0.97" height="0.96"/>
		<rect x="7.76" y="8.73" class="st6" width="0.97" height="0.97"/>
		<rect x="6.79" y="12.6" class="st6" width="0.97" height="0.97"/>
		<rect x="6.79" y="7.76" class="st6" width="0.97" height="0.97"/>
		<rect x="5.82" y="13.57" class="st6" width="0.97" height="0.97"/>
		<rect x="5.82" y="6.79" class="st6" width="0.97" height="0.97"/>
	</g>
</g>
</svg>
