<?xml version="1.0" encoding="utf-8"?>
<!-- Generator: Adobe Illustrator 26.5.0, SVG Export Plug-In . SVG Version: 6.00 Build 0)  -->
<svg version="1.1" id="Layer_1" xmlns="http://www.w3.org/2000/svg" xmlns:xlink="http://www.w3.org/1999/xlink" x="0px" y="0px"
	 viewBox="0 0 24.24 9.7" style="enable-background:new 0 0 24.24 9.7;" xml:space="preserve">
<style type="text/css">
	.st0{fill:#C59A74;}
	.st1{fill:#FFF3DF;}
	.st2{fill:#BC8451;}
</style>
<g>
	<polygon class="st0" points="22.3,1.94 21.33,1.94 20.36,1.94 20.36,0.97 19.39,0.97 19.39,1.94 18.42,1.94 18.42,0.97 17.45,0.97 
		16.48,0.97 15.51,0.97 14.54,0.97 13.57,0.97 12.6,0.97 11.64,0.97 10.67,0.97 9.7,0.97 8.73,0.97 7.76,0.97 6.79,0.97 5.82,0.97 
		4.85,0.97 3.88,0.97 2.91,0.97 2.91,1.94 1.94,1.94 1.94,2.91 0.97,2.91 0.97,3.88 1.94,3.88 2.91,3.88 3.88,3.88 4.85,3.88 
		5.82,3.88 6.79,3.88 7.76,3.88 8.73,3.88 9.7,3.88 10.67,3.88 11.64,3.88 12.6,3.88 13.57,3.88 14.54,3.88 15.51,3.88 16.48,3.88 
		17.45,3.88 18.42,3.88 19.39,3.88 20.36,3.88 21.33,3.88 22.3,3.88 23.27,3.88 23.27,2.91 23.27,1.94 	"/>
	<g>
		<polygon class="st1" points="21.33,0.97 20.36,0.97 20.36,1.94 21.33,1.94 22.3,1.94 22.3,0.97 		"/>
		<rect x="18.42" y="0.97" class="st1" width="0.97" height="0.97"/>
		<rect x="1.94" y="0.97" class="st1" width="0.97" height="0.97"/>
		<rect x="0.97" y="1.94" class="st1" width="0.97" height="0.97"/>
	</g>
	<g>
		<polygon class="st2" points="23.27,1.94 23.27,2.91 23.27,3.88 22.3,3.88 21.33,3.88 20.36,3.88 19.39,3.88 18.42,3.88 
			17.45,3.88 16.48,3.88 15.51,3.88 14.54,3.88 13.57,3.88 12.6,3.88 11.64,3.88 10.67,3.88 9.7,3.88 8.73,3.88 7.76,3.88 
			6.79,3.88 5.82,3.88 4.85,3.88 3.88,3.88 2.91,3.88 1.94,3.88 0.97,3.88 0.97,2.91 0.97,1.94 0,1.94 0,2.91 0,3.88 0,4.85 0,5.82 
			0,6.79 0,7.76 0.97,7.76 0.97,8.73 1.94,8.73 1.94,9.7 2.91,9.7 3.88,9.7 4.85,9.7 5.82,9.7 6.79,9.7 7.76,9.7 8.73,9.7 9.7,9.7 
			10.67,9.7 11.64,9.7 12.6,9.7 13.57,9.7 14.54,9.7 15.51,9.7 16.48,9.7 17.45,9.7 18.42,9.7 19.39,9.7 20.36,9.7 21.33,9.7 
			22.3,9.7 22.3,8.73 23.27,8.73 23.27,7.76 24.24,7.76 24.24,6.79 24.24,5.82 24.24,4.85 24.24,3.88 24.24,2.91 24.24,1.94 		"/>
		<rect x="22.3" y="0.97" class="st2" width="0.97" height="0.97"/>
		<polygon class="st2" points="3.88,0.97 4.85,0.97 5.82,0.97 6.79,0.97 7.76,0.97 8.73,0.97 9.7,0.97 10.67,0.97 11.64,0.97 
			12.6,0.97 13.57,0.97 14.54,0.97 15.51,0.97 16.48,0.97 17.45,0.97 18.42,0.97 19.39,0.97 20.36,0.97 21.33,0.97 22.3,0.97 
			22.3,0 21.33,0 20.36,0 19.39,0 18.42,0 17.45,0 16.48,0 15.51,0 14.54,0 13.57,0 12.6,0 11.64,0 10.67,0 9.7,0 8.73,0 7.76,0 
			6.79,0 5.82,0 4.85,0 3.88,0 2.91,0 1.94,0 1.94,0.97 2.91,0.97 		"/>
		<rect x="0.97" y="0.97" class="st2" width="0.97" height="0.97"/>
	</g>
</g>
</svg>
