<?xml version="1.0" encoding="utf-8"?>
<!-- Generator: Adobe Illustrator 26.5.0, SVG Export Plug-In . SVG Version: 6.00 Build 0)  -->
<svg version="1.1" id="Layer_1" xmlns="http://www.w3.org/2000/svg" xmlns:xlink="http://www.w3.org/1999/xlink" x="0px" y="0px"
	 viewBox="0 0 24.24 11.63" style="enable-background:new 0 0 24.24 11.63;" xml:space="preserve">
<style type="text/css">
	.st0{fill:#C59A74;}
	.st1{fill:#FFF3DF;}
	.st2{fill:#FDC388;}
	.st3{fill:#BC8451;}
</style>
<g>
	<polygon class="st0" points="22.3,1.93 21.33,1.93 20.36,1.93 20.36,0.96 19.39,0.96 19.39,1.93 18.42,1.93 18.42,0.96 17.45,0.96 
		16.48,0.96 15.51,0.96 14.54,0.96 13.57,0.96 12.6,0.96 11.64,0.96 10.67,0.96 9.7,0.96 8.73,0.96 7.76,0.96 6.79,0.96 5.82,0.96 
		4.85,0.96 3.88,0.96 2.91,0.96 2.91,1.93 1.94,1.93 1.94,2.9 0.97,2.9 0.97,3.87 1.94,3.87 2.91,3.87 3.88,3.87 4.85,3.87 
		5.82,3.87 6.79,3.87 7.76,3.87 8.73,3.87 9.7,3.87 10.67,3.87 11.64,3.87 12.6,3.87 13.57,3.87 14.54,3.87 15.51,3.87 16.48,3.87 
		17.45,3.87 18.42,3.87 19.39,3.87 20.36,3.87 21.33,3.87 22.3,3.87 23.27,3.87 23.27,2.9 23.27,1.93 	"/>
	<g>
		<polygon class="st1" points="21.33,0.96 20.36,0.96 20.36,1.93 21.33,1.93 22.3,1.93 22.3,0.96 		"/>
		<rect x="18.42" y="0.96" class="st1" width="0.97" height="0.97"/>
		<rect x="1.94" y="0.96" class="st1" width="0.97" height="0.97"/>
		<rect x="0.97" y="1.93" class="st1" width="0.97" height="0.97"/>
	</g>
	<polygon class="st2" points="23.27,7.75 23.27,8.72 22.3,8.72 22.3,9.69 21.33,9.69 20.36,9.69 19.39,9.69 18.42,9.69 17.45,9.69 
		16.48,9.69 15.51,9.69 14.54,9.69 13.57,9.69 12.6,9.69 11.64,9.69 10.67,9.69 9.7,9.69 8.73,9.69 7.76,9.69 6.79,9.69 5.82,9.69 
		4.85,9.69 3.88,9.69 2.91,9.69 1.94,9.69 1.94,8.72 0.97,8.72 0.97,7.75 0,7.75 0,8.72 0,9.69 0.97,9.69 0.97,10.66 1.94,10.66 
		1.94,11.63 2.91,11.63 3.88,11.63 4.85,11.63 5.82,11.63 6.79,11.63 7.76,11.63 8.73,11.63 9.7,11.63 10.67,11.63 11.64,11.63 
		12.6,11.63 13.57,11.63 14.54,11.63 15.51,11.63 16.48,11.63 17.45,11.63 18.42,11.63 19.39,11.63 20.36,11.63 21.33,11.63 
		22.3,11.63 22.3,10.66 23.27,10.66 23.27,9.69 24.24,9.69 24.24,8.72 24.24,7.75 	"/>
	<g>
		<polygon class="st3" points="23.27,1.93 23.27,2.9 23.27,3.87 22.3,3.87 21.33,3.87 20.36,3.87 19.39,3.87 18.42,3.87 17.45,3.87 
			16.48,3.87 15.51,3.87 14.54,3.87 13.57,3.87 12.6,3.87 11.64,3.87 10.67,3.87 9.7,3.87 8.73,3.87 7.76,3.87 6.79,3.87 5.82,3.87 
			4.85,3.87 3.88,3.87 2.91,3.87 1.94,3.87 0.97,3.87 0.97,2.9 0.97,1.93 0,1.93 0,2.9 0,3.87 0,4.84 0,5.81 0,6.78 0,7.75 
			0.97,7.75 0.97,8.72 1.94,8.72 1.94,9.69 2.91,9.69 3.88,9.69 4.85,9.69 5.82,9.69 6.79,9.69 7.76,9.69 8.73,9.69 9.7,9.69 
			10.67,9.69 11.64,9.69 12.6,9.69 13.57,9.69 14.54,9.69 15.51,9.69 16.48,9.69 17.45,9.69 18.42,9.69 19.39,9.69 20.36,9.69 
			21.33,9.69 22.3,9.69 22.3,8.72 23.27,8.72 23.27,7.75 24.24,7.75 24.24,6.78 24.24,5.81 24.24,4.84 24.24,3.87 24.24,2.9 
			24.24,1.93 		"/>
		<rect x="22.3" y="0.96" class="st3" width="0.97" height="0.97"/>
		<polygon class="st3" points="3.88,0.96 4.85,0.96 5.82,0.96 6.79,0.96 7.76,0.96 8.73,0.96 9.7,0.96 10.67,0.96 11.64,0.96 
			12.6,0.96 13.57,0.96 14.54,0.96 15.51,0.96 16.48,0.96 17.45,0.96 18.42,0.96 19.39,0.96 20.36,0.96 21.33,0.96 22.3,0.96 
			22.3,0 21.33,0 20.36,0 19.39,0 18.42,0 17.45,0 16.48,0 15.51,0 14.54,0 13.57,0 12.6,0 11.64,0 10.67,0 9.7,0 8.73,0 7.76,0 
			6.79,0 5.82,0 4.85,0 3.88,0 2.91,0 1.94,0 1.94,0.96 2.91,0.96 		"/>
		<rect x="0.97" y="0.96" class="st3" width="0.97" height="0.97"/>
	</g>
</g>
</svg>
